<?xml version="1.0" standalone="no"?>
<!DOCTYPE svg PUBLIC "-//W3C//DTD SVG 1.1//EN" "http://www.w3.org/Graphics/SVG/1.1/DTD/svg11.dtd" >
<svg xmlns="http://www.w3.org/2000/svg" xmlns:xlink="http://www.w3.org/1999/xlink" version="1.1">
<metadata></metadata>
<defs>
<font id="ranchoregular" horiz-adv-x="1112" >
<font-face units-per-em="2048" ascent="1638" descent="-410" />
<missing-glyph horiz-adv-x="430" />
<glyph horiz-adv-x="0" />
<glyph horiz-adv-x="682" />
<glyph unicode=" "  horiz-adv-x="430" />
<glyph unicode="&#x09;" horiz-adv-x="430" />
<glyph unicode="&#xa0;" horiz-adv-x="430" />
<glyph unicode="!" horiz-adv-x="348" d="M112 158q-14 110 -23 202t-13 156q-6 76 -8 136q-6 74 -10 150t-5 146t0 133t3 111t37 77t76 42t76 12t35 -13q2 -48 1 -125t-3 -151q-2 -86 -6 -180q-4 -98 -12 -210q-6 -96 -14 -222t-20 -268q-8 -10 -17 -15t-17 -9q-10 -4 -20 -4q-12 0 -22 4q-22 8 -38 28zM228 66 q38 0 64 -22t26 -62q0 -24 -10 -51t-31 -50t-53 -38t-78 -15q-40 0 -61 24t-21 60q0 60 47 107t117 47z" />
<glyph unicode="&#x22;" horiz-adv-x="504" d="M304 1000v142t2 158q22 22 53 35t59 19q32 8 66 8q-16 -114 -24 -212t-12 -170q-6 -84 -8 -154q-12 -10 -28 -11t-35 4t-38 16t-35 25v140zM62 1000q0 64 1 142t1 158q22 22 53 35t59 19q32 8 66 8q-16 -114 -24 -212t-12 -170q-6 -84 -8 -154q-12 -10 -28 -11t-35 4 t-38 16t-35 25v140z" />
<glyph unicode="#" horiz-adv-x="944" d="M822 1072q-12 -40 -22 -83t-20 -77l-20 -80q30 -2 58 -4q24 -2 52 -4t54 -6q-4 -66 -30 -99t-88 -29q-18 0 -37 1t-39 3q-14 -52 -24 -103t-20 -103q28 0 58 -2q26 -2 55 -3t57 -3l-22 -126h-174q-24 -104 -34 -179t18 -107q-28 -12 -59 -13t-59 27q-22 24 -31 66t-5 76 q2 14 7 47t15 83q-46 -2 -88 -2t-88 -4q-10 -60 -15 -101t-3 -70t8 -50t18 -41q-30 -8 -51 -7t-35 5q-16 4 -28 10q-46 32 -52 93t8 153q-74 -6 -120 -10t-52 2q-4 6 -4 25t2 40t6 39t8 22q6 4 55 12t129 14q10 46 18 94t24 114q-30 -2 -62 -6q-28 -4 -59 -6t-57 -6 q-10 30 -8 55t12 43q8 22 26 36q24 22 75 30t109 12q14 54 24 100q10 38 16 72t4 40q8 14 22 21t28 11q16 4 34 4q16 0 32 -4q14 -4 27 -8t23 -12q-12 -60 -26 -114t-28 -112q42 0 84 -2t82 -4q8 36 16 76q8 34 16 75t18 81q20 14 48 15t54 -3q30 -6 60 -14zM538 492 q12 62 18 87t9 38t6 27t11 54q-90 2 -174 0q-12 -52 -24 -103t-22 -105q46 2 90 2h86z" />
<glyph unicode="$" horiz-adv-x="840" d="M496 604q170 -46 247 -106t77 -162q0 -56 -27 -107t-73 -92t-106 -70t-126 -43q-4 -52 -6 -106t14 -84q-10 -8 -21 -13t-21 -9q-12 -4 -22 -6q-30 -6 -63 6t-37 66q-4 76 0 140q-84 8 -152 30q-30 8 -58 22t-52 32t-40 42t-20 54q10 18 25 34t29 28q16 14 34 26 q16 12 34 20q16 8 35 15t37 9q2 -64 27 -99t59 -52t71 -21t65 -4q34 0 74 9t73 28t55 52t22 81t-33 77t-75 46t-84 24t-60 11q-46 10 -111 26t-124 49t-101 89t-42 148q0 84 27 144t71 101t100 66t114 37q-4 28 -6 58t0 58q4 44 33 81t77 45q12 2 24 2q26 0 44 -8 q-8 -56 -11 -112t1 -104q64 0 120 -15t98 -39t66 -56t24 -68q0 -76 -41 -120t-113 -60q-20 -4 -42 -4q-20 0 -44 2t-50 10q36 12 56 33t30 43q10 24 12 52q0 64 -50 87t-116 23q-52 0 -98 -19t-79 -49t-52 -69t-19 -77q0 -40 15 -72t49 -60t92 -52t144 -48z" />
<glyph unicode="%" horiz-adv-x="1180" d="M248 568q-50 0 -94 26t-75 74t-47 115t-10 147q8 90 36 155t60 107t59 62t33 24q14 6 25 3t21 -7q2 -2 6 -10q4 -6 6 -17t2 -29q10 22 23 33t29 17q16 8 36 8q12 2 42 -20t58 -69t48 -121t14 -178q-10 -138 -83 -228t-189 -92zM160 918q-2 -46 3 -89t19 -77t34 -54 t48 -18t51 23t40 54t28 74t15 83q2 38 -2 79t-13 74t-21 55t-26 22q-18 -2 -36 -14q-16 -10 -34 -31t-34 -61q-2 6 -4 18q-2 10 -2 29t4 53q-24 -28 -37 -65t-21 -71q-8 -40 -12 -84zM974 604q14 0 44 -21t59 -68t48 -120t13 -177q-10 -142 -84 -231t-188 -93q-50 0 -94 27 t-75 75t-47 115t-8 147q6 90 34 155t60 107t60 62t34 22q12 6 23 3t21 -7q2 0 6 -8q4 -6 6 -17t2 -29q10 20 24 32t28 18q16 8 34 8zM1016 240q2 38 -1 79t-12 75t-22 56t-27 22q-18 -4 -36 -16q-16 -10 -34 -31t-34 -61q-2 6 -4 18q-2 10 -2 30t4 54q-24 -28 -37 -66 t-21 -72q-8 -40 -12 -84q-2 -46 3 -89t18 -76t34 -53t49 -18q28 0 51 22t40 55t28 74t15 81zM1060 1280q-110 -176 -192 -316t-138 -240q-66 -116 -114 -206q-64 -108 -118 -211t-92 -189t-57 -152t-11 -98q-34 -12 -76 -9t-64 43q-16 28 -4 66t34 82q10 20 43 85t80 157 t104 198t113 208q42 80 94 176q44 82 103 187t129 225q26 16 54 18t54 -4q28 -8 58 -20z" />
<glyph unicode="&#x26;" horiz-adv-x="1106" d="M954 90q52 -58 97 -104t75 -74q-24 -16 -47 -26t-41 -18q-22 -8 -40 -14q-48 -10 -87 16t-67 60q-8 8 -24 32q-40 -28 -86 -54t-100 -44t-117 -25t-135 -1q-74 6 -138 42t-112 90t-75 121t-27 137q0 72 24 139t61 128t82 115t89 98q-16 30 -29 57t-23 55q-48 116 -45 216 t45 173t120 111t184 28q62 -6 108 -27t76 -52t44 -70t14 -81t-13 -92t-43 -106t-80 -118t-126 -128q22 -36 46 -73t48 -77q50 -74 112 -154t126 -160q46 58 72 130t26 148q22 -10 37 -25t25 -29q12 -18 22 -34q24 -56 23 -118t-61 -142q-6 -10 -17 -23t-23 -27zM530 1194 q-26 2 -58 -4t-60 -23t-47 -46t-19 -73q0 -28 20 -82t60 -126q98 92 149 155t51 111q0 82 -96 88zM460 18q64 -6 130 12t126 58q-74 92 -165 217t-175 251q-86 -90 -112 -163t-26 -133q0 -32 14 -72t42 -76t70 -62t96 -32z" />
<glyph unicode="'" horiz-adv-x="262" d="M62 1000q0 64 1 142t1 158q22 22 53 35t59 19q32 8 66 8q-16 -114 -24 -212t-12 -170q-6 -84 -8 -154q-12 -10 -28 -11t-35 4t-38 16t-35 25v140z" />
<glyph unicode="(" horiz-adv-x="476" d="M444 1176q-24 -22 -44 -46t-36 -46q-18 -24 -32 -48q-52 -80 -82 -205t-14 -321q6 -84 23 -163t39 -145t46 -115t44 -75l-22 -236q-62 64 -109 133t-81 138t-58 137t-38 128q-36 142 -40 282q0 178 49 320t118 244t143 163t126 77l-32 -222v0z" />
<glyph unicode=")" horiz-adv-x="454" d="M20 0q24 22 44 46t36 46q18 22 34 46q48 80 79 205t15 321q-8 84 -25 162t-38 144t-45 116t-44 76l22 236q122 -128 189 -271t97 -265q36 -142 40 -280q0 -180 -49 -322t-118 -244t-143 -162t-124 -78l30 224v0z" />
<glyph unicode="*" horiz-adv-x="746" d="M702 928q18 -18 26 -44q4 -12 6 -26q2 -12 2 -26q0 -28 -8 -58q-12 -10 -33 -17t-43 -11q-24 -6 -52 -6q-46 -4 -85 -1t-69 7q16 -22 41 -60t47 -90q4 -16 12 -32q4 -14 10 -31t10 -33q-12 -24 -34 -38q-10 -8 -20 -12q-10 -6 -24 -10q-12 -4 -29 -7t-37 -3q0 22 -2 43 t-4 37q-2 20 -4 36q-4 36 -21 83t-39 81q-14 -14 -34 -35t-40 -41t-37 -38t-25 -26q-12 -10 -28 -21t-34 -15t-35 -1t-31 19q-12 12 -20 30q-8 16 -16 35t-12 45q12 -2 25 0t31 9t41 21t55 36q28 18 50 37t38 35q-16 16 -41 40t-63 48q-48 34 -83 43t-63 7q12 46 32 76 q10 16 22 28q28 34 60 25t58 -29q24 -16 62 -57t68 -103q10 22 26 58t36 90q16 50 23 76t3 46q12 -2 23 -3t21 -5l18 -6q14 -8 30 -16q12 -8 27 -19t27 -27q-6 -18 -15 -39t-19 -41q-10 -22 -24 -46q-10 -24 -29 -50t-35 -48q28 4 57 8t55 10q28 8 54 16q22 8 47 19t45 27z " />
<glyph unicode="+" horiz-adv-x="790" d="M744 504q-24 8 -71 13t-95 7q-56 2 -120 2q-2 -52 -2 -102q0 -42 -1 -88t3 -80q-32 -16 -61 -21t-51 -5q-26 0 -50 4q2 50 3 102t3 94q2 50 2 94q-56 -2 -106 -8q-42 -4 -86 -13t-66 -19q-20 16 -25 59t13 95q36 10 83 16t89 10q50 6 100 10q2 120 3 182t5 72q2 4 18 13 t40 15t53 3t59 -23q-4 -36 -7 -80t-7 -82q-4 -46 -6 -90q104 6 172 2t100 -28q18 -14 22 -35t1 -43t-9 -43t-6 -33z" />
<glyph unicode="," horiz-adv-x="304" d="M160 192q32 0 55 -13t38 -32t22 -42t7 -43q0 -50 -21 -94t-50 -78t-57 -54t-40 -20q-6 0 -12 6q-4 4 -9 13t-9 25q20 26 43 56t27 74q-12 -4 -27 -6t-31 -2q-40 0 -63 20t-23 48q0 20 10 45t29 46t47 36t64 15z" />
<glyph unicode="-" horiz-adv-x="674" d="M630 668q16 -12 20 -33t3 -42t-5 -41t-4 -32q-24 8 -73 10t-99 4h-124q-66 -4 -126 -10q-52 -6 -102 -14t-76 -24q-16 14 -22 51t8 85q34 10 80 18t86 14q48 8 96 14q132 22 218 24t120 -24z" />
<glyph unicode="." horiz-adv-x="284" d="M176 208q38 0 63 -22t25 -62q0 -24 -9 -50t-30 -49t-54 -38t-79 -15q-40 0 -61 24t-21 60q0 60 48 106t118 46z" />
<glyph unicode="/" horiz-adv-x="720" d="M508 1292q34 28 71 40t69 16q36 4 72 0q-78 -182 -139 -328t-101 -254q-50 -124 -84 -224q-48 -120 -90 -234t-69 -208t-37 -161t4 -97q-18 -10 -43 -20t-51 -14t-51 -2t-41 18q-24 22 -18 62t22 86q8 20 34 93t62 174t79 219t85 232l70 190q32 86 73 193t83 219z" />
<glyph unicode="0" horiz-adv-x="1004" d="M602 1318q68 0 132 -49t113 -139t78 -216t27 -282q-4 -174 -39 -323t-96 -256t-145 -167t-188 -58q-100 2 -181 48t-138 137t-87 231t-26 332q4 190 52 333t115 240t138 148t121 57q30 -20 42 -46q14 4 34 8t48 2zM758 620q2 100 -12 193t-38 166t-54 117t-60 44 q-24 -2 -46 -16q-20 -12 -43 -40t-43 -78q-16 26 -22 57t-2 63q-48 -40 -82 -98t-57 -127t-35 -147t-14 -156q-4 -160 14 -274t51 -187t78 -108t97 -35q60 -2 108 48t83 136t55 200t22 242z" />
<glyph unicode="1" horiz-adv-x="452" d="M350 -98q-10 -16 -28 -27t-34 -19q-20 -8 -42 -16q-16 -4 -38 -8q-18 -4 -42 -8t-54 -6q10 166 18 315t12 263q6 134 10 250q8 144 9 232t1 140q-32 6 -62 22t-60 52q6 26 23 55t35 53q22 28 44 54q32 34 58 51t49 24t46 6t49 -3q-4 -156 -6 -289t-4 -235 q-2 -118 -2 -218q0 -128 2 -252q2 -108 5 -226t11 -210z" />
<glyph unicode="2" horiz-adv-x="876" d="M814 -22q0 -24 2 -46q0 -20 1 -44t-3 -48q-28 22 -67 35t-115 17q-120 6 -239 -16t-217 -52q-20 -6 -40 5t-39 34t-34 53t-23 62t-10 72t7 85t35 93t74 96q44 42 125 97t162 125t141 156t64 192q8 152 -40 227t-124 81q-102 8 -167 -76t-103 -250q-10 -6 -30 0t-38 16 q-22 10 -46 28q-22 16 -37 43t-13 55q2 36 30 96t85 115t144 92t209 27q68 -6 128 -39t104 -93t68 -145t18 -195q-6 -116 -59 -207t-120 -159t-133 -114t-100 -72q-42 -32 -80 -61t-63 -64t-33 -77t8 -98q48 18 127 39t177 29q72 4 120 3t78 -12t45 -36t21 -69z" />
<glyph unicode="3" horiz-adv-x="948" d="M594 684q58 0 114 -31t100 -86t68 -131t18 -166q-8 -114 -57 -198t-117 -139t-144 -81t-136 -26q-40 0 -101 13t-122 48t-110 95t-63 154q-6 30 4 65t29 66t47 54t60 27q10 -124 53 -192t91 -100q56 -36 124 -44q124 -2 188 74t64 202q0 52 -19 98t-50 79t-69 53t-78 20 q-36 0 -70 -6q-28 -4 -57 -14t-47 -30l-78 184q38 16 81 53t79 73q42 42 82 90q58 74 98 135t62 97q-30 10 -79 19t-117 5q-56 -4 -118 -12q-52 -8 -116 -22t-124 -38q-12 44 -22 87t-9 77t20 59t67 35q46 8 110 13t134 5t139 -3t125 -9q70 -8 124 -7t64 5q18 -56 22 -100 t2 -74q-4 -36 -12 -64q-12 -28 -56 -86t-98 -121t-105 -121t-77 -88q38 6 82 4z" />
<glyph unicode="4" horiz-adv-x="952" d="M868 368q-14 2 -33 3t-37 1h-46q0 -76 2 -156q2 -70 3 -157t5 -177q-10 -10 -28 -18t-36 -14q-22 -8 -44 -12q-64 -12 -89 -9t-23 59q0 36 9 163t17 311q-8 -2 -17 -2t-17 -2q-70 -6 -138 -14q-58 -6 -124 -12t-116 -12q-20 -4 -32 5t-26 23q-6 6 -19 25t-27 41t-27 43 t-17 35q-10 24 -7 44t13 42q58 102 103 180t75 132q36 64 62 108q24 40 53 92t64 100t76 87t87 53l220 22q-4 -150 -6 -280t-2 -228q0 -114 2 -210q-2 -18 -1 -37t1 -39q28 0 58 2q26 2 55 3t55 1q10 -44 6 -76q-2 -18 -6 -34q-4 -18 -12 -34q-6 -14 -16 -28t-20 -24z M578 718q4 148 2 274t-4 194q-34 -58 -81 -138t-93 -160q-28 -46 -57 -99t-57 -106t-52 -103t-42 -86q54 8 142 20t200 24q10 2 19 2t19 2q2 44 3 87t1 89z" />
<glyph unicode="5" horiz-adv-x="960" d="M460 0q60 0 106 28t77 75t48 110t17 133q0 38 -10 89t-33 95t-61 75t-92 31q-44 -2 -88 -16q-38 -12 -81 -36t-83 -70q-4 -4 -16 -1t-24 7l-32 12q-18 8 -38 22q-16 12 -35 31t-37 47q10 86 16 157t10 123q6 60 8 110q6 60 5 104t-4 77t-8 57t-9 44l104 30q70 -8 134 -10 t116 -2q60 0 112 2q66 -4 109 -1t72 10t49 15t40 18q6 -46 0 -98t-34 -110q-58 -14 -119 -21t-109 -11q-58 -4 -110 -4q-56 0 -98 6t-72 16v-67t-2 -91q-4 -90 -7 -156t-7 -114q46 40 110 68t162 28q86 0 153 -37t114 -102t72 -153t25 -190q0 -96 -35 -186t-97 -159 t-145 -111t-179 -42q-110 0 -180 36t-112 82t-60 89t-26 59q-16 32 14 61t82 57q20 10 38 18q16 6 29 11t21 3q10 -94 43 -145t67 -73q40 -28 90 -30z" />
<glyph unicode="6" horiz-adv-x="966" d="M916 350q2 -110 -24 -203t-77 -162t-126 -109t-167 -42q-94 -4 -176 31t-146 117t-103 215t-45 327q-6 162 30 311t107 263t173 183t228 73q72 2 121 -23t81 -55q36 -36 60 -82q0 -44 -6 -70q-4 -16 -8 -30q-6 -20 -14 -38q-6 -16 -14 -30t-14 -20q-26 60 -61 92t-69 48 q-38 18 -82 18q-72 -2 -131 -46t-104 -117t-74 -167t-39 -196q46 74 114 124t164 54q92 2 165 -31t125 -94t80 -149t32 -192zM520 -24q48 2 88 34t69 85t44 122t11 147q-6 78 -29 134t-55 93t-69 55t-71 16q-58 -4 -103 -40t-75 -89t-44 -115t-10 -118q2 -56 23 -115 t54 -106t76 -76t91 -27z" />
<glyph unicode="7" horiz-adv-x="876" d="M842 1312q28 -2 30 -19t2 -27l-12 -108q-70 -122 -119 -211t-77 -147q-36 -68 -54 -114q-24 -54 -54 -143t-57 -195t-45 -224t-18 -230q-14 -8 -32 -14t-34 -10q-20 -6 -42 -10q-28 -4 -56 -4h-56q-8 64 4 156t36 194t55 204t63 188q30 84 69 168t77 159t72 135t56 98 q-56 2 -172 0q-78 -4 -133 -10t-98 -18t-77 -30t-68 -46q-22 12 -35 28t-23 32q-10 18 -16 36q-4 18 -6 40q-2 18 -2 40t8 44q64 40 148 51t180 15q50 2 117 -1t135 -8t131 -11t103 -8z" />
<glyph unicode="8" horiz-adv-x="934" d="M480 -168q-102 0 -179 30t-130 82t-82 124t-35 154q-4 56 5 118t32 119t62 107t95 86q-70 46 -109 118t-43 156q-4 60 9 133t55 138t119 109t201 44q90 0 155 -33t107 -82t63 -108t25 -109q8 -118 -27 -209t-105 -147q48 -28 82 -68t55 -85t32 -91t13 -88q8 -96 -14 -186 t-73 -159t-130 -111t-183 -42zM480 1210q-44 0 -80 -20t-62 -54t-40 -77t-14 -89q0 -104 49 -173t147 -69q44 0 77 21t54 55t31 74t10 80q0 110 -45 181t-127 71zM480 560q-58 0 -101 -27t-71 -68t-43 -92t-15 -99q0 -62 16 -115t46 -92t73 -61t95 -22q38 0 75 21t66 60 t47 92t18 117q0 126 -54 206t-152 80z" />
<glyph unicode="9" horiz-adv-x="932" d="M458 1344q110 0 190 -56t132 -143t76 -196t24 -213q0 -192 -56 -354t-143 -280t-191 -184t-200 -66q-48 0 -88 54t-66 124q78 -12 159 12t154 84t132 156t93 226q-40 -62 -103 -103t-155 -41q-94 0 -163 48t-114 119t-66 153t-21 152q0 46 8 102t26 112t49 109t76 94 t106 66t141 25zM480 532q54 2 90 42t59 96t32 119t7 113q-4 66 -20 121t-43 95t-63 61t-78 19q-48 -4 -90 -35t-72 -81t-46 -111t-12 -123q2 -68 20 -127t48 -102t72 -66t96 -21z" />
<glyph unicode=":" horiz-adv-x="316" d="M204 592q30 0 60 -22t30 -72q0 -48 -45 -90t-125 -42q-30 0 -48 8t-29 20t-15 26t-4 26q0 24 14 50t38 47t56 35t68 14zM186 208q38 0 63 -22t25 -62q0 -24 -9 -50t-30 -49t-54 -38t-79 -15q-38 0 -60 24t-22 60q0 60 48 106t118 46z" />
<glyph unicode=";" horiz-adv-x="318" d="M168 188q30 0 53 -12t38 -31t22 -41t7 -42q0 -50 -21 -94t-49 -77t-56 -52t-40 -19q-6 0 -12 6q-4 4 -8 12t-8 24q18 26 40 55t26 73q-10 -4 -24 -6t-30 -2q-40 0 -63 20t-23 48q0 20 10 44t29 45t46 35t63 14zM204 594q32 0 62 -22t30 -72q0 -52 -45 -94t-127 -42 q-30 0 -49 9t-31 21t-16 26t-4 26q0 26 14 52t39 47t58 35t69 14z" />
<glyph unicode="&#x3c;" horiz-adv-x="480" d="M420 1004q10 -8 17 -20t11 -26q6 -16 8 -34t2 -36q0 -16 -2 -32t-6 -30q-76 -48 -137 -89t-103 -71q-50 -36 -88 -66q34 -34 84 -74q42 -36 102 -85t138 -111q4 -16 3 -37t-5 -41q-4 -22 -10 -46q-4 -18 -8 -30q-4 -10 -7 -19t-5 -5q-98 76 -171 142t-121 114 q-58 56 -98 102q-8 10 -14 35t-8 52t-1 50t9 29q26 24 58 51t65 55t67 55t64 49q30 24 58 46q24 20 51 39t47 33z" />
<glyph unicode="=" horiz-adv-x="652" d="M262 796q54 -2 114 -6q52 -4 118 -10t136 -16q-2 -66 -20 -100t-62 -30q-44 6 -97 10t-137 4q-46 0 -96 -4q-42 -4 -92 -9t-98 -15q-8 30 -5 55t9 43q8 22 20 38q12 14 36 23t54 14t61 5t59 -2zM362 538q46 0 109 -2t145 -8l-14 -124h-109t-99 -2q-52 -2 -98 -2 q-54 0 -103 -5t-85 -10t-59 -7t-25 2q-4 6 -4 25t2 40t4 40t6 23q4 8 72 21t166 9h92z" />
<glyph unicode="&#x3e;" horiz-adv-x="490" d="M50 1004q18 -14 45 -33t51 -39q28 -22 58 -46q60 -46 131 -105t123 -105q8 -6 10 -29t-1 -50t-9 -52t-14 -35q-40 -46 -96 -102q-48 -48 -121 -114t-171 -142q-2 -4 -5 5t-7 19q-6 12 -10 30q-6 24 -10 46q-4 20 -5 41t3 37q78 62 138 111t102 85q48 40 84 74 q-38 30 -88 66q-42 30 -103 71t-137 89q-6 14 -7 30t-1 32q0 18 2 36t8 34q4 14 11 26t19 20z" />
<glyph unicode="?" horiz-adv-x="848" d="M444 1346q84 0 157 -28t128 -83t87 -134t32 -181q0 -88 -31 -161t-83 -128t-122 -92t-150 -49q-2 -30 -2 -75t-4 -91q-2 -74 8 -107t34 -61q-22 -16 -42 -22t-36 -10q-20 -4 -34 -4q-22 0 -43 5t-37 20t-26 43t-10 76q0 16 1 34t1 44t-2 61t-6 85q-4 48 3 73t21 35t31 11 t33 3q20 2 68 12t99 42t90 97t39 179q0 122 -58 196t-158 74q-42 0 -81 -15t-69 -42t-48 -64t-18 -81q2 -24 12 -44q10 -18 28 -34t54 -24l-192 -98q-40 22 -62 54t-32 60q-12 34 -14 70q0 62 23 125t75 114t134 83t202 32zM444 56q32 0 63 -24t31 -76q0 -50 -46 -93 t-130 -43q-32 0 -52 8t-31 21t-15 28t-4 27q0 26 15 53t40 49t58 36t71 14z" />
<glyph unicode="@" horiz-adv-x="1176" d="M630 1178q154 0 256 -62t161 -156t80 -206t15 -212q-8 -114 -44 -206t-88 -155t-113 -93t-117 -16q-52 12 -79 44t-38 70t-12 76t3 64q2 10 3 19t3 19q-38 -68 -88 -116t-106 -48q-40 0 -72 18t-54 49t-33 70t-11 81q0 82 29 170t75 162t105 121t119 47q54 0 82 -32 t38 -60l22 68q6 18 23 15t36 -14t33 -26t12 -21l-84 -350q-10 -44 -22 -97t-14 -100t12 -79t58 -32q48 0 84 42t59 107t34 144t11 153q0 86 -21 169t-64 146t-108 102t-151 39q-98 0 -188 -52t-159 -142t-110 -213t-41 -265q0 -114 37 -190t89 -121t109 -63t97 -18 q14 -2 34 2q30 4 84 22q18 -2 30 -10q10 -6 18 -16t6 -26q-28 -14 -57 -21t-53 -11q-28 -4 -56 -4q-90 0 -176 24t-155 83t-111 158t-42 249q0 144 51 272t137 223t195 150t227 55zM498 338q34 0 70 41t65 101t47 127t18 117q0 48 -16 73t-44 25q-36 0 -71 -37t-63 -92 t-45 -121t-17 -124q0 -110 56 -110z" />
<glyph unicode="A" horiz-adv-x="1144" d="M1134 -98q-20 -28 -46 -43t-50 -21q-28 -8 -60 -6q-12 0 -26 6q-12 4 -26 11t-24 21q-28 100 -50 194t-38 168q-20 86 -34 162q-54 2 -161 1t-231 -13q-38 -120 -60 -202t-32 -136t-8 -89t12 -61q-28 -28 -55 -41t-49 -17q-26 -6 -50 -4q-32 4 -52 11t-29 22t-6 43t15 74 q12 40 45 143t75 235q-76 -6 -117 8t-57 76q32 10 69 19t71 17q38 8 78 14q42 132 86 260t82 230l116 310q4 12 42 26t84 23t88 9t54 -18q6 -42 17 -104t21 -120q12 -68 28 -140q18 -100 39 -222t53 -260t76 -286t110 -300zM578 528q64 2 106 2t72 -2l-6 30q-12 74 -25 158 t-26 166t-25 156t-20 130q-20 -52 -46 -125t-56 -159t-61 -180t-61 -186q36 4 72 6t76 4z" />
<glyph unicode="B" horiz-adv-x="1046" d="M132 928q-28 8 -57 25t-52 40t-35 51t-6 60q12 66 76 124t172 92v6q2 22 29 45t67 31q38 8 55 0t17 -22q0 -4 -1 -9t-1 -9v-10q98 8 218 -6q144 -18 234 -68t136 -115t57 -135t-1 -128q-12 -68 -44 -123t-76 -98t-98 -75t-114 -54q64 -14 109 -45t73 -73t40 -94t8 -106 q-4 -84 -43 -157t-105 -127t-157 -84t-201 -26h-24q-30 -26 -65 -39t-67 -19q-36 -8 -72 -6q0 14 1 29t1 29q0 16 2 32q-24 4 -46 12q-20 6 -41 13t-37 15q-8 12 -12 30q-4 16 -5 35t7 43q62 -24 142 -36q4 102 7 242t3 294q0 174 1 342t1 288q-58 -30 -90 -82t-6 -132z M748 222q8 88 -26 141t-89 80t-120 33t-117 2q4 -166 6 -301t4 -221q62 -2 120 14t105 50t79 85t38 117zM392 1188q-4 -102 -4 -242t4 -312v-31t2 -31q72 6 150 35t143 77t107 113t42 143q0 60 -32 107t-85 79t-122 48t-143 16h-31t-31 -2z" />
<glyph unicode="C" horiz-adv-x="966" d="M492 -176q-108 0 -196 53t-149 145t-94 216t-33 268q0 206 48 368t127 274t180 172t207 60q100 0 168 -36t109 -92t56 -123t9 -127q-10 -116 -79 -188t-159 -72q-30 2 -62 10q-28 8 -58 24t-56 46q84 -6 130 34t68 90q24 58 28 136q0 44 -14 77t-37 54t-49 31t-50 10 q-54 0 -117 -42t-119 -127t-93 -216t-37 -311q0 -178 32 -291t78 -176t97 -86t87 -23q70 6 128 48q50 36 95 115t61 227q26 -2 43 -12t29 -20q12 -12 22 -28q2 -2 0 -40t-14 -92t-37 -116t-70 -116t-113 -89t-166 -35z" />
<glyph unicode="D" horiz-adv-x="1140" d="M122 888q-16 2 -31 20t-27 40q-14 24 -26 56q-14 40 -17 69t3 51t20 40t34 36q24 22 88 56t148 58v20q0 10 1 18t1 16l158 52q16 6 34 1t14 -37q0 -10 -1 -20t-3 -22q128 -4 233 -52t180 -131t117 -197t42 -248q0 -198 -56 -344t-146 -248t-204 -164t-228 -90 q-14 -14 -38 -28t-52 -24t-57 -15t-51 -1q0 4 1 12t1 14q0 8 2 16q-78 -4 -136 8q-14 8 -26 30q-6 8 -10 20q-6 10 -8 20q-6 18 0 44q98 -12 188 0q6 86 12 209t12 267q4 84 7 179t5 190t4 185t2 166q-96 -38 -149 -109t-41 -163zM480 876q-8 -134 -12 -262t-5 -242t1 -207 t4 -157q192 72 307 242t115 426q0 112 -27 205t-77 160t-120 105t-154 42h-8q-6 -60 -12 -137t-12 -175z" />
<glyph unicode="E" horiz-adv-x="944" d="M76 1110q-12 12 -19 28t-11 30q-6 16 -6 34q-2 16 0 32q2 12 4 25t10 19q16 4 37 7t39 7l44 8q8 12 33 25t54 23t55 15t36 -1v-42q52 6 108 11t120 5q78 2 146 4q58 2 117 1t91 -3q16 -2 25 -23t6 -53t-21 -70t-56 -72q-48 10 -100 16t-96 10q-52 4 -100 2q-62 0 -122 -3 t-116 -7q2 -98 3 -223t3 -253l52 4t54 4q72 4 141 8t120 -3t77 -31t12 -76l-28 -96q-4 10 -21 17t-39 11q-24 6 -54 10q-70 8 -154 2t-160 -18v-2q2 -176 -1 -292t-7 -180q26 4 51 6t53 6q72 6 150 8q66 2 147 1t157 -11q12 -20 8 -52t-14 -62q-12 -36 -30 -76 q-90 10 -174 14t-150 6q-78 2 -146 0q-124 4 -196 -13t-102 -25q-20 -6 -30 6t-22 39t-8 75q0 4 2 11t12 11q12 4 38 10t64 14q4 82 6 208t6 256q-34 6 -60 55t-24 109q12 4 27 6t29 6q16 4 32 6q2 52 2 94t2 74q4 84 2 167t-4 153q-18 -2 -38 -4q-16 -2 -34 -4t-32 -4z" />
<glyph unicode="F" horiz-adv-x="872" d="M86 1106q-12 12 -18 27t-10 31q-4 18 -6 36q-2 16 0 32q0 30 12 46q22 4 48 9t50 9q28 4 58 8q16 16 43 35t61 35q26 12 36 0t14 -50q50 4 104 8t112 4q78 2 146 4q58 2 117 1t91 -3q16 -2 25 -23t6 -54t-21 -71t-54 -74q-48 10 -101 16t-97 10q-52 4 -100 2 q-58 0 -116 -3t-110 -7q-2 -90 -3 -209t-3 -263q28 4 54 5t54 3q72 4 140 8t119 -3t77 -31t12 -76l-28 -96q-4 10 -21 17t-39 11q-24 6 -54 10q-70 8 -154 2t-162 -18q0 -100 3 -189t8 -161t9 -124l6 -78q2 -18 -4 -28q-10 -12 -24 -28t-36 -32t-53 -27t-71 -13 q-18 0 -18 18v620q-34 2 -62 52t-26 112q14 4 29 6t29 6q16 4 30 6q0 144 2 269t6 215q-18 -2 -38 -4q-16 -2 -36 -4t-36 -4z" />
<glyph unicode="G" horiz-adv-x="1052" d="M502 -164q-94 0 -175 50t-143 144t-97 229t-35 305t46 316t122 254t177 169t209 61q110 0 180 -30t110 -81t54 -119t10 -142q-2 -48 -20 -97t-44 -87t-56 -58t-58 -8q-22 6 -48 14q-48 16 -114 46q40 28 74 64q28 32 51 78t23 106q0 52 -13 89t-34 60t-47 34t-52 11 q-66 0 -131 -52t-116 -145t-83 -221t-32 -278q0 -118 23 -219t61 -174t89 -114t109 -41q44 0 84 24t68 66t45 102t17 132q0 66 -3 103t-6 56t-6 23l-3 4q2 0 32 -2t67 -9t69 -22t42 -41q8 -26 10 -97t-1 -156t-6 -169t-3 -138q0 -14 -27 -32t-60 -31t-61 -15t-30 14v126v64 q-32 -64 -96 -115t-172 -51z" />
<glyph unicode="H" horiz-adv-x="1124" d="M146 434q-24 -8 -49 3t-45 35t-31 56t-11 68q26 4 56 9t56 9q30 4 58 8q2 116 5 221t6 188t6 140t5 77q0 10 10 20q16 12 47 34t71 40q34 14 45 -9t11 -87q-4 -90 -8 -242t-8 -358q32 4 62 6t64 4q92 4 179 10t153 0q10 286 6 429t-4 169q0 12 26 28t57 29t57 18t28 -3 q2 -14 1 -70t-2 -157t0 -251t7 -350q-4 -92 -4 -192q0 -86 4 -192t18 -214q-26 -22 -56 -34t-58 -20q-32 -8 -64 -12q-18 -2 -29 7t-15 22t-5 27t-1 26q0 26 1 49t3 37q4 86 10 208t12 272q-14 2 -26 3t-28 3q-90 6 -195 0t-205 -20q-2 -98 0 -185t5 -158t7 -122t8 -75 q2 -20 -6 -28q-8 -10 -23 -26t-38 -31t-55 -26t-74 -11q-20 0 -20 18q0 26 1 82t2 136t2 179t3 211q-10 -2 -17 -4t-15 -4z" />
<glyph unicode="I" horiz-adv-x="572" d="M174 1148q-28 -6 -54 -14q-22 -8 -49 -17t-51 -21q-8 30 -15 66t-3 69t23 58t65 29q44 6 102 8t121 2t129 -3t130 -11q4 -32 6 -55t2 -39v-32q0 -12 -4 -20q-8 -20 -28 -26q-22 6 -51 9t-57 7q-32 4 -66 6q4 -70 7 -203t-1 -349q-4 -220 -7 -359t-5 -215q76 -6 113 -25 t50 -44t10 -55t-5 -58q-34 8 -77 11t-81 3q-44 0 -90 -4q-52 -4 -100 -12q-40 -8 -80 -20t-60 -34q-16 30 -24 64q-8 28 -12 66t2 78q22 8 50 13t52 9q28 4 58 6q4 64 10 179t10 309q4 244 -4 397t-16 227z" />
<glyph unicode="J" horiz-adv-x="904" d="M336 -190q-94 0 -159 40t-104 101t-56 137t-17 148q0 62 17 117t31 75q10 14 26 30t46 22q32 6 64 14q28 6 55 10t49 8q-30 -34 -50 -78t-30 -91t-14 -91t0 -80q6 -100 59 -163t117 -63q50 0 86 29t60 75t38 106t20 121t8 120t2 103q0 74 -7 162t-17 176t-21 167t-19 133 q-80 -12 -136 -30t-104 -30q-22 -4 -28 8q-34 56 -36 100t4 66q2 10 22 18q72 24 186 46t258 28q40 0 76 -2q32 -2 67 -8t63 -18q12 -10 18 -25t10 -31q4 -20 4 -40q0 -22 -4 -44q-4 -20 -10 -44t-16 -48q-10 12 -21 23t-31 20t-52 14t-86 7q18 -112 31 -196t22 -164 t14 -168t5 -208q0 -164 -36 -279t-97 -187t-141 -104t-166 -32z" />
<glyph unicode="K" horiz-adv-x="914" d="M102 434q2 104 3 201t3 167q2 72 4 149t1 146t-5 123t-12 78q44 28 86 38q22 6 44 8q28 2 42 -3t20 -19t7 -33t1 -43t-3 -84t-7 -144t-6 -185t-2 -205q54 62 109 126t95 120q106 146 162 257t56 155q34 22 64 34t52 18q24 8 44 8q44 0 49 -38t-9 -82q-14 -38 -53 -103 t-93 -145t-120 -167t-136 -169q36 -66 85 -157t100 -180t97 -164t76 -111q38 -50 62 -78t42 -46t35 -30t41 -28q-34 -16 -67 -24t-59 -12q-32 -4 -58 -4q-54 2 -101 49t-83 111q-14 22 -47 86t-74 145t-85 166t-76 149q-28 -28 -53 -54t-53 -48q2 -88 3 -165t1 -140t-1 -106 t-1 -61q0 -24 -12 -45t-37 -37t-68 -24t-105 -6l10 70t10 82q6 46 10 92t6 108t4 134q-12 12 -25 28t-23 38q8 8 16 18t16 18l18 18v0z" />
<glyph unicode="L" horiz-adv-x="748" d="M52 -100q8 26 15 87t11 123q6 72 10 156q6 62 10 156t6 200t2 215t-2 203t-7 162t-13 92q38 22 68 32t52 14q24 6 44 4q16 -2 32 -6q14 -4 26 -11t18 -19q-4 -126 -9 -253t-11 -233q-8 -124 -16 -238q-6 -120 -11 -207t-9 -152t-6 -116t-2 -101q48 10 114 23t150 27 q80 12 134 7t86 -24t44 -48t10 -65q-4 -40 -6 -62t-2 -34q-22 14 -60 20t-76 10q-44 4 -92 2q-52 -2 -114 -8q-52 -4 -122 -12t-146 -24q-54 38 -90 60q-22 12 -38 20z" />
<glyph unicode="M" horiz-adv-x="1406" d="M1186 -170q-60 2 -82 37t-26 97t4 147t8 185q2 198 15 361t7 317v22t-2 20q-10 -34 -23 -77t-31 -95q-36 -112 -71 -230t-68 -229t-62 -206t-51 -159t-43 -95t-42 -43t-42 -10t-41 4q-8 68 -30 160t-46 176q-28 98 -62 200q-46 176 -96 322t-78 240q-12 -102 -18 -234 t-8 -264t2 -249t12 -189q2 -30 8 -60q4 -26 11 -53t17 -49q-10 -8 -24 -14t-30 -10q-18 -6 -38 -10q-78 -16 -113 4t-43 80q-4 30 -6 112t-1 189t5 225t12 220q8 82 16 178q8 84 16 194t18 238q6 12 20 21t30 15q18 8 40 12q34 6 60 10q22 4 41 6t15 0q26 -54 40 -89t29 -83 t38 -126t67 -218q60 -194 103 -338t65 -220q14 26 28 57t29 75t32 103t39 141q28 90 58 194q24 88 53 201t55 235q64 26 104 39t62 21q26 8 38 10q12 -2 24 -12q10 -10 24 -28t30 -54v-90v-143t-2 -175t-3 -189t-2 -185t-3 -160q-4 -106 -1 -180t12 -123t24 -79t37 -48 q-6 -4 -23 -13t-41 -18t-50 -15t-46 -6z" />
<glyph unicode="N" horiz-adv-x="1084" d="M94 74q-2 40 -1 110t4 155t7 180t7 187t6 175t5 145q2 44 4 86q2 36 2 78t-4 76q16 6 26 12t20 13t23 16t37 19q14 6 30 10q14 4 31 6t37 0q34 -112 69 -207t71 -184t76 -178t82 -191q44 -104 80 -190t60 -150q4 72 8 161t6 183t3 185t2 170t1 139v88q0 50 27 83t62 53 t70 28t51 8q12 0 20 -2t15 -4t11 -6q-34 -46 -50 -98t-23 -104t-7 -102v-92q-2 -100 -6 -246q-4 -126 -6 -314t-2 -450q-42 -34 -78 -58t-92 -16q-24 2 -39 20t-30 51t-31 82t-42 115q-46 116 -94 234t-92 224t-81 193t-61 141q-36 -274 -33 -472t13 -290q6 -40 14 -82 q8 -36 20 -81t32 -91q-34 -34 -67 -46t-59 -16q-30 -4 -58 2q-14 4 -27 27t-23 57t-17 75t-9 83z" />
<glyph unicode="O" d="M666 1324q74 -2 145 -52t125 -140t85 -216t29 -282q-4 -174 -42 -322t-105 -256t-161 -168t-208 -58q-108 2 -197 48t-151 138t-95 232t-29 330t57 333t127 240t152 148t132 57q34 -24 48 -46q16 6 37 10t51 4zM846 622q2 102 -14 197t-43 169t-61 119t-68 47 q-26 -2 -52 -16q-22 -14 -48 -42t-48 -80q-20 28 -25 60t-1 64q-54 -40 -94 -99t-66 -130t-40 -150t-16 -161q-4 -164 17 -280t58 -191t87 -110t108 -35q68 -2 123 49t95 139t63 204t25 246z" />
<glyph unicode="P" horiz-adv-x="940" d="M504 1366q76 0 158 -24t151 -77t113 -138t44 -207q0 -110 -41 -214t-116 -190t-181 -147t-236 -83q0 -82 6 -142q2 -56 5 -95t6 -67t7 -51t10 -45q-40 -30 -76 -44t-64 -20q-32 -8 -60 -4q-10 26 -18 57t-11 81t-3 127t4 197q-16 2 -34 3t-34 5q-14 32 -18 56t-4 40 q0 20 4 32q16 -2 32 -3t30 -1q16 -2 30 -2q4 92 9 191t8 193t6 181t5 155q-60 -40 -105 -104t-59 -148q-26 4 -44 25t-30 43q-14 26 -24 58q-10 38 -1 77t29 74t46 62t50 43q44 26 88 47t100 35q22 22 49 40t53 22q32 8 36 -42q18 2 38 3t42 1zM396 436q54 16 118 48t120 85 t94 131t38 188q0 84 -29 143t-75 96t-101 54t-109 17h-20t-20 -2q-6 -64 -6 -138q0 -50 -2 -121t-4 -153t-3 -172t-1 -176z" />
<glyph unicode="Q" horiz-adv-x="1088" d="M520 -16q40 0 68 14q-18 32 -40 63t-46 56t-50 41t-56 16q-22 0 -35 -17t-11 -42t20 -53t58 -52q40 -26 92 -26zM646 1324q74 -2 145 -52t125 -140t85 -216t29 -282q-4 -224 -64 -402t-168 -284q56 -64 115 -96t155 -32q-8 -42 -35 -66t-55 -38q-36 -16 -76 -22 q-50 -4 -87 11t-64 41t-47 56t-36 56q-74 -30 -154 -28q-108 2 -197 48t-152 138t-96 232t-29 330t58 333t127 240t152 148t133 57q28 -20 48 -46q16 6 37 10t51 4zM826 622q2 102 -14 197t-43 169t-61 119t-70 47q-26 -2 -52 -16q-22 -14 -47 -42t-47 -80q-22 28 -27 60 t-1 64q-54 -40 -93 -99t-65 -130t-40 -150t-16 -161q-2 -118 8 -210t28 -162q14 32 44 52t82 20q72 0 135 -47t145 -163q62 88 96 229t38 303z" />
<glyph unicode="R" horiz-adv-x="986" d="M606 206q-20 62 -39 110t-33 82q-78 -26 -170 -36q0 -128 6 -218q2 -56 5 -95t6 -67t7 -51t12 -45q-40 -30 -77 -44t-65 -20q-34 -8 -60 -4q-10 28 -18 59t-11 84t-3 135t6 210q2 14 2 28t2 28q-18 2 -37 4t-37 4q-12 32 -16 57t-4 41q0 20 4 32q32 -6 64 -6h30 q4 84 8 171t7 170t5 158t4 137q-60 -40 -104 -104t-60 -148q-26 4 -44 25t-30 43q-14 26 -24 58q-10 38 0 77t30 74t46 62t50 43q42 26 87 47t101 35q22 22 49 40t51 22q34 8 38 -42q18 2 38 3t42 1q76 0 158 -24t151 -77t113 -138t44 -207q0 -138 -65 -254t-185 -192 q14 -36 36 -90t44 -122q32 -84 69 -157t77 -127t84 -87t88 -39q-26 -40 -60 -56t-68 -20q-38 -6 -80 0q-58 12 -100 56t-73 106t-56 133t-45 135zM374 1058q0 -44 -2 -106t-3 -134t-3 -151t-2 -157q54 8 119 26t121 60t94 112t38 180q0 84 -29 143t-75 96t-101 54t-109 17 h-20t-22 -2q-6 -64 -6 -138z" />
<glyph unicode="S" horiz-adv-x="1040" d="M336 362q-34 -28 -37 -99t24 -144t83 -129t140 -56q54 0 93 26t64 65t37 87t12 94q0 66 -25 110t-66 77t-94 56t-107 47q-50 20 -120 51t-134 82t-109 126t-45 185q0 72 38 146t108 135t169 99t223 38q122 0 198 -22t118 -57t57 -76t15 -77t-22 -73t-52 -68t-62 -54 t-52 -31q10 26 20 72t-5 92t-70 80t-177 34q-70 0 -136 -22t-117 -57t-81 -79t-30 -90q0 -44 31 -81t84 -70t122 -65t145 -64q74 -32 146 -69t129 -85t91 -108t34 -138q0 -84 -31 -161t-88 -135t-139 -93t-186 -35q-92 0 -174 30t-143 78t-97 106t-36 114q0 60 27 102t67 67 t83 35t77 4z" />
<glyph unicode="T" horiz-adv-x="730" d="M-8 1098q-10 12 -16 28t-10 32q-4 18 -6 36v34q0 14 2 27t10 21q62 16 134 25l136 17q74 8 146 14q20 14 36 20t26 0q4 0 8 -16h8q72 2 138 4q56 2 111 1t85 -3q16 -2 24 -24t5 -56t-19 -74t-52 -76q-46 12 -96 17l-90 9q-50 4 -94 4h-10q2 -80 2 -177t-1 -196t-3 -194 t-4 -169v-203t6 -144t18 -95t34 -58q-2 -2 -11 -13t-24 -23t-36 -22t-47 -8q-66 2 -98 44t-44 118t-9 184t11 246q6 94 11 194t10 193t9 174t8 141q-50 -2 -102 -8q-46 -4 -100 -10t-106 -14z" />
<glyph unicode="U" horiz-adv-x="1038" d="M290 346q6 -98 30 -168t58 -114t74 -65t76 -21q38 0 77 25t71 76t50 126t14 177q0 94 -4 224q-4 112 -11 276t-21 386q-2 14 21 31t56 29t67 16t56 -8q16 -178 23 -342t9 -290q2 -148 0 -278q6 -158 -30 -272t-98 -187t-140 -109t-156 -36q-116 -2 -198 46t-133 148 t-75 250t-24 352q-2 98 6 204q6 90 18 199t36 213q-2 46 31 68t73 32q46 10 106 8q-30 -242 -43 -428t-17 -312q-6 -148 -2 -256z" />
<glyph unicode="V" horiz-adv-x="834" d="M138 512q-54 198 -78 326t-33 203t-7 108t2 41q-2 32 9 68t55 60q52 34 97 39t49 1q-10 -22 -12 -50t4 -81t19 -142t35 -235q16 -108 35 -210t38 -193t37 -169t34 -138q12 52 25 121t28 147t34 160t41 162q22 98 48 198q22 86 51 185t63 183q48 28 91 36t75 4 q36 -4 68 -16q-20 -42 -42 -97t-43 -114t-41 -121t-38 -120q-42 -138 -84 -282q-34 -120 -66 -244q-28 -106 -57 -228t-51 -230q0 -10 -23 -22t-54 -21t-66 -12t-61 7q-36 92 -68 209t-58 221q-30 122 -56 246z" />
<glyph unicode="W" horiz-adv-x="1288" d="M452 -90h-2l2 -2q-18 -22 -35 -34t-33 -20q-18 -8 -32 -12q-12 -2 -24 -2t-27 1t-31 5q-38 120 -66 251t-48 241q-22 128 -38 254q-16 122 -26 244q-4 52 -9 108t-8 113t-4 112t1 103q40 28 81 42t73 22q36 8 70 10q-14 -16 -21 -53t-7 -105t6 -174t20 -258 q6 -54 13 -118t15 -133t17 -138t17 -131q18 108 45 252t67 298l52 208q22 84 43 163t33 117q38 16 66 22q16 4 28 6h28q14 0 30 -2t34 -8q16 -170 34 -323t34 -273q20 -140 38 -258q10 -80 23 -146t23 -122q10 54 27 133t31 193q20 122 36 252q14 112 27 249t21 275 q16 14 33 24t33 18q18 8 36 14t38 10q16 4 36 6t36 0q-10 -106 -28 -233t-36 -237q-22 -130 -44 -258q-24 -128 -54 -260q-26 -114 -59 -245t-71 -247q-12 -12 -28 -17t-32 -9q-18 -4 -34 -4q-32 0 -50 7t-27 20t-13 31t-8 40l-142 1010z" />
<glyph unicode="X" horiz-adv-x="868" d="M110 -152q-30 -12 -58 -10q-24 2 -50 14t-42 50q70 132 134 247t112 203q56 102 106 186q-2 4 -4 9t-4 11q-34 78 -74 184q-34 90 -84 219t-108 295q8 18 20 32t24 24l28 20q14 4 28 10q12 4 24 7t20 -1q48 -126 92 -235t78 -193q38 -98 74 -182q50 82 106 178 q48 80 109 183t125 213q16 10 33 16t33 10q18 4 36 2t36 -6q16 -4 33 -10t33 -18q-108 -170 -192 -303t-142 -229q-68 -110 -118 -196q-4 -6 -6 -11t-6 -11q58 -126 126 -250q58 -108 134 -232t160 -232q-24 -16 -50 -22t-48 -8q-24 -2 -48 0q-60 10 -104 52t-88 112 q-34 52 -85 148t-109 224q-52 -106 -91 -191t-70 -149t-60 -105t-63 -55z" />
<glyph unicode="Y" horiz-adv-x="1008" d="M466 142q-170 0 -269 150t-121 428q-8 96 -2 190t20 172t34 134t40 76t46 36t51 25t47 8t36 -13q-42 -132 -64 -261t-25 -245t10 -216t41 -172t70 -113t96 -41q94 0 143 82t69 210t20 284t-2 306q-2 72 11 111t57 55q16 6 32 10q32 8 52 -4q16 -64 25 -159t13 -187 q6 -108 6 -222q4 -40 9 -110t5 -156t-6 -183t-24 -192t-50 -182t-86 -154t-130 -106t-180 -39q-84 0 -148 46t-103 105t-52 113t5 72l100 90q20 -98 57 -150t75 -76q44 -28 92 -32q78 0 127 39t79 109t44 167t20 211q-38 -90 -103 -153t-167 -63z" />
<glyph unicode="Z" horiz-adv-x="910" d="M10 44q58 102 131 213t137 207q76 110 154 216q130 194 212 303t116 159q-50 10 -122 20t-144 8q-58 0 -130 -5t-135 -23t-107 -53t-46 -97q-22 34 -33 67t-15 59q-6 30 -6 56q4 66 25 98t69 42q52 14 136 23t232 7q68 0 133 -8t118 -19t92 -22t55 -17q18 -8 26 -34 t10 -57t1 -57t-3 -34q-6 -46 -30 -72t-40 -52l-662 -958q44 12 127 31t193 27q60 2 118 4q50 0 107 -1t103 -9q20 -14 31 -44t9 -65t-19 -68t-49 -55q-46 18 -110 27t-122 13q-68 6 -138 6q-68 0 -128 -6q-52 -4 -100 -12t-64 -22q-14 -6 -28 5t-26 27q-14 18 -28 44t-24 50 q-10 22 -17 42t-9 36z" />
<glyph unicode="[" horiz-adv-x="432" d="M240 152q0 -70 15 -105t36 -49t43 -14h36l-4 -216l-182 2q-70 2 -86 41t-16 129v124t1 171t2 194t3 197t2 212v220t-1 181t-1 97q0 38 11 51t33 13l212 6q6 -40 10 -76q4 -32 3 -67t-5 -63q-46 -4 -75 -29t-29 -65l-8 -954v0z" />
<glyph unicode="\" horiz-adv-x="632" d="M380 -36q-6 20 -27 92t-49 171t-61 216t-63 231q-26 90 -52 188q-22 84 -51 190t-57 218q16 32 44 49t56 25q32 8 66 10q38 -182 72 -329t62 -253q32 -124 58 -222q30 -122 62 -235t64 -204t64 -155t64 -90q-10 -12 -28 -24t-40 -20t-47 -9t-49 9q-36 18 -54 57t-34 85z " />
<glyph unicode="]" horiz-adv-x="432" d="M192 152l-8 954q-2 40 -31 65t-75 29q-6 28 -6 63t4 67q4 36 10 76l216 -6q20 0 31 -13t11 -51q0 -20 -1 -97t-1 -181v-220t2 -212t3 -197t2 -194t1 -171v-124q0 -90 -17 -129t-85 -41l-184 -2l-2 216h36t43 14t36 49t15 105z" />
<glyph unicode="^" horiz-adv-x="698" d="M440 1302q10 -64 26 -133t32 -129q18 -70 36 -138q24 -82 48 -160q22 -66 46 -136t50 -116q-24 -8 -54 -10q-26 -2 -60 3t-76 21q-20 46 -36 100t-28 102q-14 56 -26 114q-20 68 -31 139t-21 129q-26 -68 -55 -155t-55 -185l-38 -133t-20 -78t-6 -43t6 -28q-2 -2 -14 -1 t-29 4t-36 9t-37 16q-30 14 -37 34t-5 40q0 4 1 22t11 60t33 112t71 182q26 72 52 140q22 58 51 125t57 121q18 6 43 4t48 -8t38 -13t15 -11z" />
<glyph unicode="_" horiz-adv-x="998" d="M40 112q18 16 56 26t83 15t93 6t88 -1q82 -2 182 -6q86 -4 202 -9t254 -11q-4 -72 -32 -110t-96 -34q-34 2 -82 6t-105 6t-121 3t-128 -3q-70 0 -142 -2q-62 -4 -138 -9t-146 -15q-12 32 -9 57t13 43q10 22 28 38z" />
<glyph unicode="`" d="M462 1380q12 6 22 14q10 4 21 9t21 3q0 -22 9 -40t21 -34l24 -36q16 -22 44 -66t78 -118q0 -16 -8 -36q-4 -8 -10 -16q-18 -22 -42 -27t-34 5q-6 4 -34 30t-61 59t-62 66t-35 51q-14 36 3 75t43 61z" />
<glyph unicode="a" horiz-adv-x="750" d="M642 102q4 -14 12 -26q6 -10 17 -19t27 -11q-14 -28 -28 -38q-8 -6 -14 -8q-18 -6 -54 -6t-70 22q-12 10 -22 30q-10 16 -17 45t-11 75q-28 -60 -63 -95t-69 -51q-38 -22 -78 -26q-50 -4 -95 17t-76 64t-47 105t-10 140q6 82 32 146t62 114t76 85t77 58t64 34t35 13 q22 6 38 4t28 -18q4 -6 10 -14q4 -8 10 -21t10 -29q-48 -22 -90 -49t-77 -65t-61 -92t-40 -132q-20 -98 11 -158t85 -50q32 10 62 38q26 24 55 72t55 132q10 120 17 189t13 105q8 42 12 56q6 10 24 19t40 15t40 7t24 -1q4 -2 4 -49t-3 -118t-7 -154t-7 -157t-4 -129t3 -69z " />
<glyph unicode="b" horiz-adv-x="816" d="M90 1246q16 22 35 38t39 26q22 10 46 16q18 4 34 4q14 0 27 -2t21 -10q-4 -96 -7 -163t-6 -117t-5 -89t-5 -79t-7 -87t-8 -113q-4 -42 -6 -85t-4 -87q18 50 45 104t63 98t82 73t100 29q76 0 122 -44t70 -107t31 -133t7 -124q0 -52 -13 -123t-46 -136t-87 -111t-136 -46 q-58 0 -98 24t-66 56t-37 64t-11 46t10 33t24 36t30 28t26 9q-4 -66 9 -101t31 -51q22 -20 48 -22q38 0 67 36t49 88t31 113t11 109q0 36 -5 77t-15 76t-28 57t-44 22q-44 0 -92 -50t-88 -131t-66 -183t-24 -208q0 -28 3 -49t7 -37q-48 -20 -76 -24q-16 -4 -26 -2 q-28 0 -46 16t-22 68q-2 18 -2 99v196t1 249t2 258t2 223t3 143z" />
<glyph unicode="c" horiz-adv-x="664" d="M612 252q0 -22 -15 -67t-49 -90t-87 -79t-129 -34q-108 0 -181 59t-103 169q-24 92 -13 197t57 195t128 153t200 69q60 2 100 -22t62 -62t26 -83t-9 -85t-40 -67t-69 -29q-42 -4 -69 11t-42 37t-20 46t-1 42q6 26 20 48q12 20 35 40t61 32q-6 4 -12 4t-12 2q-8 0 -12 2 q-32 0 -73 -22t-78 -70t-62 -123t-25 -181q0 -46 10 -91t31 -80t52 -56t73 -21q48 0 85 21t63 49t41 56t21 42q6 12 21 12t15 -24z" />
<glyph unicode="d" horiz-adv-x="766" d="M714 1270q0 -22 -4 -86t-10 -154t-12 -198t-10 -220t-7 -209t-2 -173t7 -127t18 -69l-90 -34q-10 -4 -24 -4t-29 8t-25 28t-10 56q0 14 1 35t1 49q-24 -40 -52 -78t-61 -66t-71 -45t-80 -17q-40 0 -78 17t-68 51t-49 88t-19 130q0 138 32 241t81 172t106 104t105 35 q74 0 114 -39t58 -81q2 58 3 109t1 87q0 148 -6 264t-30 176q28 16 51 24t41 12q22 6 38 6q44 0 62 -25t18 -67zM524 342q4 52 5 109t3 115q-14 -22 -33 -38t-41 -8q8 60 -1 92t-25 48q-18 18 -42 20q-36 0 -71 -40t-62 -99t-43 -126t-16 -123q0 -112 31 -156t67 -44 q30 0 63 24t64 62t58 81t43 83z" />
<glyph unicode="e" horiz-adv-x="664" d="M332 -22q-140 0 -216 94t-76 246q0 106 31 199t83 161t121 107t145 39q74 0 126 -53t52 -151q0 -64 -28 -127t-73 -112t-99 -79t-104 -30q-32 0 -54 8t-40 24q6 -114 50 -159t114 -45q48 0 85 20t63 46t42 53t22 41q6 12 21 12t15 -24q0 -22 -15 -67t-49 -90t-87 -79 t-129 -34zM424 738q-12 0 -45 -25t-70 -73t-68 -115t-39 -151q120 28 190 88t70 176q0 58 -14 79t-24 21z" />
<glyph unicode="f" horiz-adv-x="508" d="M442 1300q58 -4 104 -28q40 -22 72 -69t34 -133q-30 -22 -60 -32t-54 -14q-28 -4 -54 0q8 56 1 86t-19 44q-14 16 -36 18q-66 0 -97 -99t-37 -271q28 4 50 10t50 8q26 2 50 2q22 0 45 -4t43 -14q4 -34 0 -62t-12 -50q-8 -24 -22 -46q-24 12 -59 16t-67 4q-38 0 -78 -4 q2 -92 4 -173t5 -158t7 -154t8 -157q-22 -28 -47 -35t-47 -5q-26 2 -52 14q-16 132 -25 249t-15 205q-8 102 -12 188q-34 -4 -57 -5t-35 1q-8 0 -8 12l-2 94q0 8 8 8q14 4 37 9t55 13q8 254 86 393t236 139z" />
<glyph unicode="g" horiz-adv-x="724" d="M284 -18q-42 0 -86 22t-82 67t-62 112t-24 157q0 132 34 219t83 140t107 75t106 22q50 0 83 -17t55 -39v38q12 10 27 18t31 12q16 6 34 6h30q12 -2 25 -4t19 -10q-12 -262 -20 -424t-12 -252q-6 -106 -8 -154q-4 -84 -22 -167t-56 -149t-100 -106t-152 -40q-78 0 -125 30 t-72 74t-33 93t-8 89q0 10 11 30t32 41t53 37t72 20q-18 -54 -22 -98q-4 -24 -2 -48q0 -66 26 -110t80 -44q58 0 94 49t55 118t26 144t7 127v58q-12 -22 -29 -46t-41 -44t-57 -33t-77 -13zM366 682q-34 0 -65 -30t-55 -79t-38 -111t-14 -124q0 -40 5 -82t20 -77t39 -57 t64 -22q30 2 56 24q22 18 45 58t37 114q16 -16 25 -30t15 -26q2 16 3 38t1 50q0 54 -6 117t-21 115t-42 87t-69 35z" />
<glyph unicode="h" horiz-adv-x="736" d="M232 314q24 72 41 122t29 80q14 36 24 58q12 32 27 64t31 59t30 45t24 24q8 4 37 0t64 -19t66 -41t43 -64q12 -46 8 -120t-11 -152t-10 -148t9 -106l16 -40q8 -16 19 -33t25 -29q-58 -22 -93 -33t-53 -15q-22 -6 -30 -2q-16 6 -30 30t-24 76q-4 16 -2 56t6 90t8 105 t8 103t5 84t-1 48q-10 34 -28 49t-28 3q-24 -30 -53 -103t-55 -158t-45 -169t-23 -138q0 -12 -19 -25t-42 -23t-45 -13t-30 7q-6 6 -25 28t-21 74q-4 50 0 137t2 183v148q0 90 -1 249t-3 421q22 12 40 21t34 15q18 8 34 12q86 22 90 0q2 -20 -4 -128q-2 -46 -6 -116t-9 -170 t-12 -235t-17 -311z" />
<glyph unicode="i" horiz-adv-x="358" d="M76 708q0 12 32 26t71 23t72 10t33 -15q0 -30 -4 -85t-10 -116l-12 -122t-8 -103q-4 -44 -8 -96q-4 -44 -6 -98t0 -110q0 -10 -20 -20t-44 -15t-46 -5t-24 8q-4 8 -8 28t-8 57t-6 96t2 143q8 166 2 257t-8 137zM216 1106q40 0 76 -24t36 -64q0 -30 -15 -58t-37 -50 t-50 -35t-52 -13q-32 0 -52 11t-31 26t-15 33t-4 34q0 20 6 45t22 46t44 35t72 14zM166 920q12 0 27 9t28 21t22 26t9 24q0 16 -16 16q-10 0 -25 -8t-29 -19t-23 -24t-9 -25q0 -20 16 -20z" />
<glyph unicode="j" horiz-adv-x="370" d="M-50 -414q-28 0 -49 17t-35 40t-22 48t-8 43q16 -14 35 -20t35 -10q18 -4 36 -4q40 0 68 30t47 78t31 108t17 119t7 112t2 89q2 196 -8 330t-38 174q26 14 45 25t57 11q54 -2 76 -26t26 -72q4 -46 8 -120t0 -186q-6 -130 -11 -224t-15 -172q-10 -92 -37 -166t-67 -126 q-36 -42 -89 -70t-111 -28zM206 1106q14 0 32 -3t34 -12t27 -27t11 -46q0 -30 -19 -54t-47 -41t-61 -27t-61 -10q-78 0 -78 80q0 22 11 46t32 45t51 35t68 14zM206 958q16 10 23 20t7 20t-6 16q-6 8 -24 8q-12 0 -31 -6t-37 -15t-31 -22t-13 -27q0 -22 28 -22q18 0 42 8 t42 20z" />
<glyph unicode="k" horiz-adv-x="724" d="M468 478q42 -18 80 -57t48 -117q8 -68 22 -122t40 -97t69 -76t111 -57q-18 -16 -43 -26t-47 -14q-26 -8 -54 -8q-66 -6 -108 17t-66 67t-36 102t-18 120q-2 26 -6 54t-14 54t-27 48t-43 34q-44 -34 -81 -59t-65 -41q2 -108 11 -178t25 -94q-14 -10 -28 -17t-24 -11 q-14 -6 -26 -8q-40 -12 -71 3t-33 79l-12 1168q0 16 31 33t69 27t69 10t29 -18q-6 -138 -12 -260t-10 -216q-6 -110 -10 -200q-4 -54 -5 -104t-3 -96q38 30 80 66t80 80t64 95t30 109q22 16 45 27t41 17q22 8 40 8q46 2 54 -20q6 -16 -1 -47t-30 -74t-63 -94t-102 -107z" />
<glyph unicode="l" horiz-adv-x="354" d="M324 1296q-4 -72 -14 -166t-21 -202t-22 -226t-19 -238t-7 -195t9 -123t22 -76t36 -54q-26 -16 -48 -24t-38 -12q-20 -6 -36 -6q-30 0 -52 29t-35 75t-20 103t-7 113q0 60 4 139t9 168t11 186t10 193q4 74 8 134q4 52 6 95t-2 51q12 16 30 24t34 14q20 6 40 10h38 q16 0 34 -3t30 -9z" />
<glyph unicode="m" horiz-adv-x="1198" d="M506 624q-16 0 -35 -17t-37 -46t-36 -64t-32 -71q-34 -84 -66 -172t-38 -152q-2 -6 -2 -11v-9q-2 -4 -2 -12q-4 -28 -11 -45t-29 -23q-24 -4 -48 -6t-46 4q-14 4 -21 15t-10 26t-4 29t-1 24q0 12 2 75t4 143t2 157t-2 117q-4 28 -8 52q-4 22 -9 44t-15 38q22 12 44 20 t40 12q22 6 40 8q48 4 75 0t27 -42q0 -34 -5 -105t-11 -197q22 50 52 113t64 118t70 92t68 37q22 0 51 -9t55 -24t47 -33t29 -36q8 -20 10 -62t0 -94q16 38 36 74t41 67t43 53t40 30q24 10 58 4t67 -21t58 -35t31 -38q6 -20 10 -62t6 -92t2 -103t-2 -93q-4 -116 2 -183 t48 -99q-28 -18 -52 -27t-42 -13q-22 -6 -38 -6q-22 0 -36 11t-22 29t-10 40t-2 44q0 20 3 67t5 107t0 123t-9 116t-23 87t-44 34q-24 0 -46 -29t-42 -76t-35 -104t-27 -113t-18 -103t-6 -75l-2 18q0 -38 1 -70t3 -64q2 -12 -22 -21t-53 -8t-53 13t-24 40v60t-1 90t-2 105 t-3 105q0 38 -1 78t-5 73t-15 53t-31 20z" />
<glyph unicode="n" horiz-adv-x="738" d="M272 54q-2 -12 -21 -25t-44 -23t-47 -13t-30 5t-26 30t-22 72q-4 52 -4 131t-2 175v80q0 36 -1 84t-3 100q18 10 37 19t35 15q18 8 34 12q42 12 64 14t26 -14q2 -12 -2 -58q-4 -40 -10 -121t-20 -225q26 64 43 110t29 74q12 34 22 54q10 26 26 58t33 60t32 50t23 26 q6 4 36 0t64 -19t66 -42t42 -65q12 -44 9 -116t-10 -148t-11 -144t8 -104q4 -20 12 -36q4 -16 11 -29t15 -19q-48 -22 -78 -32t-46 -14q-20 -6 -28 -4q-18 6 -31 30t-23 76q-4 16 -3 53t5 84t9 98t8 96t5 78t0 45q-10 36 -28 51t-28 3q-26 -30 -55 -97t-55 -146t-44 -157 t-22 -132z" />
<glyph unicode="o" horiz-adv-x="660" d="M616 344q-4 -78 -27 -144t-63 -115t-95 -77t-121 -30q-58 -2 -109 28t-89 84t-57 129t-11 163q6 102 38 175t68 121t67 71t39 27q14 6 26 3t26 -7q4 -2 8 -10q8 -14 10 -52q10 22 26 36t32 20q20 8 40 10q14 2 49 -22t68 -76t57 -135t18 -199zM480 368q2 48 -3 97t-16 90 t-27 66t-32 25q-18 -4 -40 -18q-18 -12 -40 -38t-42 -74q-2 6 -4 22q-2 14 -3 37t3 63q-28 -34 -43 -80t-23 -88q-8 -50 -12 -100q-2 -54 5 -106t24 -92t41 -64t58 -22t60 28t46 66t32 90t16 98z" />
<glyph unicode="p" horiz-adv-x="766" d="M454 792q56 0 104 -32t82 -84t54 -119t20 -139t-16 -152t-50 -148t-88 -113t-132 -45q-62 0 -117 45t-85 113q-4 -70 -18 -143t-14 -175q0 -30 2 -68t6 -76t12 -70t18 -50q-34 -20 -61 -30t-47 -14q-22 -6 -42 -6q-26 0 -34 22t-8 78q0 36 3 103t8 153t10 181t10 187 t8 171t3 133q0 66 -2 103t-5 56t-7 27t-10 18q18 14 43 25t50 16t46 3t33 -10q10 -10 15 -30t9 -60q38 52 87 91t113 39zM376 78q36 0 69 34t58 87t40 118t15 129q0 70 -13 115t-32 72t-40 38t-37 11q-38 0 -72 -31t-60 -80t-41 -109t-15 -120q0 -56 11 -104t29 -84t41 -56 t47 -20z" />
<glyph unicode="q" horiz-adv-x="760" d="M530 108q-34 -58 -91 -100t-145 -42q-54 0 -101 26t-81 72t-53 110t-19 140q0 112 31 200t82 148t114 92t127 32q32 0 58 -12t46 -31t35 -41t27 -40q0 46 -2 83t-8 59q28 -8 49 -16t35 -16q16 -8 28 -18q28 -26 34 -54t-2 -80q-4 -26 -10 -96t-12 -154t-11 -170t-7 -144 q-4 -72 -2 -148t7 -146t14 -133t21 -111q-12 -16 -31 -23t-37 -9q-22 -4 -42 0q-58 6 -72 41t-14 93q0 20 3 70t8 117t10 145t11 156zM346 74q24 0 58 23t64 65t52 101t22 131q0 78 -16 135t-40 93t-50 53t-46 17q-46 0 -79 -28t-54 -73t-32 -103t-13 -118q0 -56 9 -109 t27 -95t43 -67t55 -25z" />
<glyph unicode="r" horiz-adv-x="606" d="M606 614q0 -28 -15 -57t-37 -55t-49 -45t-51 -23q16 62 10 96t-20 50q-16 18 -40 20q-36 0 -69 -41t-57 -100t-38 -126t-14 -121q-2 -38 2 -74q2 -30 7 -62t15 -50q-12 -10 -39 -24t-56 -18t-52 10t-25 60q-4 44 -5 99t0 110t3 109t6 100q4 88 4 136t-2 92q0 8 27 23 t60 27t61 14t28 -12q0 -22 -5 -87t-13 -135q14 38 37 82t53 82t68 63t84 25q36 0 59 -22t37 -50t20 -56t6 -40z" />
<glyph unicode="s" horiz-adv-x="652" d="M380 380q44 -16 84 -30t70 -34t48 -47t18 -67q0 -48 -21 -90t-61 -74t-97 -51t-127 -19q-78 0 -126 15t-74 35t-34 40t-8 32q0 24 10 53t38 63q12 14 26 26q28 24 56 30q-4 -46 11 -75t40 -45t56 -22t59 -6t57 8t53 21t39 30t15 37q0 22 -18 36t-45 23t-58 14t-59 11 t-75 17t-92 35t-78 64t-33 106q0 76 39 133t96 96t121 59t114 20q26 0 56 -7t56 -24t43 -45t17 -72t-7 -71t-20 -42t-31 -19t-42 -4q-16 0 -30 4q-12 4 -26 8t-26 14q20 24 31 46t11 54q0 28 -15 50t-49 22q-36 0 -69 -14t-58 -38t-40 -55t-15 -67q0 -54 41 -102t129 -82z " />
<glyph unicode="t" horiz-adv-x="416" d="M816 890q-22 4 -59 8t-75 6q-44 2 -94 2q-50 4 -125 1t-157 -3q-2 -52 -7 -106t-9 -106q-10 -96 -17 -196t-7 -190t11 -163t41 -115q-24 -18 -52 -27t-50 -13q-26 -6 -52 -6q-24 0 -40 16t-18 56q-4 68 -1 137t8 145t11 163t12 191q6 108 6 210q-76 -2 -128 -2t-58 2 q-6 4 -14 18q-8 12 -21 36t-33 68h83t83 2l88 4q-2 32 -2 68q-2 28 -2 63t-2 65q0 12 29 29t63 31t63 18t29 -14t-1 -87t-5 -167q20 0 30 2q106 4 171 9t107 1t74 -20t72 -52q14 -12 24 -26q10 -12 17 -27t7 -31z" />
<glyph unicode="u" horiz-adv-x="760" d="M518 744q0 22 27 33t58 11t57 -11t24 -29q-2 -14 -4 -55t-5 -97t-7 -120t-7 -125t-4 -113t-1 -80q0 -36 4 -66q4 -26 10 -51t18 -35q-16 -6 -33 -8t-31 -4q-16 -2 -32 -2q-34 0 -57 14t-23 58q0 22 3 64t7 90q-14 -42 -34 -86t-49 -78t-65 -56t-82 -22q-52 0 -95 22 t-75 63t-48 101t-12 138q0 60 2 128q2 58 6 134t14 158q2 8 28 20t58 20t62 6t44 -24q-10 -36 -20 -85t-18 -101t-12 -102t-4 -92q0 -38 4 -83t15 -84t32 -65t55 -26q38 0 67 33t49 85t34 119t23 133t12 127t5 103v40v0z" />
<glyph unicode="v" horiz-adv-x="680" d="M322 104q18 0 48 64t57 154t44 186t9 162q-4 22 -11 36t-17 30q12 16 30 25t34 13q20 6 40 8q48 2 70 -16q12 -12 12 -56t-9 -103t-24 -124t-33 -119q-18 -52 -44 -113t-54 -116t-56 -94t-48 -47q-42 -16 -83 -16t-51 10q-4 4 -18 28t-31 62t-36 89t-33 109t-20 126 t-13 133t-19 121t-36 92l94 38q12 6 28 11t32 3t29 -15t17 -45q4 -36 7 -86t6 -104t7 -107t8 -95q4 -44 11 -88t16 -78t18 -56t19 -22z" />
<glyph unicode="w" horiz-adv-x="1058" d="M948 790q96 0 76 -122q-8 -52 -28 -140t-50 -183t-69 -185t-85 -148q-42 -20 -72 -24q-16 -4 -28 -2q-16 0 -30 4t-27 16t-24 36t-17 66q-10 62 -29 134t-39 132q-18 -54 -37 -109t-38 -103t-37 -86t-34 -58q-66 -30 -96 -36q-18 -6 -30 -4q-40 52 -70 111t-48 111 q-22 60 -36 120q-16 76 -22 146t-11 129t-12 103t-25 70q18 14 42 27t50 16t53 -4t53 -31q4 -52 6 -101t4 -89q2 -46 2 -86q2 -50 5 -106t9 -110t19 -101t35 -79q22 36 62 119t66 209q10 52 13 104t0 95t-8 76t-11 47q16 10 34 15t34 9q18 4 34 4q52 4 71 -19t9 -85 q-2 -16 -10 -49t-20 -79q12 -40 28 -101t32 -119q12 -56 24 -114t20 -102q10 2 20 8t18 22q8 14 22 46t30 78t31 102t27 120q22 128 17 186t-23 78q20 14 41 21t39 11q22 4 40 4z" />
<glyph unicode="x" horiz-adv-x="626" d="M154 -54q-26 20 -42 36t-26 28q-12 14 -18 26q-16 28 -10 60t24 72q16 34 53 96t87 136q-28 46 -58 98q-28 46 -61 107t-73 131q26 18 49 25t41 7q22 0 38 -4q36 -16 65 -79t81 -167q26 36 58 78q28 36 63 85t79 107q12 -4 23 -6t21 -6l20 -8q8 -4 16 -12q12 -12 28 -38 q-52 -70 -94 -130t-74 -104q-36 -52 -66 -94l-4 -8q2 -2 2 -3t2 -3q28 -46 64 -104q32 -50 78 -120t106 -160q-32 -12 -54 -16q-12 -2 -22 -2q-10 -2 -22 0l-25 5t-31 9q-32 50 -62 99t-54 89q-28 46 -52 88q-30 -52 -58 -106q-24 -46 -50 -103t-42 -109z" />
<glyph unicode="y" horiz-adv-x="750" d="M656 768q4 -176 6 -308t4 -222q2 -106 2 -182q2 -94 -15 -195t-55 -185t-100 -138t-150 -54q-106 0 -162 43t-82 97t-30 101t-4 55q0 16 20 36t60 36q16 6 32 10q14 4 28 6t26 -2q-20 -36 -23 -82t12 -87t45 -69t76 -28q64 0 101 37t56 91t24 114t5 106q0 36 -1 93 t-7 127q-24 -40 -56 -77t-68 -65t-73 -45t-73 -17q-62 0 -100 39t-58 98t-27 128t-7 127q0 44 4 107t10 121t15 101t19 49q58 34 114 38t84 -14q-24 -18 -40 -60t-26 -93t-14 -106t-4 -99q0 -36 2 -86t9 -96t21 -78t36 -32q44 0 82 32t67 80t45 103t16 103v16q-4 52 -8 99 t-7 85t-4 63t-1 33q0 20 27 36t60 23t60 5t27 -18z" />
<glyph unicode="z" horiz-adv-x="666" d="M634 750v-45t-6 -41t-18 -44t-36 -54q-28 -36 -77 -96t-102 -128t-99 -133t-70 -111q24 18 67 37t107 23q36 2 72 -2q32 -4 67 -11t65 -23q10 -22 11 -48t-1 -50q-2 -28 -8 -56q-32 10 -67 16t-67 10q-36 4 -72 4q-38 0 -76 -6q-34 -4 -73 -16t-77 -32q-12 0 -25 7 t-23 17q-12 10 -26 22l-16 20q-14 20 -14 44q32 64 61 111t51 81q26 38 48 68q62 80 127 169t99 155q-18 8 -49 14t-77 4q-76 -2 -151 -23t-103 -69q-20 20 -31 71t5 103q34 16 77 27t79 15q42 6 86 6q48 0 104 -4q46 -4 108 -11t130 -21z" />
<glyph unicode="{" horiz-adv-x="452" d="M414 1240q-34 -4 -59 -29t-41 -55q-20 -36 -34 -78q-16 -58 -11 -113t13 -106t12 -100t-12 -95q-8 -26 -25 -42t-33 -26q26 -28 59 -83t43 -143q6 -48 -3 -87t-21 -73t-20 -69t0 -73q6 -28 18 -50q10 -20 26 -41t42 -31l-14 -184q-90 46 -139 96t-75 90q-30 48 -40 90 q-8 62 3 114t25 97t22 87t-6 84q-10 24 -26 46q-14 18 -36 37t-54 33q4 12 2 24t-4 22q-4 12 -6 24q40 14 62 39t32 53q12 30 16 66q0 44 -10 115t-9 151t25 162t92 150q24 20 56 38q28 14 65 26t83 8l-18 -174v0z" />
<glyph unicode="|" horiz-adv-x="390" d="M286 1344q-14 -178 -21 -323t-11 -251q-4 -124 -4 -220q-6 -120 -7 -231t5 -201t21 -154t39 -88q-14 -12 -36 -25t-47 -21t-50 -9t-45 11q-32 16 -39 54t-9 84v91v170t1 215t3 228q0 88 2 184q2 84 3 189t5 217q24 30 57 46t63 24q36 8 70 10z" />
<glyph unicode="}" horiz-adv-x="452" d="M36 1240l-16 174q46 4 84 -8t66 -26q32 -18 56 -38q68 -68 92 -150t25 -162t-9 -151t-10 -115q2 -36 14 -66q10 -28 32 -53t62 -39l-8 -24q-8 -26 0 -46q-34 -14 -55 -33t-35 -37q-16 -22 -24 -46q-16 -42 -8 -84t22 -87t25 -97t3 -114q-10 -42 -40 -90q-26 -40 -76 -90 t-140 -96l-14 184q26 10 43 31t27 41q12 22 18 50q6 38 -2 73t-19 69t-20 73t-3 87q10 88 43 143t61 83q-18 10 -35 26t-25 42q-16 46 -12 95t13 100t13 106t-12 113q-12 42 -32 78q-16 30 -43 55t-61 29z" />
<glyph unicode="~" horiz-adv-x="832" d="M788 524q-14 -18 -51 -40t-89 -22q-60 0 -112 16t-97 36t-84 36t-75 16q-28 -2 -60 -12q-28 -10 -63 -30t-73 -58q-24 8 -37 29t-20 45t-8 47t3 35q38 34 77 52t71 28q36 10 70 12q52 0 93 -16t80 -35t83 -34t104 -13q28 4 60 16q28 10 60 31t62 61q12 -14 20 -39t10 -54 t-3 -58t-21 -49z" />
<glyph unicode="&#xa1;" horiz-adv-x="348" d="M236 996q12 -112 21 -204t13 -156q6 -78 10 -136q8 -74 12 -149t5 -146t-1 -133t-4 -110t-37 -77t-77 -43t-76 -13t-34 13q-4 48 -3 126t3 152q2 86 6 180q2 96 10 208q6 96 15 222t21 270q8 10 17 14t19 8t20 4t20 -4t20 -10t20 -16zM118 1088q-36 0 -62 22t-26 62 q0 24 10 50t31 49t53 38t78 15q40 0 61 -25t21 -59q0 -30 -13 -57t-35 -48t-52 -34t-66 -13z" />
<glyph unicode="&#xa2;" horiz-adv-x="856" d="M774 412q16 -12 24 -25t12 -23q6 -12 6 -24q0 -14 -21 -58t-62 -93t-98 -93t-129 -60l4 -168q-2 -18 -23 -27t-45 -8t-46 12t-28 33q-4 14 -8 61t-10 99q-150 34 -235 161t-85 309q0 116 28 216t76 180t113 138t139 90q-8 94 4 136t40 60q10 6 28 12q16 4 38 9t56 7 q-4 -42 -8 -89t0 -97h12q78 0 127 -31t74 -78t33 -104t5 -108t-13 -91t-18 -52q-30 -40 -87 -62t-129 -10q26 26 42 61t25 71t13 69t4 57t-3 54t-13 56t-27 44t-47 18q-66 0 -123 -49t-99 -125t-66 -170t-24 -186q0 -30 5 -93t27 -126t70 -111t132 -48q58 4 114 32 q48 24 101 76t95 148z" />
<glyph unicode="&#xa3;" horiz-adv-x="908" d="M824 146q56 -18 67 -47t-5 -69q-6 -14 -14 -28l-18 -27t-26 -27q-34 36 -111 53t-177 13q-60 -4 -120 -14q-52 -10 -111 -27t-109 -45q-22 4 -38 15t-28 21q-14 12 -24 26t-18 30q-6 14 -12 30t-4 34q42 56 72 140t34 186v64l-52 2q-40 2 -71 12t-29 44q0 12 4 22t7 18 t13 12l126 6q-4 52 -10 89t-12 73t-9 76t-1 100q2 86 36 148t86 101t115 57t123 16q58 -2 105 -21t82 -47t58 -61t33 -59q12 -26 19 -59t4 -66t-20 -61t-57 -42q-32 -10 -58 -16q-22 -4 -45 -4t-33 16q6 10 16 36t19 59t13 69t-7 66t-39 49t-80 19q-74 0 -118 -22t-67 -57 t-29 -80t-4 -90t9 -88t11 -73q4 -26 7 -56t7 -64l346 16q14 0 15 -25t-6 -55t-20 -54t-27 -24l-298 10q2 -38 2 -77t-4 -79q-4 -60 -17 -114t-25 -94q80 30 162 43t154 16t127 -2t81 -13z" />
<glyph unicode="&#xa4;" horiz-adv-x="800" d="M732 980q10 -2 18 -10q14 -10 30 -34q-32 -36 -63 -71t-55 -63q-30 -34 -56 -62q24 -54 24 -130q0 -52 -11 -102t-35 -92l176 -228q-22 -6 -39 -9t-29 -5q-14 -2 -26 -2t-26 2q-12 2 -29 4t-35 6q-16 22 -33 45t-31 43l-32 44q-26 -12 -56 -20t-64 -8q-38 0 -76 18 q-16 -32 -34 -66q-16 -28 -32 -62t-30 -64q-30 20 -49 35t-31 27q-14 12 -20 24q-16 28 -11 57t27 67q8 14 24 38t36 58q-32 60 -32 142q0 42 12 88t36 86l-52 76q-22 34 -51 75t-57 85q34 18 61 24t49 6q24 0 44 -4q26 -8 56 -50t66 -104q50 22 106 22t104 -20q22 26 46 52 q22 22 47 51t53 57q18 -4 33 -9t25 -9q12 -6 22 -8zM358 422q60 0 99 58t39 148q0 48 -17 82t-57 34q-34 0 -62 -18t-48 -47t-30 -64t-10 -71q0 -58 24 -90t62 -32z" />
<glyph unicode="&#xa5;" horiz-adv-x="974" d="M828 1206q2 8 26 1t50 -27t42 -49t2 -61q-12 -32 -51 -93t-91 -131t-110 -137t-108 -111q0 -18 -1 -38t-3 -40q40 0 78 -2q34 -2 73 -6t73 -8q12 -2 11 -22t-10 -43t-24 -41t-33 -18h-114q-30 0 -60 -2q0 -26 -1 -50t-1 -46q80 4 118 4t68 -2q18 0 31 -11t17 -29t-3 -41 t-27 -47q-32 2 -67 2h-65q-36 0 -70 -2q0 -30 2 -58q2 -24 4 -50t6 -48q-22 -22 -44 -34t-40 -18q-22 -8 -40 -8q-48 0 -60 36t-10 102q0 10 1 28t1 42q-38 -2 -74 -6q-32 -4 -69 -9t-67 -9q-12 -2 -20 16t-10 41t2 44t14 23q36 6 76 10t74 8q38 4 78 8v49t2 49 q-34 -2 -70 -4q-30 -2 -67 -5t-71 -5q-14 0 -24 20t-16 45t-4 46t12 23q34 4 77 9t79 9q42 4 84 6q4 50 0 92q-44 30 -99 76t-103 110q-32 44 -62 92q-26 40 -53 91t-43 99q-10 26 11 55t50 51t56 33t29 -1q14 -62 35 -119t43 -101q24 -52 52 -96q38 -62 86 -107t88 -75 q34 22 89 71t115 149q30 48 56 98q22 42 43 89t31 83z" />
<glyph unicode="&#xa6;" horiz-adv-x="380" d="M248 446q0 -54 -4 -115t10 -163q2 -56 10 -114q4 -50 13 -110t23 -116q-34 -12 -61 -11t-47 7q-22 8 -42 20q-18 14 -29 43t-18 65t-10 74t-3 70q-2 64 -4 136q-2 62 -2 139v155q28 0 57 -5t53 -15t39 -25t15 -35zM166 696q-34 10 -59 32t-25 40v80q0 52 1 149t5 267 q26 30 58 46t62 24q34 8 70 10q-10 -132 -17 -249t-11 -207q-6 -106 -6 -196q-28 -6 -54 -2q-12 2 -24 6z" />
<glyph unicode="&#xa7;" horiz-adv-x="772" d="M558 1042q4 12 9 31t5 39q0 18 -6 36t-24 34q-16 16 -47 25t-83 13h-12q-42 0 -77 -12t-59 -32q-24 -22 -38 -46t-14 -52q0 -24 16 -50q8 -10 18 -22t24 -22q30 -24 70 -46t90 -46t98 -51t84 -61q40 -34 63 -76t23 -96q0 -84 -45 -154t-127 -102q30 -16 58 -38t52 -50 q28 -34 46 -77t18 -99q0 -48 -24 -96t-69 -86t-108 -62t-141 -24q-4 0 -10 1t-12 1q-82 4 -133 21t-81 43q-30 24 -40 54t-10 56q0 28 15 52t35 46q22 20 43 35t37 19l20 8l-6 -20q-6 -12 -12 -30t-4 -40q0 -20 6 -37t24 -31q16 -16 47 -27t83 -15h12q42 0 77 13t59 33 q52 42 52 98q0 28 -16 50q-14 22 -44 46q-28 22 -68 45t-90 45q-50 24 -98 51t-84 61q-40 34 -63 77t-23 97q0 84 44 153t128 101q-30 16 -59 38t-51 52q-28 32 -46 75t-18 101q0 48 24 95t69 85t108 62t141 24h22q82 -4 133 -21t81 -45q28 -24 39 -53t11 -55q0 -28 -15 -53 t-35 -45q-22 -22 -43 -36t-37 -20l-20 -6zM270 702q-16 -22 -22 -52t-6 -58q0 -30 7 -51t19 -39q26 -32 72 -58q2 0 2 -1t2 -1q14 -8 29 -13t35 -5h6q58 0 88 52q16 24 22 53t6 59q0 56 -30 92q-14 16 -34 30t-42 30h-2q-12 6 -27 11t-31 5h-6q-30 0 -52 -15t-36 -39z" />
<glyph unicode="&#xa8;" d="M718 1344q28 0 48 -14t28 -48q6 -26 -2 -50t-25 -42t-40 -29t-49 -11q-34 0 -52 18t-22 42q-6 24 2 48t25 43t40 31t47 12zM436 1340q28 -2 49 -16t27 -46q6 -26 -2 -49t-25 -40t-41 -26t-50 -7q-36 2 -54 20t-22 38q-6 24 2 47t25 41t41 29t50 9z" />
<glyph unicode="&#xa9;" horiz-adv-x="960" d="M546 1320q70 4 138 -32t124 -102t91 -158t39 -200q4 -124 -25 -229t-87 -182t-142 -122t-190 -51t-192 30t-147 105t-96 167t-39 214q-4 134 39 238t106 176t133 113t120 49q16 -6 26 -14t18 -16q16 4 36 8t48 6zM492 342q68 2 129 34t106 92t70 150t21 212 q-4 90 -32 165t-68 128t-84 81t-78 26q-26 -4 -52 -16q-22 -10 -47 -33t-45 -63q-28 22 -31 49t5 49q-120 -64 -182 -175t-58 -259q4 -126 37 -212t82 -138t108 -73t119 -17zM680 660v-2v-4q0 -12 -3 -33t-13 -49t-28 -54t-48 -46q-20 -14 -46 -22t-58 -8q-54 0 -98 24 t-72 64q-62 84 -62 210q0 90 22 159t62 119q80 102 188 102q46 0 79 -14t55 -36q20 -24 29 -51t9 -55q0 -4 -1 -7t-1 -7q-4 -52 -39 -85t-81 -33q-22 0 -37 5t-27 13q-14 8 -24 18l-18 16l24 -2h2q4 0 20 3t32 13t29 29t13 59q0 32 -20 48q-16 14 -42 14q-22 0 -51 -16 t-53 -52q-24 -34 -42 -88t-18 -130q0 -74 15 -120t35 -72q22 -26 44 -35t38 -9q28 0 56 18q24 20 38 46q16 26 22 52t8 36v8l2 8l8 -2h6q2 0 14 -4q8 -4 17 -10t13 -16z" />
<glyph unicode="&#xaa;" horiz-adv-x="560" d="M484 620q4 -12 10 -20q4 -8 12 -15t22 -9q-6 -12 -12 -19t-10 -11q-6 -6 -10 -6q-14 -4 -43 -4t-53 16q-10 8 -18 24q-8 14 -14 36t-8 58q-22 -46 -49 -73t-53 -41q-30 -16 -60 -20q-40 -4 -74 13t-58 50t-37 81t-7 108q6 94 45 159t85 106t86 61t50 22q20 4 32 3t22 -13 q4 -4 8 -12q4 -6 7 -16t7 -22q-36 -18 -69 -38t-60 -50t-47 -71t-32 -101q-14 -78 10 -124t64 -38q24 8 48 30q22 20 44 56t42 100q8 94 15 147t11 81q6 32 8 42q4 8 18 15t31 11t31 6t18 0q2 -2 2 -38t-2 -91t-5 -119t-5 -121t-3 -100t1 -53zM466 446q12 -8 14 -24t1 -35 t-4 -35t-3 -24q-16 4 -49 7t-67 3q-38 0 -84 -2t-86 -6l-68 -8t-52 -14q-10 10 -15 45t5 65q24 6 54 11t58 9q32 4 66 8q90 14 148 15t82 -15z" />
<glyph unicode="&#xab;" horiz-adv-x="660" d="M322 736q10 -8 15 -20t9 -24q4 -14 8 -30q2 -16 2 -32q0 -14 -2 -30t-6 -28q-52 -44 -94 -81t-74 -65q-36 -34 -66 -60q26 -32 62 -68q30 -34 73 -78t95 -100q4 -16 3 -34t-5 -36q-4 -22 -8 -42q-4 -18 -8 -30q-8 -26 -10 -22q-64 70 -117 131t-91 105q-44 52 -78 92 q-6 8 -11 31t-7 48t-1 46t7 27q22 20 62 58l92 92zM604 736q10 -8 15 -20t9 -24q4 -14 8 -30q2 -16 2 -32q0 -14 -2 -30t-6 -28q-52 -44 -93 -81t-73 -65q-36 -34 -66 -60q26 -32 62 -68q58 -64 166 -178q4 -16 3 -34t-5 -36q-4 -22 -8 -42q-4 -18 -8 -30q-8 -26 -10 -22 q-64 70 -116 131t-90 105q-44 52 -78 92q-8 8 -13 31t-7 48t0 46t8 27q20 20 60 58l92 92z" />
<glyph unicode="&#xac;" horiz-adv-x="956" d="M934 736h2q-2 -4 -2 -12q0 -4 -2 -8q0 -8 -2 -12q-4 -26 -8 -68t-10 -93t-11 -106t-7 -105q-26 -16 -71 -6t-79 32q2 70 4 136t6 112q-58 4 -128 10t-172 -2q-70 0 -142 -4q-62 -4 -137 -9t-147 -15q-12 34 -8 60t14 46q10 22 28 40q18 16 55 25t82 14t92 5t87 -2 q80 -2 172 -6q78 -4 178 -11t206 -17v-4z" />
<glyph unicode="&#xad;" horiz-adv-x="674" d="M630 668q16 -12 20 -33t3 -42t-5 -41t-4 -32q-24 8 -73 10t-99 4h-124q-66 -4 -126 -10q-52 -6 -102 -14t-76 -24q-16 14 -22 51t8 85q34 10 80 18t86 14q48 8 96 14q132 22 218 24t120 -24z" />
<glyph unicode="&#xae;" horiz-adv-x="960" d="M546 1320q70 4 138 -32t124 -102t91 -158t39 -200q4 -124 -25 -229t-87 -182t-142 -122t-190 -51t-192 30t-147 105t-96 167t-39 214q-4 134 39 238t106 176t133 113t120 49q16 -6 26 -14t18 -16q16 4 36 8t48 6zM736 480q40 60 63 147t19 203q-4 90 -32 165t-68 128 t-84 81t-78 26q-26 -4 -52 -16q-22 -10 -47 -33t-45 -63q-28 22 -31 49t5 49q-120 -64 -182 -175t-58 -259q4 -126 37 -212t82 -138t108 -73t119 -17q118 6 202 88h-12q-28 4 -49 22t-36 44t-27 55t-22 55q-10 28 -19 47t-15 33q-20 -6 -41 -9t-43 -7q0 -26 1 -48t3 -40 q4 -46 5 -67t9 -39q-36 -22 -68 -26q-16 -4 -30 -2q-6 12 -9 24t-5 34t-2 55t4 87v22q-20 4 -34 4q-12 24 -12 40q0 8 2 14q20 -4 32 -4h16q4 70 6 141t6 121q-30 -18 -52 -44t-30 -60q-12 2 -21 10t-15 18q-8 10 -10 24q-6 14 -1 30t15 31t22 26t24 17q22 10 43 19t47 17 q28 20 50 24q14 2 18 -16h40q36 0 76 -10t73 -32t55 -56t22 -84q0 -58 -31 -105t-89 -81q6 -14 16 -36t22 -50q22 -48 50 -87t58 -61zM430 732q26 2 58 10t59 25t45 45t18 74q0 34 -14 59t-36 40t-49 22t-53 7q-12 0 -20 -2q-2 -12 -2 -26v-30q-2 -36 -3 -98t-3 -126z" />
<glyph unicode="&#xaf;" d="M528 1348q96 16 156 11t82 -35q10 -14 13 -33t2 -38t-4 -36t-3 -29q-16 8 -51 12t-69 4q-40 0 -88 -2q-46 -2 -88 -10q-36 -6 -72 -17t-56 -27q-6 8 -10 26t-7 42t-1 50t8 50q26 8 59 14t61 10q34 6 68 8z" />
<glyph unicode="&#xb0;" horiz-adv-x="380" d="M216 1414q58 0 101 -38t43 -114t-46 -123t-116 -47q-72 0 -115 45t-43 111q0 34 14 64t38 53t56 36t68 13zM208 1184q30 0 45 22t15 56q0 28 -16 41t-32 13q-30 0 -53 -20t-23 -48q0 -30 20 -47t44 -17z" />
<glyph unicode="&#xb2;" horiz-adv-x="508" d="M334 686q78 8 107 -4t39 -56l4 -24q2 -10 3 -26t1 -34q-18 12 -39 17t-61 5q-66 0 -135 -14t-119 -30q-22 -8 -45 16t-33 56q-6 14 -8 39t4 53t20 56t38 52t62 47t74 51t63 66t31 90v26q-2 58 -26 81t-54 23q-34 0 -65 -32t-47 -108q-16 -4 -32 -1t-28 7q-16 6 -28 12 t-21 19t-9 29q0 18 14 47t44 58t77 49t113 18q86 -4 140 -59t46 -169q-4 -56 -25 -98t-48 -72t-55 -50t-48 -32q-54 -34 -86 -65t-28 -83q22 10 65 22t95 18z" />
<glyph unicode="&#xb3;" horiz-adv-x="510" d="M324 980q72 -10 119 -70t47 -158q0 -58 -22 -102t-56 -75t-73 -47t-73 -16q-22 0 -55 5t-67 21t-62 45t-38 77q-4 14 3 31t20 33t30 27t33 13q4 -50 25 -77t43 -39q26 -14 60 -16q48 0 77 39t29 89t-25 90t-69 40q-20 -2 -40 -6q-16 -4 -33 -11t-29 -23l-52 78 q20 12 42 32t40 40q22 22 42 48q54 70 78 106q-38 8 -94 6q-30 -2 -60 -10q-26 -6 -53 -16t-43 -28q-8 24 -15 49t-7 46t9 37t35 22q52 10 117 10t129 -6q40 -4 69 -2t35 4q12 -28 16 -50t4 -38q0 -18 -6 -32q-4 -10 -18 -30t-33 -43t-40 -48t-39 -45z" />
<glyph unicode="&#xb4;" d="M650 1380q26 -22 43 -61t3 -75q-6 -18 -35 -51t-62 -66t-61 -59t-34 -30q-10 -10 -34 -5t-42 27q-6 8 -10 16t-7 17t-1 19q50 74 79 118t45 66l24 36q10 16 19 34t9 40q10 2 21 -3t21 -9q10 -8 22 -14z" />
<glyph unicode="&#xb5;" horiz-adv-x="706" d="M666 730q-6 -70 -9 -133t-5 -109q-2 -54 -2 -102q-4 -60 -3 -124t4 -120t9 -95t16 -49q-42 -20 -62 -22q-14 -4 -26 -2q-32 0 -43 15t-11 31q0 10 -2 52t-6 88q-10 -24 -25 -55t-37 -60t-50 -48t-62 -19q-56 0 -96 29t-82 99q-2 -38 -3 -88t-3 -100t-2 -93t2 -67 q-12 -24 -28 -36t-30 -18q-18 -8 -34 -8q-14 0 -24 2t-19 5t-13 11l14 978q0 24 30 39t65 21t64 2t29 -20q-4 -68 -6 -119t-4 -85q-2 -40 -2 -72q-2 -28 4 -79t24 -103t51 -90t87 -38q34 0 57 29t37 73t20 98t6 106v70q0 32 -1 75t-1 91q0 14 27 27t60 20t59 6t26 -13z" />
<glyph unicode="&#xb6;" horiz-adv-x="950" d="M790 798q2 -124 3 -269t1 -270t-2 -213t-6 -98q-14 -32 -36 -58q-20 -22 -52 -45t-78 -35q14 168 19 311t9 251q2 124 2 228q2 66 -2 141t-10 150t-14 144t-12 119q-28 0 -55 -2t-49 -6q-14 -2 -26 -4t-24 -6q2 -48 6 -116t8 -145t6 -157t2 -152v-211t-2 -208t-5 -165 t-9 -80t-29 -35t-50 -44t-50 -33t-31 -2q-4 2 -2 36t6 91t9 134t5 167q0 74 -5 142t-11 126q-24 14 -70 49t-92 89t-80 126t-34 160q0 104 46 185t118 136t160 84t172 29t145 -1t106 0t81 3t70 8q14 2 19 -25t3 -63t-12 -68t-26 -38q-16 -8 -53 -9t-87 -1q12 -106 18 -350z " />
<glyph unicode="&#xb7;" horiz-adv-x="276" d="M160 696q26 0 46 -13t28 -47q10 -50 -27 -90t-89 -40q-34 0 -52 16t-22 42q-6 24 2 48t24 42t40 30t50 12z" />
<glyph unicode="&#xb8;" d="M576 10q18 0 43 -7t48 -23t38 -46t13 -76q-2 -36 -20 -63t-45 -44t-61 -25t-68 -8q-24 0 -46 4q-20 4 -42 10t-42 20l2 76q26 -8 62 -10t69 4t56 20t25 36q0 22 -19 32t-44 12t-51 0t-40 -4q-40 -8 -42 38q0 14 -2 38q-2 22 -3 57t-5 87q8 8 21 12t23 6q12 2 26 2t26 -2 q10 -2 21 -5t17 -7q4 -22 5 -44t-3 -44l-8 -48q10 2 21 2h25z" />
<glyph unicode="&#xb9;" horiz-adv-x="324" d="M230 666q2 -30 8 -54q4 -22 10 -42t14 -26l-92 -32q-26 -10 -50 1t-34 47q6 54 9 110t7 102q4 52 6 104q6 84 3 136t-5 80q-18 -2 -41 -7t-45 -15q4 14 14 36q10 18 26 45t44 67q12 12 26 25t44 13q36 0 43 -16t7 -52v-49t-1 -87t-1 -107t1 -111t2 -99t5 -69z" />
<glyph unicode="&#xba;" horiz-adv-x="492" d="M414 446q8 -8 11 -24t1 -35t-4 -35t-2 -24q-16 4 -45 7t-59 3q-36 0 -76 -2t-76 -6q-32 -4 -63 -8t-47 -14q-10 10 -13 45t7 65q22 6 49 11t51 9q28 4 58 8q82 14 134 15t74 -15zM336 1138q10 0 34 -20t47 -62t36 -107t1 -155q-16 -122 -84 -196t-168 -70q-44 2 -81 28 t-62 70t-35 103t0 127q12 78 40 133t58 89t55 51t31 19q12 6 21 2t19 -8q4 -2 6 -8q4 -12 4 -40q8 16 22 25t26 13q14 6 30 6zM352 822q6 36 5 74t-7 69t-16 52t-22 21q-16 0 -32 -10t-33 -29t-35 -53q-2 4 -2 16q0 10 2 29t6 49q-22 -24 -36 -59t-24 -67q-10 -36 -16 -76 q-4 -42 -2 -83t12 -73t27 -51t43 -19q24 0 46 18t39 48t28 67t17 77z" />
<glyph unicode="&#xbb;" horiz-adv-x="660" d="M338 736q90 -92 149 -150t93 -92q40 -38 62 -58q6 -6 7 -27t-1 -46t-8 -48t-14 -31q-34 -40 -78 -92q-38 -44 -90 -105t-116 -131q-2 -4 -10 22q-4 12 -8 30q-4 20 -8 42q-4 18 -5 36t3 34q52 56 95 100t73 78q36 36 62 68q-30 26 -66 60q-32 28 -74 65t-94 81 q-4 12 -5 28t-1 30q0 16 2 32t6 30q4 12 10 24t16 20zM56 736q90 -92 148 -150l92 -92q40 -38 62 -58q6 -6 7 -27t-1 -46t-7 -48t-13 -31q-34 -40 -78 -92q-38 -44 -90 -105t-116 -131q-2 -4 -10 22l-10 30q-4 20 -8 42q-4 18 -5 36t3 34q52 56 96 100t74 78q36 36 62 68 q-30 26 -66 60q-32 28 -75 65t-95 81q-4 12 -5 28t-1 30q0 16 2 32q0 16 6 30q4 12 11 24t17 20z" />
<glyph unicode="&#xbc;" horiz-adv-x="988" d="M488 516q-58 -112 -106 -217t-81 -193t-49 -155t-6 -99q-34 -12 -75 -11t-67 39q-18 28 -9 66t29 82q8 20 38 88t72 162t92 203t102 215q38 84 86 180q40 84 93 192t113 230q26 20 55 23t55 -1q30 -6 58 -16q-100 -182 -175 -327t-125 -247q-60 -120 -100 -214zM118 876 q6 84 3 136t-5 80q-18 -2 -41 -7t-45 -15q6 14 16 36l25 45t43 67q14 12 27 25t43 13q36 0 43 -16t7 -52v-49t-1 -87t-1 -107t1 -111t2 -99t5 -69q2 -30 8 -54q4 -22 10 -42t14 -26l-92 -32q-26 -10 -50 1t-34 47q6 54 9 110t7 102q4 52 6 104zM840 168q56 2 90 2t34 -4 q8 -50 -4 -76t-32 -50q-14 2 -29 2t-27 2q-14 0 -28 2q2 -14 2 -25t2 -21q2 -22 6 -46q4 -22 10 -47t16 -49q-10 -10 -24 -14t-26 -8q-14 -4 -30 -4q-58 0 -75 46t-13 170h-10q-42 -2 -79 -6t-65 -6t-49 -1t-33 11q-12 8 -20 22q-10 12 -18 30t-16 46q94 138 149 221t85 127 q36 52 48 70q10 14 37 19t56 3t50 -8t19 -14q-4 -16 -8 -46t-8 -66t-7 -72t-3 -64v-146zM716 164q4 66 5 117t3 89q-18 -26 -38 -54t-36 -50q-20 -24 -41 -55t-37 -57q28 4 66 6t78 4z" />
<glyph unicode="&#xbd;" horiz-adv-x="1032" d="M118 876q6 84 3 136t-5 80q-18 -2 -41 -7t-45 -15q6 14 16 36l25 45t43 67q14 12 27 25t43 13q36 0 43 -16t7 -52v-49t-1 -87t-1 -107t1 -111t2 -99t5 -69q2 -30 8 -54q4 -22 10 -42t14 -26l-92 -32q-26 -10 -50 1t-34 47q6 54 9 110t7 102q4 52 6 104zM888 1304 q-100 -182 -175 -327t-125 -247q-60 -120 -100 -214q-58 -112 -106 -217t-81 -193t-49 -155t-6 -99q-34 -12 -75 -11t-67 39q-18 28 -9 66t29 82q8 20 38 88t72 162t92 203t102 215q38 84 86 180q40 84 93 192t113 230q26 20 55 23t55 -1q30 -6 58 -16zM860 6q78 10 108 -2 t38 -56q0 -12 2 -24t3 -27t1 -33q-16 12 -38 17t-62 5q-64 0 -133 -15t-121 -31q-22 -6 -45 17t-33 55q-4 16 -5 40t4 52t18 57t37 53q26 24 63 47t73 51t63 65t31 91q2 6 2 13v13q-4 56 -27 80t-55 24q-34 0 -64 -32t-46 -108q-16 -4 -32 -2t-28 6q-16 6 -28 12 q-12 10 -21 22t-7 26q0 18 14 48t43 58t76 48t113 18q84 -4 139 -58t47 -168q-4 -56 -25 -98t-48 -72t-55 -51t-46 -33q-56 -34 -89 -64t-29 -82q26 10 67 21t95 17z" />
<glyph unicode="&#xbe;" horiz-adv-x="1154" d="M654 516q-58 -112 -106 -217t-82 -193t-49 -155t-5 -99q-34 -12 -76 -11t-68 39q-18 28 -8 66t30 82q8 20 38 88t72 162t92 203t102 215q38 84 84 180q40 84 93 192t115 230q24 20 53 23t55 -1q30 -6 60 -16q-100 -182 -175 -327t-125 -247q-60 -120 -100 -214zM1006 168 q56 2 89 2t35 -4q6 -50 -5 -76t-31 -50q-14 2 -29 2t-27 2q-14 0 -28 2q2 -14 2 -25t2 -21q2 -22 6 -46q4 -22 10 -47t16 -49q-10 -10 -24 -14t-26 -8q-14 -4 -30 -4q-58 0 -76 46t-14 170h-8q-88 -4 -146 -13t-84 11q-10 8 -18 22q-8 12 -17 30t-17 46q94 138 149 221 t85 127q36 52 48 70q12 14 39 19t56 3t50 -8t19 -14q-4 -16 -8 -45t-8 -65t-7 -73t-3 -65q-2 -28 -1 -66t1 -80zM882 164q4 66 5 117t3 89q-18 -26 -39 -54t-37 -50q-20 -24 -40 -55t-38 -57q30 4 68 6t78 4zM490 752q0 -58 -22 -102t-56 -75t-73 -47t-73 -16q-22 0 -55 5 t-67 21t-62 45t-38 77q-4 14 3 31t20 33t30 27t33 13q4 -50 25 -77t43 -39q26 -14 60 -16q48 0 77 39t29 89t-25 90t-69 40q-20 -2 -40 -6q-16 -4 -33 -11t-29 -23l-52 78q20 12 42 32t40 40q22 22 42 48q54 70 78 106q-38 8 -94 6q-30 -2 -60 -10q-26 -6 -53 -16t-43 -28 q-8 24 -15 49t-7 46t9 37t35 22q52 10 117 10t129 -6q40 -4 69 -2t35 4q12 -28 16 -50t4 -38q0 -18 -6 -32q-4 -10 -18 -30t-33 -43t-40 -48t-39 -45q72 -10 119 -70t47 -158z" />
<glyph unicode="&#xbf;" horiz-adv-x="848" d="M404 -180q-84 0 -157 29t-128 83t-87 133t-32 181q0 86 30 160t83 129t123 92t150 49q2 28 3 74t3 94q0 36 -2 62t-7 44t-13 32t-20 28q22 14 41 20t35 10q18 4 36 4q22 0 43 -4t37 -19t26 -42t10 -75q0 -16 -1 -35t-1 -45t2 -62t6 -84q4 -50 -3 -74t-21 -34t-31 -11 t-33 -3q-20 -4 -68 -13t-99 -42t-90 -97t-39 -178q0 -120 58 -196t158 -76q42 0 81 16t69 44t48 65t18 81q-2 22 -12 42q-10 16 -29 33t-53 27l192 96q40 -22 62 -54t32 -60q12 -34 14 -70q0 -62 -23 -125t-75 -114t-135 -83t-201 -32zM404 1112q-32 0 -63 22t-31 74t46 95 t130 43q32 0 52 -9t31 -21t15 -27t4 -27q0 -26 -15 -52t-40 -48t-58 -36t-71 -14z" />
<glyph unicode="&#xc0;" horiz-adv-x="1144" d="M1134 -98q-20 -28 -46 -43t-50 -21q-28 -8 -60 -6q-12 0 -26 6q-12 4 -26 11t-24 21q-28 100 -50 194t-38 168q-20 86 -34 162q-54 2 -161 1t-231 -13q-38 -120 -60 -202t-32 -136t-8 -89t12 -61q-28 -28 -55 -41t-49 -17q-26 -6 -50 -4q-32 4 -52 11t-29 22t-6 43t15 74 q12 40 45 143t75 235q-76 -6 -117 8t-57 76q32 10 69 19t71 17q38 8 78 14q42 132 86 260t82 230l116 310q4 12 42 26t84 23t88 9t54 -18q6 -42 17 -104t21 -120q12 -68 28 -140q18 -100 39 -222t53 -260t76 -286t110 -300zM578 528q64 2 106 2t72 -2l-6 30q-12 74 -25 158 t-26 166t-25 156t-20 130q-20 -52 -46 -125t-56 -159t-61 -180t-61 -186q36 4 72 6t76 4zM502 1810q12 6 22 14q10 4 21 9t21 3q0 -22 9 -40t21 -34l24 -36q16 -22 44 -66t78 -118q0 -16 -8 -36q-4 -8 -10 -16q-18 -22 -42 -27t-34 5q-6 4 -34 30t-61 59t-62 66t-35 51 q-14 36 3 75t43 61z" />
<glyph unicode="&#xc1;" horiz-adv-x="1144" d="M1134 -98q-20 -28 -46 -43t-50 -21q-28 -8 -60 -6q-12 0 -26 6q-12 4 -26 11t-24 21q-28 100 -50 194t-38 168q-20 86 -34 162q-54 2 -161 1t-231 -13q-38 -120 -60 -202t-32 -136t-8 -89t12 -61q-28 -28 -55 -41t-49 -17q-26 -6 -50 -4q-32 4 -52 11t-29 22t-6 43t15 74 q12 40 45 143t75 235q-76 -6 -117 8t-57 76q32 10 69 19t71 17q38 8 78 14q42 132 86 260t82 230l116 310q4 12 42 26t84 23t88 9t54 -18q6 -42 17 -104t21 -120q12 -68 28 -140q18 -100 39 -222t53 -260t76 -286t110 -300zM578 528q64 2 106 2t72 -2l-6 30q-12 74 -25 158 t-26 166t-25 156t-20 130q-20 -52 -46 -125t-56 -159t-61 -180t-61 -186q36 4 72 6t76 4zM794 1810q26 -22 43 -61t3 -75q-6 -18 -35 -51t-62 -66t-61 -59t-34 -30q-10 -10 -34 -5t-42 27q-6 8 -10 16t-7 17t-1 19q50 74 79 118t45 66l24 36q10 16 19 34t9 40q10 2 21 -3 t21 -9q10 -8 22 -14z" />
<glyph unicode="&#xc2;" horiz-adv-x="1144" d="M1134 -98q-20 -28 -46 -43t-50 -21q-28 -8 -60 -6q-12 0 -26 6q-12 4 -26 11t-24 21q-28 100 -50 194t-38 168q-20 86 -34 162q-54 2 -161 1t-231 -13q-38 -120 -60 -202t-32 -136t-8 -89t12 -61q-28 -28 -55 -41t-49 -17q-26 -6 -50 -4q-32 4 -52 11t-29 22t-6 43t15 74 q12 40 45 143t75 235q-76 -6 -117 8t-57 76q32 10 69 19t71 17q38 8 78 14q42 132 86 260t82 230l116 310q4 12 42 26t84 23t88 9t54 -18q6 -42 17 -104t21 -120q12 -68 28 -140q18 -100 39 -222t53 -260t76 -286t110 -300zM578 528q64 2 106 2t72 -2l-6 30q-12 74 -25 158 t-26 166t-25 156t-20 130q-20 -52 -46 -125t-56 -159t-61 -180t-61 -186q36 4 72 6t76 4zM614 1728q6 6 22 10t34 5t33 0t19 -5q14 -18 42 -50q24 -28 65 -75t107 -119q-8 -12 -30 -20q-10 -4 -22 -6t-26 -2q-12 -2 -29 -2h-35q-26 34 -48 63t-38 51q-20 24 -36 44 q-20 -18 -42 -42q-20 -22 -47 -51t-61 -63q-22 0 -39 3t-33 7q-18 4 -32 8q-14 2 -22 6q-18 8 -16 8q104 106 168 168q36 36 66 62z" />
<glyph unicode="&#xc3;" horiz-adv-x="1144" d="M1134 -98q-20 -28 -46 -43t-50 -21q-28 -8 -60 -6q-12 0 -26 6q-12 4 -26 11t-24 21q-28 100 -50 194t-38 168q-20 86 -34 162q-54 2 -161 1t-231 -13q-38 -120 -60 -202t-32 -136t-8 -89t12 -61q-28 -28 -55 -41t-49 -17q-26 -6 -50 -4q-32 4 -52 11t-29 22t-6 43t15 74 q12 40 45 143t75 235q-76 -6 -117 8t-57 76q32 10 69 19t71 17q38 8 78 14q42 132 86 260t82 230l116 310q4 12 42 26t84 23t88 9t54 -18q6 -42 17 -104t21 -120q12 -68 28 -140q18 -100 39 -222t53 -260t76 -286t110 -300zM578 528q64 2 106 2t72 -2l-6 30q-12 74 -25 158 t-26 166t-25 156t-20 130q-20 -52 -46 -125t-56 -159t-61 -180t-61 -186q36 4 72 6t76 4zM806 1602q20 2 42 12q18 10 39 26t41 48q8 -10 10 -32t-1 -46t-10 -48t-17 -40q-10 -14 -34 -32t-62 -18q-40 0 -71 12t-56 27t-48 27t-45 12q-20 -2 -42 -10q-18 -8 -42 -24t-48 -46 q-16 6 -26 25t-14 41t-5 41t1 29q26 28 52 42t48 22q24 8 48 10q34 0 61 -13t54 -28t56 -27t69 -10z" />
<glyph unicode="&#xc4;" horiz-adv-x="1144" d="M1134 -98q-20 -28 -46 -43t-50 -21q-28 -8 -60 -6q-12 0 -26 6q-12 4 -26 11t-24 21q-28 100 -50 194t-38 168q-20 86 -34 162q-54 2 -161 1t-231 -13q-38 -120 -60 -202t-32 -136t-8 -89t12 -61q-28 -28 -55 -41t-49 -17q-26 -6 -50 -4q-32 4 -52 11t-29 22t-6 43t15 74 q12 40 45 143t75 235q-76 -6 -117 8t-57 76q32 10 69 19t71 17q38 8 78 14q42 132 86 260t82 230l116 310q4 12 42 26t84 23t88 9t54 -18q6 -42 17 -104t21 -120q12 -68 28 -140q18 -100 39 -222t53 -260t76 -286t110 -300zM578 528q64 2 106 2t72 -2l-6 30q-12 74 -25 158 t-26 166t-25 156t-20 130q-20 -52 -46 -125t-56 -159t-61 -180t-61 -186q36 4 72 6t76 4zM840 1672q28 0 48 -14t28 -48q6 -26 -2 -50t-25 -42t-40 -29t-49 -11q-34 0 -52 18t-22 42q-6 24 2 48t25 43t40 31t47 12zM558 1668q28 -2 49 -16t27 -46q6 -26 -2 -49t-25 -40 t-41 -26t-50 -7q-36 2 -54 20t-22 38q-6 24 2 47t25 41t41 29t50 9z" />
<glyph unicode="&#xc5;" horiz-adv-x="1144" d="M578 528q64 2 106 2t72 -2l-6 30q-12 74 -26 158t-27 166t-24 156t-19 130q-20 -52 -46 -125t-56 -159t-61 -180t-61 -186q36 4 72 6t76 4zM664 1642q62 0 105 -37t43 -115q0 -46 -18 -81t-46 -57q30 -4 42 -18q6 -42 17 -104t21 -120q12 -68 28 -140q18 -100 39 -222 t53 -260t76 -286t110 -300q-20 -28 -46 -43t-50 -21q-28 -8 -60 -6q-12 0 -26 6q-12 4 -26 11t-24 21q-28 100 -50 194t-38 168q-20 86 -34 162q-54 2 -161 1t-231 -13q-38 -120 -60 -202t-32 -136t-8 -89t12 -61q-28 -28 -55 -41t-49 -17q-26 -6 -50 -4q-32 4 -52 11 t-29 22t-6 43t15 74q12 40 45 143t75 235q-76 -6 -117 8t-57 76q32 10 69 19t71 17q38 8 78 14q42 132 86 260t82 230l116 310q6 14 70 36q-48 16 -75 55t-27 91q0 34 15 64t39 53t55 36t65 13zM658 1414q28 0 44 21t16 55q0 28 -16 42t-34 14q-30 0 -53 -21t-23 -49t20 -45 t46 -17z" />
<glyph unicode="&#xc6;" horiz-adv-x="1630" d="M1598 -62q-4 -28 -10 -52q-6 -22 -14 -44t-22 -36q-36 26 -86 40t-96 22q-52 8 -108 10q-72 2 -133 -4t-107 -15t-79 -18t-49 -13q-30 -10 -61 11t-47 61q-16 38 -13 74t7 56q0 6 4 31t9 74t12 126t15 187q-120 -4 -230 -15t-198 -21q-16 -34 -33 -67t-33 -71 q-34 -76 -56 -134t-34 -106t-14 -89t6 -81l-102 -38q-14 -4 -30 -8t-32 0t-33 18t-33 44q-22 38 -18 72t20 76q8 20 13 36t10 31t11 31t16 36q16 30 46 89t72 137q-16 6 -43 22t-43 40q-6 14 -10 28q-4 12 -3 26t9 28q28 4 60 11t60 11q34 6 66 10q50 92 106 189t110 190 t105 175t91 142q82 24 164 39t152 25q80 10 156 14q96 4 190 7t166 -8t113 -39t33 -84q-4 -22 -10 -40q-6 -16 -14 -29t-22 -17q-22 16 -56 25t-64 13q-36 6 -74 8t-90 -1t-106 -7t-104 -10t-86 -12q-4 -60 -8 -179t-10 -315q0 -4 -1 -11t-1 -11q72 4 150 8q66 4 144 6 t152 2q24 0 29 -30t-5 -68t-31 -68t-47 -30q-58 4 -127 5t-129 1h-140q-4 -150 -3 -263t3 -177q72 18 148 28t141 15t115 6t72 -1q26 -2 49 -9t41 -20t27 -36t5 -59zM832 620q8 174 9 321t1 231q-28 -34 -80 -110t-126 -204q-46 -80 -82 -145t-68 -123q58 6 123 12t133 12 q42 2 90 6z" />
<glyph unicode="&#xc7;" horiz-adv-x="966" d="M576 -276q18 0 43 -7t48 -24t38 -46t13 -75q-2 -36 -20 -63t-45 -45t-61 -26t-68 -8q-24 0 -46 4q-20 4 -42 11t-42 21l2 76q26 -10 62 -11t69 5t56 19t25 35q0 22 -19 32t-44 13t-51 1t-40 -4q-40 -8 -42 38q0 14 -2 36q-2 20 -3 51t-3 77q-90 20 -161 80t-120 149 t-76 202t-27 241q0 206 48 368t127 274t180 172t207 60q100 0 168 -36t109 -92t56 -123t9 -127q-10 -116 -79 -188t-159 -72q-30 2 -62 10q-28 8 -58 24t-56 46q84 -6 130 34t68 90q24 58 28 136q0 44 -14 77t-37 54t-49 31t-50 10q-54 0 -117 -42t-119 -127t-93 -216 t-37 -311q0 -178 32 -291t78 -176t97 -86t87 -23q70 6 128 48q50 36 95 115t61 227q26 -2 43 -12t29 -20q12 -12 22 -28q2 -4 0 -38t-12 -85t-32 -110t-62 -112t-100 -92t-146 -47q2 -20 0 -38t-4 -34q-4 -18 -6 -34q10 2 21 2h25z" />
<glyph unicode="&#xc8;" horiz-adv-x="944" d="M76 1110q-12 12 -19 28t-11 30q-6 16 -6 34q-2 16 0 32q2 12 4 25t10 19q16 4 37 7t39 7l44 8q8 12 33 25t54 23t55 15t36 -1v-42q52 6 108 11t120 5q78 2 146 4q58 2 117 1t91 -3q16 -2 25 -23t6 -53t-21 -70t-56 -72q-48 10 -100 16t-96 10q-52 4 -100 2q-62 0 -122 -3 t-116 -7q2 -98 3 -223t3 -253l52 4t54 4q72 4 141 8t120 -3t77 -31t12 -76l-28 -96q-4 10 -21 17t-39 11q-24 6 -54 10q-70 8 -154 2t-160 -18v-2q2 -176 -1 -292t-7 -180q26 4 51 6t53 6q72 6 150 8q66 2 147 1t157 -11q12 -20 8 -52t-14 -62q-12 -36 -30 -76 q-90 10 -174 14t-150 6q-78 2 -146 0q-124 4 -196 -13t-102 -25q-20 -6 -30 6t-22 39t-8 75q0 4 2 11t12 11q12 4 38 10t64 14q4 82 6 208t6 256q-34 6 -60 55t-24 109q12 4 27 6t29 6q16 4 32 6q2 52 2 94t2 74q4 84 2 167t-4 153q-18 -2 -38 -4q-16 -2 -34 -4t-32 -4z M402 1810q12 6 22 14q10 4 21 9t21 3q0 -22 9 -40t21 -34l24 -36q16 -22 44 -66t78 -118q0 -16 -8 -36q-4 -8 -10 -16q-18 -22 -42 -27t-34 5q-6 4 -34 30t-61 59t-62 66t-35 51q-14 36 3 75t43 61z" />
<glyph unicode="&#xc9;" horiz-adv-x="944" d="M76 1110q-12 12 -19 28t-11 30q-6 16 -6 34q-2 16 0 32q2 12 4 25t10 19q16 4 37 7t39 7l44 8q8 12 33 25t54 23t55 15t36 -1v-42q52 6 108 11t120 5q78 2 146 4q58 2 117 1t91 -3q16 -2 25 -23t6 -53t-21 -70t-56 -72q-48 10 -100 16t-96 10q-52 4 -100 2q-62 0 -122 -3 t-116 -7q2 -98 3 -223t3 -253l52 4t54 4q72 4 141 8t120 -3t77 -31t12 -76l-28 -96q-4 10 -21 17t-39 11q-24 6 -54 10q-70 8 -154 2t-160 -18v-2q2 -176 -1 -292t-7 -180q26 4 51 6t53 6q72 6 150 8q66 2 147 1t157 -11q12 -20 8 -52t-14 -62q-12 -36 -30 -76 q-90 10 -174 14t-150 6q-78 2 -146 0q-124 4 -196 -13t-102 -25q-20 -6 -30 6t-22 39t-8 75q0 4 2 11t12 11q12 4 38 10t64 14q4 82 6 208t6 256q-34 6 -60 55t-24 109q12 4 27 6t29 6q16 4 32 6q2 52 2 94t2 74q4 84 2 167t-4 153q-18 -2 -38 -4q-16 -2 -34 -4t-32 -4z M670 1810q26 -22 43 -61t3 -75q-6 -18 -35 -51t-62 -66t-61 -59t-34 -30q-10 -10 -34 -5t-42 27q-6 8 -10 16t-7 17t-1 19q50 74 79 118t45 66l24 36q10 16 19 34t9 40q10 2 21 -3t21 -9q10 -8 22 -14z" />
<glyph unicode="&#xca;" horiz-adv-x="944" d="M76 1110q-12 12 -19 28t-11 30q-6 16 -6 34q-2 16 0 32q2 12 4 25t10 19q16 4 37 7t39 7l44 8q8 12 33 25t54 23t55 15t36 -1v-42q52 6 108 11t120 5q78 2 146 4q58 2 117 1t91 -3q16 -2 25 -23t6 -53t-21 -70t-56 -72q-48 10 -100 16t-96 10q-52 4 -100 2q-62 0 -122 -3 t-116 -7q2 -98 3 -223t3 -253l52 4t54 4q72 4 141 8t120 -3t77 -31t12 -76l-28 -96q-4 10 -21 17t-39 11q-24 6 -54 10q-70 8 -154 2t-160 -18v-2q2 -176 -1 -292t-7 -180q26 4 51 6t53 6q72 6 150 8q66 2 147 1t157 -11q12 -20 8 -52t-14 -62q-12 -36 -30 -76 q-90 10 -174 14t-150 6q-78 2 -146 0q-124 4 -196 -13t-102 -25q-20 -6 -30 6t-22 39t-8 75q0 4 2 11t12 11q12 4 38 10t64 14q4 82 6 208t6 256q-34 6 -60 55t-24 109q12 4 27 6t29 6q16 4 32 6q2 52 2 94t2 74q4 84 2 167t-4 153q-18 -2 -38 -4q-16 -2 -34 -4t-32 -4z M474 1750q6 6 22 10t34 5t33 0t19 -5q14 -18 42 -50q24 -28 65 -75t107 -119q-8 -12 -30 -20q-10 -4 -22 -6t-26 -2q-12 -2 -29 -2h-35q-26 34 -48 63t-38 51q-20 24 -36 44q-20 -18 -42 -42q-20 -22 -47 -51t-61 -63q-22 0 -39 3t-33 7q-18 4 -32 8q-14 2 -22 6 q-18 8 -16 8q104 106 168 168q36 36 66 62z" />
<glyph unicode="&#xcb;" horiz-adv-x="944" d="M76 1110q-12 12 -19 28t-11 30q-6 16 -6 34q-2 16 0 32q2 12 4 25t10 19q16 4 37 7t39 7l44 8q8 12 33 25t54 23t55 15t36 -1v-42q52 6 108 11t120 5q78 2 146 4q58 2 117 1t91 -3q16 -2 25 -23t6 -53t-21 -70t-56 -72q-48 10 -100 16t-96 10q-52 4 -100 2q-62 0 -122 -3 t-116 -7q2 -98 3 -223t3 -253l52 4t54 4q72 4 141 8t120 -3t77 -31t12 -76l-28 -96q-4 10 -21 17t-39 11q-24 6 -54 10q-70 8 -154 2t-160 -18v-2q2 -176 -1 -292t-7 -180q26 4 51 6t53 6q72 6 150 8q66 2 147 1t157 -11q12 -20 8 -52t-14 -62q-12 -36 -30 -76 q-90 10 -174 14t-150 6q-78 2 -146 0q-124 4 -196 -13t-102 -25q-20 -6 -30 6t-22 39t-8 75q0 4 2 11t12 11q12 4 38 10t64 14q4 82 6 208t6 256q-34 6 -60 55t-24 109q12 4 27 6t29 6q16 4 32 6q2 52 2 94t2 74q4 84 2 167t-4 153q-18 -2 -38 -4q-16 -2 -34 -4t-32 -4z M700 1672q28 0 48 -14t28 -48q6 -26 -2 -50t-25 -42t-40 -29t-49 -11q-34 0 -52 18t-22 42q-6 24 2 48t25 43t40 31t47 12zM418 1668q28 -2 49 -16t27 -46q6 -26 -2 -49t-25 -40t-41 -26t-50 -7q-36 2 -54 20t-22 38q-6 24 2 47t25 41t41 29t50 9z" />
<glyph unicode="&#xcc;" horiz-adv-x="572" d="M174 1148q-28 -6 -54 -14q-22 -8 -49 -17t-51 -21q-8 30 -15 66t-3 69t23 58t65 29q44 6 102 8t121 2t129 -3t130 -11q4 -32 6 -55t2 -39v-32q0 -12 -4 -20q-8 -20 -28 -26q-22 6 -51 9t-57 7q-32 4 -66 6q4 -70 7 -203t-1 -349q-4 -220 -7 -359t-5 -215q76 -6 113 -25 t50 -44t10 -55t-5 -58q-34 8 -77 11t-81 3q-44 0 -90 -4q-52 -4 -100 -12q-40 -8 -80 -20t-60 -34q-16 30 -24 64q-8 28 -12 66t2 78q22 8 50 13t52 9q28 4 58 6q4 64 10 179t10 309q4 244 -4 397t-16 227zM178 1810q12 6 22 14q10 4 21 9t21 3q0 -22 9 -40t21 -34l24 -36 q16 -22 44 -66t78 -118q0 -16 -8 -36q-4 -8 -10 -16q-18 -22 -42 -27t-34 5q-6 4 -34 30t-61 59t-62 66t-35 51q-14 36 3 75t43 61z" />
<glyph unicode="&#xcd;" horiz-adv-x="572" d="M174 1148q-28 -6 -54 -14q-22 -8 -49 -17t-51 -21q-8 30 -15 66t-3 69t23 58t65 29q44 6 102 8t121 2t129 -3t130 -11q4 -32 6 -55t2 -39v-32q0 -12 -4 -20q-8 -20 -28 -26q-22 6 -51 9t-57 7q-32 4 -66 6q4 -70 7 -203t-1 -349q-4 -220 -7 -359t-5 -215q76 -6 113 -25 t50 -44t10 -55t-5 -58q-34 8 -77 11t-81 3q-44 0 -90 -4q-52 -4 -100 -12q-40 -8 -80 -20t-60 -34q-16 30 -24 64q-8 28 -12 66t2 78q22 8 50 13t52 9q28 4 58 6q4 64 10 179t10 309q4 244 -4 397t-16 227zM426 1810q26 -22 43 -61t3 -75q-6 -18 -35 -51t-62 -66t-61 -59 t-34 -30q-10 -10 -34 -5t-42 27q-6 8 -10 16t-7 17t-1 19q50 74 79 118t45 66l24 36q10 16 19 34t9 40q10 2 21 -3t21 -9q10 -8 22 -14z" />
<glyph unicode="&#xce;" horiz-adv-x="572" d="M174 1148q-28 -6 -54 -14q-22 -8 -49 -17t-51 -21q-8 30 -15 66t-3 69t23 58t65 29q44 6 102 8t121 2t129 -3t130 -11q4 -32 6 -55t2 -39v-32q0 -12 -4 -20q-8 -20 -28 -26q-22 6 -51 9t-57 7q-32 4 -66 6q4 -70 7 -203t-1 -349q-4 -220 -7 -359t-5 -215q76 -6 113 -25 t50 -44t10 -55t-5 -58q-34 8 -77 11t-81 3q-44 0 -90 -4q-52 -4 -100 -12q-40 -8 -80 -20t-60 -34q-16 30 -24 64q-8 28 -12 66t2 78q22 8 50 13t52 9q28 4 58 6q4 64 10 179t10 309q4 244 -4 397t-16 227zM248 1728q6 6 22 10t34 5t33 0t19 -5q14 -18 42 -50q24 -28 65 -75 t107 -119q-8 -12 -30 -20q-10 -4 -22 -6t-26 -2q-12 -2 -29 -2h-35q-26 34 -48 63t-38 51q-20 24 -36 44q-20 -18 -42 -42q-20 -22 -47 -51t-61 -63q-22 0 -39 3t-33 7q-18 4 -32 8q-14 2 -22 6q-18 8 -16 8q104 106 168 168q36 36 66 62z" />
<glyph unicode="&#xcf;" horiz-adv-x="572" d="M174 1148q-28 -6 -54 -14q-22 -8 -49 -17t-51 -21q-8 30 -15 66t-3 69t23 58t65 29q44 6 102 8t121 2t129 -3t130 -11q4 -32 6 -55t2 -39v-32q0 -12 -4 -20q-8 -20 -28 -26q-22 6 -51 9t-57 7q-32 4 -66 6q4 -70 7 -203t-1 -349q-4 -220 -7 -359t-5 -215q76 -6 113 -25 t50 -44t10 -55t-5 -58q-34 8 -77 11t-81 3q-44 0 -90 -4q-52 -4 -100 -12q-40 -8 -80 -20t-60 -34q-16 30 -24 64q-8 28 -12 66t2 78q22 8 50 13t52 9q28 4 58 6q4 64 10 179t10 309q4 244 -4 397t-16 227zM474 1652q28 0 48 -14t28 -48q6 -26 -2 -50t-25 -42t-40 -29 t-49 -11q-34 0 -52 18t-22 42q-6 24 2 48t25 43t40 31t47 12zM192 1648q28 -2 49 -16t27 -46q6 -26 -2 -49t-25 -40t-41 -26t-50 -7q-36 2 -54 20t-22 38q-6 24 2 47t25 41t41 29t50 9z" />
<glyph unicode="&#xd0;" horiz-adv-x="1140" d="M302 664q4 132 6 262t4 234q-96 -38 -149 -109t-41 -163q-16 2 -31 20t-27 40q-14 24 -26 56q-14 40 -17 69t3 51t20 40t34 36q24 22 88 56t148 58l2 54l158 52q16 6 34 1t14 -37q0 -10 -1 -20t-3 -22q128 -4 233 -52t180 -131t117 -197t42 -248q0 -198 -56 -344 t-146 -248t-204 -164t-228 -90q-14 -14 -38 -28t-52 -24t-57 -15t-51 -1l4 42q-78 -4 -136 8q-14 8 -26 30q-6 8 -10 20q-6 10 -8 20q-6 18 0 44q98 -12 188 0q6 86 12 209t12 267q2 22 2 44t4 44q-56 -4 -120 -14t-96 -28q-16 14 -21 51t9 85q26 8 58 14t64 11t60 9t48 8z M672 668q16 -12 20 -33t2 -42t-6 -41t-4 -32q-14 6 -40 8t-56 4t-62 2h-60q-4 -166 -3 -303t5 -223q192 72 307 242t115 426q0 112 -27 205t-77 160t-120 105t-154 42h-8q-6 -60 -12 -137t-12 -175q-2 -46 -4 -94t-4 -94q150 16 200 -20z" />
<glyph unicode="&#xd1;" horiz-adv-x="1084" d="M94 74q-2 40 -1 110t4 155t7 180t7 187t6 175t5 145q2 44 4 86q2 36 2 78t-4 76q16 6 26 12t20 13t23 16t37 19q14 6 30 10q14 4 31 6t37 0q34 -112 69 -207t71 -184t76 -178t82 -191q44 -104 80 -190t60 -150q4 72 8 161t6 183t3 185t2 170t1 139v88q0 50 27 83t62 53 t70 28t51 8q12 0 20 -2t15 -4t11 -6q-34 -46 -50 -98t-23 -104t-7 -102v-92q-2 -100 -6 -246q-4 -126 -6 -314t-2 -450q-42 -34 -78 -58t-92 -16q-24 2 -39 20t-30 51t-31 82t-42 115q-46 116 -94 234t-92 224t-81 193t-61 141q-36 -274 -33 -472t13 -290q6 -40 14 -82 q8 -36 20 -81t32 -91q-34 -34 -67 -46t-59 -16q-30 -4 -58 2q-14 4 -27 27t-23 57t-17 75t-9 83zM724 1560q20 2 42 12q18 10 39 26t41 48q8 -10 10 -32t-1 -46t-10 -48t-17 -40q-10 -14 -34 -32t-62 -18q-40 0 -71 12t-56 27t-48 27t-45 12q-20 -2 -42 -10q-18 -8 -42 -24 t-48 -46q-16 6 -26 25t-14 41t-5 41t1 29q26 28 52 42t48 22q24 8 48 10q34 0 61 -13t54 -28t56 -27t69 -10z" />
<glyph unicode="&#xd2;" d="M666 1324q74 -2 145 -52t125 -140t85 -216t29 -282q-4 -174 -42 -322t-105 -256t-161 -168t-208 -58q-108 2 -197 48t-151 138t-95 232t-29 330t57 333t127 240t152 148t132 57q34 -24 48 -46q16 6 37 10t51 4zM846 622q2 102 -14 197t-43 169t-61 119t-68 47 q-26 -2 -52 -16q-22 -14 -48 -42t-48 -80q-20 28 -25 60t-1 64q-54 -40 -94 -99t-66 -130t-40 -150t-16 -161q-4 -164 17 -280t58 -191t87 -110t108 -35q68 -2 123 49t95 139t63 204t25 246zM482 1810q12 6 22 14q10 4 21 9t21 3q0 -22 9 -40t21 -34l24 -36q16 -22 44 -66 t78 -118q0 -16 -8 -36q-4 -8 -10 -16q-18 -22 -42 -27t-34 5q-6 4 -34 30t-61 59t-62 66t-35 51q-14 36 3 75t43 61z" />
<glyph unicode="&#xd3;" d="M666 1324q74 -2 145 -52t125 -140t85 -216t29 -282q-4 -174 -42 -322t-105 -256t-161 -168t-208 -58q-108 2 -197 48t-151 138t-95 232t-29 330t57 333t127 240t152 148t132 57q34 -24 48 -46q16 6 37 10t51 4zM846 622q2 102 -14 197t-43 169t-61 119t-68 47 q-26 -2 -52 -16q-22 -14 -48 -42t-48 -80q-20 28 -25 60t-1 64q-54 -40 -94 -99t-66 -130t-40 -150t-16 -161q-4 -164 17 -280t58 -191t87 -110t108 -35q68 -2 123 49t95 139t63 204t25 246zM732 1810q26 -22 43 -61t3 -75q-6 -18 -35 -51t-62 -66t-61 -59t-34 -30 q-10 -10 -34 -5t-42 27q-6 8 -10 16t-7 17t-1 19q50 74 79 118t45 66l24 36q10 16 19 34t9 40q10 2 21 -3t21 -9q10 -8 22 -14z" />
<glyph unicode="&#xd4;" d="M666 1324q74 -2 145 -52t125 -140t85 -216t29 -282q-4 -174 -42 -322t-105 -256t-161 -168t-208 -58q-108 2 -197 48t-151 138t-95 232t-29 330t57 333t127 240t152 148t132 57q34 -24 48 -46q16 6 37 10t51 4zM846 622q2 102 -14 197t-43 169t-61 119t-68 47 q-26 -2 -52 -16q-22 -14 -48 -42t-48 -80q-20 28 -25 60t-1 64q-54 -40 -94 -99t-66 -130t-40 -150t-16 -161q-4 -164 17 -280t58 -191t87 -110t108 -35q68 -2 123 49t95 139t63 204t25 246zM532 1728q6 6 22 10t34 5t33 0t19 -5q14 -18 42 -50q24 -28 65 -75t107 -119 q-8 -12 -30 -20q-10 -4 -22 -6t-26 -2q-12 -2 -29 -2h-35q-26 34 -48 63t-38 51q-20 24 -36 44q-20 -18 -42 -42q-20 -22 -47 -51t-61 -63q-22 0 -39 3t-33 7q-18 4 -32 8q-14 2 -22 6q-18 8 -16 8q104 106 168 168q36 36 66 62z" />
<glyph unicode="&#xd5;" d="M666 1324q74 -2 145 -52t125 -140t85 -216t29 -282q-4 -174 -42 -322t-105 -256t-161 -168t-208 -58q-108 2 -197 48t-151 138t-95 232t-29 330t57 333t127 240t152 148t132 57q34 -24 48 -46q16 6 37 10t51 4zM846 622q2 102 -14 197t-43 169t-61 119t-68 47 q-26 -2 -52 -16q-22 -14 -48 -42t-48 -80q-20 28 -25 60t-1 64q-54 -40 -94 -99t-66 -130t-40 -150t-16 -161q-4 -164 17 -280t58 -191t87 -110t108 -35q68 -2 123 49t95 139t63 204t25 246zM724 1602q20 2 42 12q18 10 39 26t41 48q8 -10 10 -32t-1 -46t-10 -48t-17 -40 q-10 -14 -34 -32t-62 -18q-40 0 -71 12t-56 27t-48 27t-45 12q-20 -2 -42 -10q-18 -8 -42 -24t-48 -46q-16 6 -26 25t-14 41t-5 41t1 29q26 28 52 42t48 22q24 8 48 10q34 0 61 -13t54 -28t56 -27t69 -10z" />
<glyph unicode="&#xd6;" d="M666 1324q74 -2 145 -52t125 -140t85 -216t29 -282q-4 -174 -42 -322t-105 -256t-161 -168t-208 -58q-108 2 -197 48t-151 138t-95 232t-29 330t57 333t127 240t152 148t132 57q34 -24 48 -46q16 6 37 10t51 4zM846 622q2 102 -14 197t-43 169t-61 119t-68 47 q-26 -2 -52 -16q-22 -14 -48 -42t-48 -80q-20 28 -25 60t-1 64q-54 -40 -94 -99t-66 -130t-40 -150t-16 -161q-4 -164 17 -280t58 -191t87 -110t108 -35q68 -2 123 49t95 139t63 204t25 246zM758 1672q28 0 48 -14t28 -48q6 -26 -2 -50t-25 -42t-40 -29t-49 -11 q-34 0 -52 18t-22 42q-6 24 2 48t25 43t40 31t47 12zM476 1668q28 -2 49 -16t27 -46q6 -26 -2 -49t-25 -40t-41 -26t-50 -7q-36 2 -54 20t-22 38q-6 24 2 47t25 41t41 29t50 9z" />
<glyph unicode="&#xd7;" horiz-adv-x="648" d="M370 566q60 -96 125 -186t131 -180q-34 -10 -62 -14q-14 -2 -24 -2q-10 -2 -22 0q-10 2 -25 4t-33 8q-32 46 -62 91l-54 81q-28 42 -52 80q-28 -46 -56 -96q-24 -42 -50 -94t-42 -98q-28 18 -44 34t-26 28q-12 14 -18 24q-16 26 -10 55t24 65q16 32 51 88t83 126 q-26 40 -56 88q-26 40 -59 94t-69 114q30 18 55 24t45 8q22 0 40 -4q34 -16 61 -68t73 -140q26 32 56 70q26 32 61 75t75 91q16 -4 29 -9t23 -9q10 -6 20 -8q8 -2 16 -10q12 -14 28 -34q-52 -64 -95 -118t-73 -94q-36 -48 -64 -84z" />
<glyph unicode="&#xd8;" horiz-adv-x="1102" d="M146 64q-48 92 -73 218t-21 296q4 190 57 333t126 240t152 148t133 57q34 -24 48 -46q16 6 37 10t51 4q58 -4 115 -33t103 -87l74 114q16 -2 28 -10t22 -18q10 -12 20 -26q8 -16 14 -32q10 -32 2 -56l-72 -114q40 -84 61 -192t17 -236q-4 -174 -42 -322t-105 -256 t-161 -168t-208 -58q-82 2 -152 27t-128 77l-60 -92q-16 0 -31 5t-25 11q-12 8 -22 18q-8 10 -16 22q-6 10 -12 22t-6 28zM836 622q2 56 -2 110t-14 106l-470 -738q70 -112 180 -116q68 -2 123 49t95 139t63 204t25 246zM260 600q-4 -190 24 -320l480 750q-26 58 -56 91 t-58 33q-26 -2 -52 -16q-22 -14 -48 -42t-48 -80q-20 28 -25 60t-1 64q-54 -40 -94 -99t-66 -130t-40 -151t-16 -160z" />
<glyph unicode="&#xd9;" horiz-adv-x="1038" d="M290 346q6 -98 30 -168t58 -114t74 -65t76 -21q38 0 77 25t71 76t50 126t14 177q0 94 -4 224q-4 112 -11 276t-21 386q-2 14 21 31t56 29t67 16t56 -8q16 -178 23 -342t9 -290q2 -148 0 -278q6 -158 -30 -272t-98 -187t-140 -109t-156 -36q-116 -2 -198 46t-133 148 t-75 250t-24 352q-2 98 6 204q6 90 18 199t36 213q-2 46 31 68t73 32q46 10 106 8q-30 -242 -43 -428t-17 -312q-6 -148 -2 -256zM424 1790q12 6 22 14q10 4 21 9t21 3q0 -22 9 -40t21 -34l24 -36q16 -22 44 -66t78 -118q0 -16 -8 -36q-4 -8 -10 -16q-18 -22 -42 -27t-34 5 q-6 4 -34 30t-61 59t-62 66t-35 51q-14 36 3 75t43 61z" />
<glyph unicode="&#xda;" horiz-adv-x="1038" d="M290 346q6 -98 30 -168t58 -114t74 -65t76 -21q38 0 77 25t71 76t50 126t14 177q0 94 -4 224q-4 112 -11 276t-21 386q-2 14 21 31t56 29t67 16t56 -8q16 -178 23 -342t9 -290q2 -148 0 -278q6 -158 -30 -272t-98 -187t-140 -109t-156 -36q-116 -2 -198 46t-133 148 t-75 250t-24 352q-2 98 6 204q6 90 18 199t36 213q-2 46 31 68t73 32q46 10 106 8q-30 -242 -43 -428t-17 -312q-6 -148 -2 -256zM712 1790q26 -22 43 -61t3 -75q-6 -18 -35 -51t-62 -66t-61 -59t-34 -30q-10 -10 -34 -5t-42 27q-6 8 -10 16t-7 17t-1 19q50 74 79 118t45 66 l24 36q10 16 19 34t9 40q10 2 21 -3t21 -9q10 -8 22 -14z" />
<glyph unicode="&#xdb;" horiz-adv-x="1038" d="M290 346q6 -98 30 -168t58 -114t74 -65t76 -21q38 0 77 25t71 76t50 126t14 177q0 94 -4 224q-4 112 -11 276t-21 386q-2 14 21 31t56 29t67 16t56 -8q16 -178 23 -342t9 -290q2 -148 0 -278q6 -158 -30 -272t-98 -187t-140 -109t-156 -36q-116 -2 -198 46t-133 148 t-75 250t-24 352q-2 98 6 204q6 90 18 199t36 213q-2 46 31 68t73 32q46 10 106 8q-30 -242 -43 -428t-17 -312q-6 -148 -2 -256zM494 1728q6 6 22 10t34 5t33 0t19 -5q14 -18 42 -50q24 -28 65 -75t107 -119q-8 -12 -30 -20q-10 -4 -22 -6t-26 -2q-12 -2 -29 -2h-35 q-26 34 -48 63t-38 51q-20 24 -36 44q-20 -18 -42 -42q-20 -22 -47 -51t-61 -63q-22 0 -39 3t-33 7q-18 4 -32 8q-14 2 -22 6q-18 8 -16 8q104 106 168 168q36 36 66 62z" />
<glyph unicode="&#xdc;" horiz-adv-x="1038" d="M290 346q6 -98 30 -168t58 -114t74 -65t76 -21q38 0 77 25t71 76t50 126t14 177q0 94 -4 224q-4 112 -11 276t-21 386q-2 14 21 31t56 29t67 16t56 -8q16 -178 23 -342t9 -290q2 -148 0 -278q6 -158 -30 -272t-98 -187t-140 -109t-156 -36q-116 -2 -198 46t-133 148 t-75 250t-24 352q-2 98 6 204q6 90 18 199t36 213q-2 46 31 68t73 32q46 10 106 8q-30 -242 -43 -428t-17 -312q-6 -148 -2 -256zM718 1652q28 0 48 -14t28 -48q6 -26 -2 -50t-25 -42t-40 -29t-49 -11q-34 0 -52 18t-22 42q-6 24 2 48t25 43t40 31t47 12zM436 1648 q28 -2 49 -16t27 -46q6 -26 -2 -49t-25 -40t-41 -26t-50 -7q-36 2 -54 20t-22 38q-6 24 2 47t25 41t41 29t50 9z" />
<glyph unicode="&#xdd;" horiz-adv-x="1008" d="M466 142q-170 0 -269 150t-121 428q-8 96 -2 190t20 172t34 134t40 76t46 36t51 25t47 8t36 -13q-42 -132 -64 -261t-25 -245t10 -216t41 -172t70 -113t96 -41q94 0 143 82t69 210t20 284t-2 306q-2 72 11 111t57 55q16 6 32 10q32 8 52 -4q16 -64 25 -159t13 -187 q6 -108 6 -222q4 -40 9 -110t5 -156t-6 -183t-24 -192t-50 -182t-86 -154t-130 -106t-180 -39q-84 0 -148 46t-103 105t-52 113t5 72l100 90q20 -98 57 -150t75 -76q44 -28 92 -32q78 0 127 39t79 109t44 167t20 211q-38 -90 -103 -153t-167 -63zM712 1790q26 -22 43 -61 t3 -75q-6 -18 -35 -51t-62 -66t-61 -59t-34 -30q-10 -10 -34 -5t-42 27q-6 8 -10 16t-7 17t-1 19q50 74 79 118t45 66l24 36q10 16 19 34t9 40q10 2 21 -3t21 -9q10 -8 22 -14z" />
<glyph unicode="&#xde;" horiz-adv-x="940" d="M504 1156q76 0 158 -24t151 -77t113 -138t44 -207q0 -110 -41 -214t-116 -190t-181 -147t-236 -81q4 -96 17 -162t37 -92q-14 -12 -36 -26t-47 -22t-51 -10t-48 10q-32 20 -39 60t-7 90v144l-44 4t-44 6q-14 32 -18 55t-4 39q0 18 4 32q36 -6 70 -6h36q2 108 2 232t2 246 q0 60 1 120t1 116q-58 -42 -100 -103t-56 -141q-26 4 -44 24t-30 42q-14 24 -24 56q-10 38 -1 78t29 74t46 62t50 42q34 22 65 38t69 30q2 32 2 66v62t2 64q26 32 59 50t63 26q36 8 70 10q-4 -38 -7 -81t-5 -79q-4 -42 -4 -84q42 6 92 6zM392 226q54 16 119 47t122 83 t95 131t38 191q0 86 -29 145t-75 96t-101 54t-109 17q-12 0 -24 -1t-24 -3q-4 -108 -8 -223t-4 -217q0 -84 -1 -165t1 -155z" />
<glyph unicode="&#xdf;" horiz-adv-x="966" d="M550 588q0 -74 44 -120t130 -78q44 -16 84 -32t71 -38t49 -50t18 -68q0 -48 -22 -90t-61 -73t-96 -50t-125 -19q-80 0 -128 15t-74 34t-34 39t-8 32q0 24 10 53t38 63q12 14 26 26q12 10 26 19t28 11q-4 -46 11 -75t41 -45t57 -22t59 -6q58 0 102 29t44 67q0 22 -15 37 t-38 26t-52 18t-57 13t-74 23t-89 47t-75 76t-32 110t14 118t31 109t31 115t14 136q0 14 -3 37t-12 44t-23 37t-38 16q-72 0 -103 -114t-31 -320q0 -106 2 -198t6 -178t8 -169t8 -173q-18 -28 -41 -35t-45 -5q-24 2 -52 14q-16 136 -25 254t-15 208q-8 104 -12 190 q-34 -4 -57 -6t-35 2q-8 0 -8 10l-2 90q0 12 8 12q14 4 37 9t55 13q4 256 79 390t235 134q70 0 114 -31t69 -73t34 -85t9 -67q0 -66 -17 -131t-38 -125t-38 -111t-17 -89z" />
<glyph unicode="&#xe0;" horiz-adv-x="750" d="M642 102q4 -14 12 -26q6 -10 17 -19t27 -11q-14 -28 -28 -38q-8 -6 -14 -8q-18 -6 -54 -6t-70 22q-12 10 -22 30q-10 16 -17 45t-11 75q-28 -60 -63 -95t-69 -51q-38 -22 -78 -26q-50 -4 -95 17t-76 64t-47 105t-10 140q6 82 32 146t62 114t76 85t77 58t64 34t35 13 q22 6 38 4t28 -18q4 -6 10 -14q4 -8 10 -21t10 -29q-48 -22 -90 -49t-77 -65t-61 -92t-40 -132q-20 -98 11 -158t85 -50q32 10 62 38q26 24 55 72t55 132q10 120 17 189t13 105q8 42 12 56q6 10 24 19t40 15t40 7t24 -1q4 -2 4 -49t-3 -118t-7 -154t-7 -157t-4 -129t3 -69z M280 1260q12 6 22 14q10 4 21 9t21 3q0 -22 9 -40t21 -34l24 -36q16 -22 44 -66t78 -118q0 -16 -8 -36q-4 -8 -10 -16q-18 -22 -42 -27t-34 5q-6 4 -34 30t-61 59t-62 66t-35 51q-14 36 3 75t43 61z" />
<glyph unicode="&#xe1;" horiz-adv-x="750" d="M642 102q4 -14 12 -26q6 -10 17 -19t27 -11q-14 -28 -28 -38q-8 -6 -14 -8q-18 -6 -54 -6t-70 22q-12 10 -22 30q-10 16 -17 45t-11 75q-28 -60 -63 -95t-69 -51q-38 -22 -78 -26q-50 -4 -95 17t-76 64t-47 105t-10 140q6 82 32 146t62 114t76 85t77 58t64 34t35 13 q22 6 38 4t28 -18q4 -6 10 -14q4 -8 10 -21t10 -29q-48 -22 -90 -49t-77 -65t-61 -92t-40 -132q-20 -98 11 -158t85 -50q32 10 62 38q26 24 55 72t55 132q10 120 17 189t13 105q8 42 12 56q6 10 24 19t40 15t40 7t24 -1q4 -2 4 -49t-3 -118t-7 -154t-7 -157t-4 -129t3 -69z M530 1260q26 -22 43 -61t3 -75q-6 -18 -35 -51t-62 -66t-61 -59t-34 -30q-10 -10 -34 -5t-42 27q-6 8 -10 16t-7 17t-1 19q50 74 79 118t45 66l24 36q10 16 19 34t9 40q10 2 21 -3t21 -9q10 -8 22 -14z" />
<glyph unicode="&#xe2;" horiz-adv-x="750" d="M642 102q4 -14 12 -26q6 -10 17 -19t27 -11q-14 -28 -28 -38q-8 -6 -14 -8q-18 -6 -54 -6t-70 22q-12 10 -22 30q-10 16 -17 45t-11 75q-28 -60 -63 -95t-69 -51q-38 -22 -78 -26q-50 -4 -95 17t-76 64t-47 105t-10 140q6 82 32 146t62 114t76 85t77 58t64 34t35 13 q22 6 38 4t28 -18q4 -6 10 -14q4 -8 10 -21t10 -29q-48 -22 -90 -49t-77 -65t-61 -92t-40 -132q-20 -98 11 -158t85 -50q32 10 62 38q26 24 55 72t55 132q10 120 17 189t13 105q8 42 12 56q6 10 24 19t40 15t40 7t24 -1q4 -2 4 -49t-3 -118t-7 -154t-7 -157t-4 -129t3 -69z M370 1198q6 6 22 10t34 5t33 0t19 -5q14 -18 42 -50q24 -28 65 -75t107 -119q-8 -12 -30 -20q-10 -4 -22 -6t-26 -2q-12 -2 -29 -2h-35q-26 34 -48 63t-38 51q-20 24 -36 44q-20 -18 -42 -42q-20 -22 -47 -51t-61 -63q-22 0 -39 3t-33 7q-18 4 -32 8q-14 2 -22 6 q-18 8 -16 8q104 106 168 168q36 36 66 62z" />
<glyph unicode="&#xe3;" horiz-adv-x="750" d="M642 102q4 -14 12 -26q6 -10 17 -19t27 -11q-14 -28 -28 -38q-8 -6 -14 -8q-18 -6 -54 -6t-70 22q-12 10 -22 30q-10 16 -17 45t-11 75q-28 -60 -63 -95t-69 -51q-38 -22 -78 -26q-50 -4 -95 17t-76 64t-47 105t-10 140q6 82 32 146t62 114t76 85t77 58t64 34t35 13 q22 6 38 4t28 -18q4 -6 10 -14q4 -8 10 -21t10 -29q-48 -22 -90 -49t-77 -65t-61 -92t-40 -132q-20 -98 11 -158t85 -50q32 10 62 38q26 24 55 72t55 132q10 120 17 189t13 105q8 42 12 56q6 10 24 19t40 15t40 7t24 -1q4 -2 4 -49t-3 -118t-7 -154t-7 -157t-4 -129t3 -69z M542 1030q20 2 42 12q18 10 39 26t41 48q8 -10 10 -32t-1 -46t-10 -48t-17 -40q-10 -14 -34 -32t-62 -18q-40 0 -71 12t-56 27t-48 27t-45 12q-20 -2 -42 -10q-18 -8 -42 -24t-48 -46q-16 6 -26 25t-14 41t-5 41t1 29q26 28 52 42t48 22q24 8 48 10q34 0 61 -13t54 -28 t56 -27t69 -10z" />
<glyph unicode="&#xe4;" horiz-adv-x="750" d="M642 102q4 -14 12 -26q6 -10 17 -19t27 -11q-14 -28 -28 -38q-8 -6 -14 -8q-18 -6 -54 -6t-70 22q-12 10 -22 30q-10 16 -17 45t-11 75q-28 -60 -63 -95t-69 -51q-38 -22 -78 -26q-50 -4 -95 17t-76 64t-47 105t-10 140q6 82 32 146t62 114t76 85t77 58t64 34t35 13 q22 6 38 4t28 -18q4 -6 10 -14q4 -8 10 -21t10 -29q-48 -22 -90 -49t-77 -65t-61 -92t-40 -132q-20 -98 11 -158t85 -50q32 10 62 38q26 24 55 72t55 132q10 120 17 189t13 105q8 42 12 56q6 10 24 19t40 15t40 7t24 -1q4 -2 4 -49t-3 -118t-7 -154t-7 -157t-4 -129t3 -69z M598 1100q28 0 48 -14t28 -48q6 -26 -2 -50t-25 -42t-40 -29t-49 -11q-34 0 -52 18t-22 42q-6 24 2 48t25 43t40 31t47 12zM316 1096q28 -2 49 -16t27 -46q6 -26 -2 -49t-25 -40t-41 -26t-50 -7q-36 2 -54 20t-22 38q-6 24 2 47t25 41t41 29t50 9z" />
<glyph unicode="&#xe5;" horiz-adv-x="750" d="M642 102q4 -14 12 -26q6 -10 17 -19t27 -11q-14 -28 -28 -38q-8 -6 -14 -8q-18 -6 -54 -6t-70 22q-12 10 -22 30q-10 16 -17 45t-11 75q-28 -60 -63 -95t-69 -51q-38 -22 -78 -26q-50 -4 -95 17t-76 64t-47 105t-10 140q6 82 32 146t62 114t76 85t77 58t64 34t35 13 q22 6 38 4t28 -18q4 -6 10 -14q4 -8 10 -21t10 -29q-48 -22 -90 -49t-77 -65t-61 -92t-40 -132q-20 -98 11 -158t85 -50q32 10 62 38q26 24 55 72t55 132q10 120 17 189t13 105q8 42 12 56q6 10 24 19t40 15t40 7t24 -1q4 -2 4 -49t-3 -118t-7 -154t-7 -157t-4 -129t3 -69z M428 1212q62 0 104 -38t42 -114t-45 -123t-119 -47q-72 0 -114 45t-42 111q0 34 15 64t39 53t55 36t65 13zM422 982q28 0 44 22t16 56q0 28 -16 41t-34 13q-30 0 -53 -20t-23 -48q0 -30 20 -47t46 -17z" />
<glyph unicode="&#xe6;" horiz-adv-x="1118" d="M1068 248q0 -22 -15 -67t-49 -90t-88 -79t-130 -34q-70 2 -126 24q-48 18 -93 57t-55 111q-32 -62 -72 -97t-78 -53q-44 -22 -90 -26q-50 -4 -95 17t-76 64t-47 105t-10 140q6 82 32 146t62 114t76 85t77 58t64 34t35 13q22 6 38 4t28 -18q4 -6 10 -14q4 -8 10 -21 t10 -29q-48 -22 -90 -49t-77 -65t-61 -92t-40 -132q-20 -98 11 -158t85 -50q32 10 62 38q26 24 55 72t55 132q10 120 17 189t13 105q8 42 12 56q6 10 24 19t40 15t40 7t24 -1q4 -2 4 -44q46 42 101 66t115 24q74 0 126 -53t52 -151q0 -64 -28 -127t-72 -112t-98 -79 t-104 -30q-62 0 -94 32q6 -114 50 -159t114 -45q48 0 84 20t62 46t42 53t22 41q6 12 21 12t15 -24zM878 738q-12 0 -45 -25t-69 -73t-67 -115t-37 -151q120 28 190 88t70 176q0 58 -16 79t-26 21z" />
<glyph unicode="&#xe7;" horiz-adv-x="664" d="M392 -112q18 0 43 -7t48 -24t38 -46t13 -75q-2 -36 -20 -63t-45 -45t-61 -26t-68 -8q-24 0 -46 4q-20 4 -43 11t-43 21l2 76q26 -10 63 -12t70 4t56 20t25 36q0 22 -19 32t-44 13t-51 1t-40 -4q-40 -8 -42 38q0 14 -2 36q-2 20 -3 52t-3 80q-126 48 -172 208 q-24 92 -13 197t57 195t128 153t200 69q60 2 100 -22t62 -62t26 -83t-9 -85t-40 -67t-69 -29q-42 -4 -69 11t-42 37t-20 46t-1 42q6 26 20 48q12 20 35 40t61 32q-6 4 -12 4t-12 2q-8 0 -12 2q-32 0 -73 -22t-78 -70t-62 -123t-25 -181q0 -46 10 -91t31 -80t52 -56t73 -21 q48 0 85 21t63 49t41 56t21 42q6 12 21 12t15 -24q0 -22 -14 -64t-45 -85t-80 -78t-117 -41q0 -18 -1 -36t-3 -32q-2 -16 -6 -30q10 2 20 2h26z" />
<glyph unicode="&#xe8;" horiz-adv-x="664" d="M332 -22q-140 0 -216 94t-76 246q0 106 31 199t83 161t121 107t145 39q74 0 126 -53t52 -151q0 -64 -28 -127t-73 -112t-99 -79t-104 -30q-32 0 -54 8t-40 24q6 -114 50 -159t114 -45q48 0 85 20t63 46t42 53t22 41q6 12 21 12t15 -24q0 -22 -15 -67t-49 -90t-87 -79 t-129 -34zM424 738q-12 0 -45 -25t-70 -73t-68 -115t-39 -151q120 28 190 88t70 176q0 58 -14 79t-24 21zM280 1280q12 6 22 14q10 4 21 9t21 3q0 -22 9 -40t21 -34l24 -36q16 -22 44 -66t78 -118q0 -16 -8 -36q-4 -8 -10 -16q-18 -22 -42 -27t-34 5q-6 4 -34 30t-61 59 t-62 66t-35 51q-14 36 3 75t43 61z" />
<glyph unicode="&#xe9;" horiz-adv-x="664" d="M332 -22q-140 0 -216 94t-76 246q0 106 31 199t83 161t121 107t145 39q74 0 126 -53t52 -151q0 -64 -28 -127t-73 -112t-99 -79t-104 -30q-32 0 -54 8t-40 24q6 -114 50 -159t114 -45q48 0 85 20t63 46t42 53t22 41q6 12 21 12t15 -24q0 -22 -15 -67t-49 -90t-87 -79 t-129 -34zM424 738q-12 0 -45 -25t-70 -73t-68 -115t-39 -151q120 28 190 88t70 176q0 58 -14 79t-24 21zM508 1280q26 -22 43 -61t3 -75q-6 -18 -35 -51t-62 -66t-61 -59t-34 -30q-10 -10 -34 -5t-42 27q-6 8 -10 16t-7 17t-1 19q50 74 79 118t45 66l24 36q10 16 19 34 t9 40q10 2 21 -3t21 -9q10 -8 22 -14z" />
<glyph unicode="&#xea;" horiz-adv-x="664" d="M332 -22q-140 0 -216 94t-76 246q0 106 31 199t83 161t121 107t145 39q74 0 126 -53t52 -151q0 -64 -28 -127t-73 -112t-99 -79t-104 -30q-32 0 -54 8t-40 24q6 -114 50 -159t114 -45q48 0 85 20t63 46t42 53t22 41q6 12 21 12t15 -24q0 -22 -15 -67t-49 -90t-87 -79 t-129 -34zM424 738q-12 0 -45 -25t-70 -73t-68 -115t-39 -151q120 28 190 88t70 176q0 58 -14 79t-24 21zM350 1218q6 6 22 10t34 5t33 0t19 -5q14 -18 42 -50q24 -28 65 -75t107 -119q-8 -12 -30 -20q-10 -4 -22 -6t-26 -2q-12 -2 -29 -2h-35q-26 34 -48 63t-38 51 q-20 24 -36 44q-20 -18 -42 -42q-20 -22 -47 -51t-61 -63q-22 0 -39 3t-33 7q-18 4 -32 8q-14 2 -22 6q-18 8 -16 8q104 106 168 168q36 36 66 62z" />
<glyph unicode="&#xeb;" horiz-adv-x="664" d="M332 -22q-140 0 -216 94t-76 246q0 106 31 199t83 161t121 107t145 39q74 0 126 -53t52 -151q0 -64 -28 -127t-73 -112t-99 -79t-104 -30q-32 0 -54 8t-40 24q6 -114 50 -159t114 -45q48 0 85 20t63 46t42 53t22 41q6 12 21 12t15 -24q0 -22 -15 -67t-49 -90t-87 -79 t-129 -34zM424 738q-12 0 -45 -25t-70 -73t-68 -115t-39 -151q120 28 190 88t70 176q0 58 -14 79t-24 21zM556 1120q28 0 48 -14t28 -48q6 -26 -2 -50t-25 -42t-40 -29t-49 -11q-34 0 -52 18t-22 42q-6 24 2 48t25 43t40 31t47 12zM274 1116q28 -2 49 -16t27 -46 q6 -26 -2 -49t-25 -40t-41 -26t-50 -7q-36 2 -54 20t-22 38q-6 24 2 47t25 41t41 29t50 9z" />
<glyph unicode="&#xec;" horiz-adv-x="358" d="M76 708q0 12 32 26t71 23t72 10t33 -15q0 -30 -4 -85t-10 -116l-12 -122t-8 -103q-4 -44 -8 -96q-4 -44 -6 -98t0 -110q0 -10 -20 -20t-44 -15t-46 -5t-24 8q-4 8 -8 28t-8 57t-6 96t2 143q8 166 2 257t-8 137zM54 1260q12 6 22 14q10 4 21 9t21 3q0 -22 9 -40t21 -34 l24 -36q16 -22 44 -66t78 -118q0 -16 -8 -36q-4 -8 -10 -16q-18 -22 -42 -27t-34 5q-6 4 -34 30t-61 59t-62 66t-35 51q-14 36 3 75t43 61z" />
<glyph unicode="&#xed;" horiz-adv-x="358" d="M76 708q0 12 32 26t71 23t72 10t33 -15q0 -30 -4 -85t-10 -116l-12 -122t-8 -103q-4 -44 -8 -96q-4 -44 -6 -98t0 -110q0 -10 -20 -20t-44 -15t-46 -5t-24 8q-4 8 -8 28t-8 57t-6 96t2 143q8 166 2 257t-8 137zM324 1260q26 -22 43 -61t3 -75q-6 -18 -35 -51t-62 -66 t-61 -59t-34 -30q-10 -10 -34 -5t-42 27q-6 8 -10 16t-7 17t-1 19q50 74 79 118t45 66l24 36q10 16 19 34t9 40q10 2 21 -3t21 -9q10 -8 22 -14z" />
<glyph unicode="&#xee;" horiz-adv-x="358" d="M76 708q0 12 32 26t71 23t72 10t33 -15q0 -30 -4 -85t-10 -116l-12 -122t-8 -103q-4 -44 -8 -96q-4 -44 -6 -98t0 -110q0 -10 -20 -20t-44 -15t-46 -5t-24 8q-4 8 -8 28t-8 57t-6 96t2 143q8 166 2 257t-8 137zM146 1158q6 6 22 10t34 5t33 0t19 -5q14 -18 42 -50 q24 -28 65 -75t107 -119q-8 -12 -30 -20q-10 -4 -22 -6t-26 -2q-12 -2 -29 -2h-35q-26 34 -48 63t-38 51q-20 24 -36 44q-20 -18 -42 -42q-20 -22 -47 -51t-61 -63q-22 0 -39 3t-33 7q-18 4 -32 8q-14 2 -22 6q-18 8 -16 8q104 106 168 168q36 36 66 62z" />
<glyph unicode="&#xef;" horiz-adv-x="358" d="M76 708q0 12 32 26t71 23t72 10t33 -15q0 -30 -4 -85t-10 -116l-12 -122t-8 -103q-4 -44 -8 -96q-4 -44 -6 -98t0 -110q0 -10 -20 -20t-44 -15t-46 -5t-24 8q-4 8 -8 28t-8 57t-6 96t2 143q8 166 2 257t-8 137zM352 1100q28 0 48 -14t28 -48q6 -26 -2 -50t-25 -42 t-40 -29t-49 -11q-34 0 -52 18t-22 42q-6 24 2 48t25 43t40 31t47 12zM70 1096q28 -2 49 -16t27 -46q6 -26 -2 -49t-25 -40t-41 -26t-50 -7q-36 2 -54 20t-22 38q-6 24 2 47t25 41t41 29t50 9z" />
<glyph unicode="&#xf0;" horiz-adv-x="662" d="M620 362q-4 -78 -28 -146t-64 -121t-96 -84t-122 -33q-58 -2 -109 28t-89 84t-57 129t-11 163q6 102 38 175t68 121t67 71t39 27q14 6 26 3t26 -7q4 -2 8 -10q8 -14 10 -52q6 16 19 26t27 16q16 8 36 10q-10 30 -24 58t-28 50q-22 -4 -50 -9t-57 -12t-53 -15t-38 -18 q-14 10 -22 39t2 69q30 10 69 20t73 20q-40 36 -70 51t-34 19q-10 10 -20 32t-10 42q-2 6 2 12q4 14 22 8q42 -6 106 -38t130 -96q160 36 206 8q14 -10 18 -25t4 -33t-2 -34t0 -26q-20 4 -59 4t-79 -4q58 -90 95 -218t31 -304zM480 380q2 46 -3 93t-17 86t-27 63t-31 24 q-18 -4 -40 -18q-18 -12 -40 -38t-42 -74q-2 6 -4 22q-2 14 -3 37t3 63q-28 -34 -43 -80t-23 -88q-8 -50 -12 -100q-2 -54 5 -106t24 -92t41 -64t58 -22t61 28t47 66t31 90t15 98v12z" />
<glyph unicode="&#xf1;" horiz-adv-x="738" d="M272 54q-2 -12 -21 -25t-44 -23t-47 -13t-30 5t-26 30t-22 72q-4 52 -4 131t-2 175v80q0 36 -1 84t-3 100q18 10 37 19t35 15q18 8 34 12q42 12 64 14t26 -14q2 -12 -2 -58q-4 -40 -10 -121t-20 -225q26 64 43 110t29 74q12 34 22 54q10 26 26 58t33 60t32 50t23 26 q6 4 36 0t64 -19t66 -42t42 -65q12 -44 9 -116t-10 -148t-11 -144t8 -104q4 -20 12 -36q4 -16 11 -29t15 -19q-48 -22 -78 -32t-46 -14q-20 -6 -28 -4q-18 6 -31 30t-23 76q-4 16 -3 53t5 84t9 98t8 96t5 78t0 45q-10 36 -28 51t-28 3q-26 -30 -55 -97t-55 -146t-44 -157 t-22 -132zM522 1010q20 2 42 12q18 10 39 26t41 48q8 -10 10 -32t-1 -46t-10 -48t-17 -40q-10 -14 -34 -32t-62 -18q-40 0 -71 12t-56 27t-48 27t-45 12q-20 -2 -42 -10q-18 -8 -42 -24t-48 -46q-16 6 -26 25t-14 41t-5 41t1 29q26 28 52 42t48 22q24 8 48 10q34 0 61 -13 t54 -28t56 -27t69 -10z" />
<glyph unicode="&#xf2;" horiz-adv-x="660" d="M616 344q-4 -78 -27 -144t-63 -115t-95 -77t-121 -30q-58 -2 -109 28t-89 84t-57 129t-11 163q6 102 38 175t68 121t67 71t39 27q14 6 26 3t26 -7q4 -2 8 -10q8 -14 10 -52q10 22 26 36t32 20q20 8 40 10q14 2 49 -22t68 -76t57 -135t18 -199zM480 368q2 48 -3 97t-16 90 t-27 66t-32 25q-18 -4 -40 -18q-18 -12 -40 -38t-42 -74q-2 6 -4 22q-2 14 -3 37t3 63q-28 -34 -43 -80t-23 -88q-8 -50 -12 -100q-2 -54 5 -106t24 -92t41 -64t58 -22t60 28t46 66t32 90t16 98zM238 1238q12 6 22 14q10 4 21 9t21 3q0 -22 9 -40t21 -34l24 -36 q16 -22 44 -66t78 -118q0 -16 -8 -36q-4 -8 -10 -16q-18 -22 -42 -27t-34 5q-6 4 -34 30t-61 59t-62 66t-35 51q-14 36 3 75t43 61z" />
<glyph unicode="&#xf3;" horiz-adv-x="660" d="M616 344q-4 -78 -27 -144t-63 -115t-95 -77t-121 -30q-58 -2 -109 28t-89 84t-57 129t-11 163q6 102 38 175t68 121t67 71t39 27q14 6 26 3t26 -7q4 -2 8 -10q8 -14 10 -52q10 22 26 36t32 20q20 8 40 10q14 2 49 -22t68 -76t57 -135t18 -199zM480 368q2 48 -3 97t-16 90 t-27 66t-32 25q-18 -4 -40 -18q-18 -12 -40 -38t-42 -74q-2 6 -4 22q-2 14 -3 37t3 63q-28 -34 -43 -80t-23 -88q-8 -50 -12 -100q-2 -54 5 -106t24 -92t41 -64t58 -22t60 28t46 66t32 90t16 98zM508 1238q26 -22 43 -61t3 -75q-6 -18 -35 -51t-62 -66t-61 -59t-34 -30 q-10 -10 -34 -5t-42 27q-6 8 -10 16t-7 17t-1 19q50 74 79 118t45 66l24 36q10 16 19 34t9 40q10 2 21 -3t21 -9q10 -8 22 -14z" />
<glyph unicode="&#xf4;" horiz-adv-x="660" d="M616 344q-4 -78 -27 -144t-63 -115t-95 -77t-121 -30q-58 -2 -109 28t-89 84t-57 129t-11 163q6 102 38 175t68 121t67 71t39 27q14 6 26 3t26 -7q4 -2 8 -10q8 -14 10 -52q10 22 26 36t32 20q20 8 40 10q14 2 49 -22t68 -76t57 -135t18 -199zM480 368q2 48 -3 97t-16 90 t-27 66t-32 25q-18 -4 -40 -18q-18 -12 -40 -38t-42 -74q-2 6 -4 22q-2 14 -3 37t3 63q-28 -34 -43 -80t-23 -88q-8 -50 -12 -100q-2 -54 5 -106t24 -92t41 -64t58 -22t60 28t46 66t32 90t16 98zM310 1178q6 6 22 10t34 5t33 0t19 -5q14 -18 42 -50q24 -28 65 -75t107 -119 q-8 -12 -30 -20q-10 -4 -22 -6t-26 -2q-12 -2 -29 -2h-35q-26 34 -48 63t-38 51q-20 24 -36 44q-20 -18 -42 -42q-20 -22 -47 -51t-61 -63q-22 0 -39 3t-33 7q-18 4 -32 8q-14 2 -22 6q-18 8 -16 8q104 106 168 168q36 36 66 62z" />
<glyph unicode="&#xf5;" horiz-adv-x="660" d="M616 344q-4 -78 -27 -144t-63 -115t-95 -77t-121 -30q-58 -2 -109 28t-89 84t-57 129t-11 163q6 102 38 175t68 121t67 71t39 27q14 6 26 3t26 -7q4 -2 8 -10q8 -14 10 -52q10 22 26 36t32 20q20 8 40 10q14 2 49 -22t68 -76t57 -135t18 -199zM480 368q2 48 -3 97t-16 90 t-27 66t-32 25q-18 -4 -40 -18q-18 -12 -40 -38t-42 -74q-2 6 -4 22q-2 14 -3 37t3 63q-28 -34 -43 -80t-23 -88q-8 -50 -12 -100q-2 -54 5 -106t24 -92t41 -64t58 -22t60 28t46 66t32 90t16 98zM482 1010q20 2 42 12q18 10 39 26t41 48q8 -10 10 -32t-1 -46t-10 -48 t-17 -40q-10 -14 -34 -32t-62 -18q-40 0 -71 12t-56 27t-48 27t-45 12q-20 -2 -42 -10q-18 -8 -42 -24t-48 -46q-16 6 -26 25t-14 41t-5 41t1 29q26 28 52 42t48 22q24 8 48 10q34 0 61 -13t54 -28t56 -27t69 -10z" />
<glyph unicode="&#xf6;" horiz-adv-x="660" d="M616 344q-4 -78 -27 -144t-63 -115t-95 -77t-121 -30q-58 -2 -109 28t-89 84t-57 129t-11 163q6 102 38 175t68 121t67 71t39 27q14 6 26 3t26 -7q4 -2 8 -10q8 -14 10 -52q10 22 26 36t32 20q20 8 40 10q14 2 49 -22t68 -76t57 -135t18 -199zM480 368q2 48 -3 97t-16 90 t-27 66t-32 25q-18 -4 -40 -18q-18 -12 -40 -38t-42 -74q-2 6 -4 22q-2 14 -3 37t3 63q-28 -34 -43 -80t-23 -88q-8 -50 -12 -100q-2 -54 5 -106t24 -92t41 -64t58 -22t60 28t46 66t32 90t16 98zM516 1100q28 0 48 -14t28 -48q6 -26 -2 -50t-25 -42t-40 -29t-49 -11 q-34 0 -52 18t-22 42q-6 24 2 48t25 43t40 31t47 12zM234 1096q28 -2 49 -16t27 -46q6 -26 -2 -49t-25 -40t-41 -26t-50 -7q-36 2 -54 20t-22 38q-6 24 2 47t25 41t41 29t50 9z" />
<glyph unicode="&#xf7;" horiz-adv-x="674" d="M364 436q52 0 74 -19t22 -47q0 -22 -15 -42t-38 -36t-51 -26t-54 -10q-46 0 -61 23t-15 43q0 40 35 77t103 37zM44 468q-16 16 -22 52t8 86q34 10 80 18t86 14q48 8 96 14q132 22 218 24t120 -24q16 -12 20 -33t3 -42t-5 -41t-4 -32q-24 8 -73 10t-99 4h-124 q-66 -2 -126 -10q-52 -6 -102 -15t-76 -25zM460 854q0 -22 -15 -43t-38 -37t-51 -25t-54 -9q-46 0 -61 23t-15 41q0 40 35 78t103 38q52 0 74 -19t22 -47z" />
<glyph unicode="&#xf8;" horiz-adv-x="662" d="M424 776q12 2 40 -15t58 -57q8 12 16 22q14 22 28 38q12 2 25 1t23 -3q12 -2 24 -6q10 -4 18 -10l12 -8t4 -8q-16 -22 -31 -43t-29 -41q-16 -22 -30 -44q18 -50 28 -114t6 -144q-4 -78 -27 -144t-63 -115t-95 -77t-121 -30q-54 0 -94 20q-12 -26 -22 -50q-10 -22 -19 -47 t-13 -45q-16 4 -29 14t-23 20t-20 24q-22 32 -17 70t27 86q2 6 10 22q-36 54 -55 127t-11 163q6 102 38 175t68 121t67 71t39 27q14 6 26 3t26 -7q4 -2 8 -10q8 -14 10 -52q10 22 26 36t32 20q20 8 40 10zM480 368q2 22 1 43t-3 43q-38 -52 -66 -98q-46 -68 -82 -130 t-64 -118q26 -22 60 -22q34 2 60 28t46 66t32 90t16 98zM296 398q34 46 73 99t75 103q-20 46 -42 46q-18 -4 -40 -18q-18 -12 -40 -38t-42 -74q-2 6 -4 22q-2 14 -3 37t3 63q-28 -34 -43 -80t-23 -88q-8 -50 -12 -100q-4 -60 6 -112q22 32 44 66t48 74z" />
<glyph unicode="&#xf9;" horiz-adv-x="760" d="M518 744q0 22 27 33t58 11t57 -11t24 -29q-2 -14 -4 -55t-5 -97t-7 -120t-7 -125t-4 -113t-1 -80q0 -36 4 -66q4 -26 10 -51t18 -35q-16 -6 -33 -8t-31 -4q-16 -2 -32 -2q-34 0 -57 14t-23 58q0 22 3 64t7 90q-14 -42 -34 -86t-49 -78t-65 -56t-82 -22q-52 0 -95 22 t-75 63t-48 101t-12 138q0 60 2 128q2 58 6 134t14 158q2 8 28 20t58 20t62 6t44 -24q-10 -36 -20 -85t-18 -101t-12 -102t-4 -92q0 -38 4 -83t15 -84t32 -65t55 -26q38 0 67 33t49 85t34 119t23 133t12 127t5 103v40v0zM260 1238q12 6 22 14q10 4 21 9t21 3q0 -22 9 -40 t21 -34l24 -36q16 -22 44 -66t78 -118q0 -16 -8 -36q-4 -8 -10 -16q-18 -22 -42 -27t-34 5q-6 4 -34 30t-61 59t-62 66t-35 51q-14 36 3 75t43 61z" />
<glyph unicode="&#xfa;" horiz-adv-x="760" d="M518 744q0 22 27 33t58 11t57 -11t24 -29q-2 -14 -4 -55t-5 -97t-7 -120t-7 -125t-4 -113t-1 -80q0 -36 4 -66q4 -26 10 -51t18 -35q-16 -6 -33 -8t-31 -4q-16 -2 -32 -2q-34 0 -57 14t-23 58q0 22 3 64t7 90q-14 -42 -34 -86t-49 -78t-65 -56t-82 -22q-52 0 -95 22 t-75 63t-48 101t-12 138q0 60 2 128q2 58 6 134t14 158q2 8 28 20t58 20t62 6t44 -24q-10 -36 -20 -85t-18 -101t-12 -102t-4 -92q0 -38 4 -83t15 -84t32 -65t55 -26q38 0 67 33t49 85t34 119t23 133t12 127t5 103v40v0zM550 1238q26 -22 43 -61t3 -75q-6 -18 -35 -51 t-62 -66t-61 -59t-34 -30q-10 -10 -34 -5t-42 27q-6 8 -10 16t-7 17t-1 19q50 74 79 118t45 66l24 36q10 16 19 34t9 40q10 2 21 -3t21 -9q10 -8 22 -14z" />
<glyph unicode="&#xfb;" horiz-adv-x="760" d="M518 744q0 22 27 33t58 11t57 -11t24 -29q-2 -14 -4 -55t-5 -97t-7 -120t-7 -125t-4 -113t-1 -80q0 -36 4 -66q4 -26 10 -51t18 -35q-16 -6 -33 -8t-31 -4q-16 -2 -32 -2q-34 0 -57 14t-23 58q0 22 3 64t7 90q-14 -42 -34 -86t-49 -78t-65 -56t-82 -22q-52 0 -95 22 t-75 63t-48 101t-12 138q0 60 2 128q2 58 6 134t14 158q2 8 28 20t58 20t62 6t44 -24q-10 -36 -20 -85t-18 -101t-12 -102t-4 -92q0 -38 4 -83t15 -84t32 -65t55 -26q38 0 67 33t49 85t34 119t23 133t12 127t5 103v40v0zM350 1178q6 6 22 10t34 5t33 0t19 -5q14 -18 42 -50 q24 -28 65 -75t107 -119q-8 -12 -30 -20q-10 -4 -22 -6t-26 -2q-12 -2 -29 -2h-35q-26 34 -48 63t-38 51q-20 24 -36 44q-20 -18 -42 -42q-20 -22 -47 -51t-61 -63q-22 0 -39 3t-33 7q-18 4 -32 8q-14 2 -22 6q-18 8 -16 8q104 106 168 168q36 36 66 62z" />
<glyph unicode="&#xfc;" horiz-adv-x="760" d="M518 744q0 22 27 33t58 11t57 -11t24 -29q-2 -14 -4 -55t-5 -97t-7 -120t-7 -125t-4 -113t-1 -80q0 -36 4 -66q4 -26 10 -51t18 -35q-16 -6 -33 -8t-31 -4q-16 -2 -32 -2q-34 0 -57 14t-23 58q0 22 3 64t7 90q-14 -42 -34 -86t-49 -78t-65 -56t-82 -22q-52 0 -95 22 t-75 63t-48 101t-12 138q0 60 2 128q2 58 6 134t14 158q2 8 28 20t58 20t62 6t44 -24q-10 -36 -20 -85t-18 -101t-12 -102t-4 -92q0 -38 4 -83t15 -84t32 -65t55 -26q38 0 67 33t49 85t34 119t23 133t12 127t5 103v40v0zM576 1100q28 0 48 -14t28 -48q6 -26 -2 -50t-25 -42 t-40 -29t-49 -11q-34 0 -52 18t-22 42q-6 24 2 48t25 43t40 31t47 12zM294 1096q28 -2 49 -16t27 -46q6 -26 -2 -49t-25 -40t-41 -26t-50 -7q-36 2 -54 20t-22 38q-6 24 2 47t25 41t41 29t50 9z" />
<glyph unicode="&#xfd;" horiz-adv-x="750" d="M656 768q4 -176 6 -308t4 -222q2 -106 2 -182q2 -94 -15 -195t-55 -185t-100 -138t-150 -54q-106 0 -162 43t-82 97t-30 101t-4 55q0 16 20 36t60 36q16 6 32 10q14 4 28 6t26 -2q-20 -36 -23 -82t12 -87t45 -69t76 -28q64 0 101 37t56 91t24 114t5 106q0 36 -1 93 t-7 127q-24 -40 -56 -77t-68 -65t-73 -45t-73 -17q-62 0 -100 39t-58 98t-27 128t-7 127q0 44 4 107t10 121t15 101t19 49q58 34 114 38t84 -14q-24 -18 -40 -60t-26 -93t-14 -106t-4 -99q0 -36 2 -86t9 -96t21 -78t36 -32q44 0 82 32t67 80t45 103t16 103v16q-4 52 -8 99 t-7 85t-4 63t-1 33q0 20 27 36t60 23t60 5t27 -18zM590 1238q26 -22 43 -61t3 -75q-6 -18 -35 -51t-62 -66t-61 -59t-34 -30q-10 -10 -34 -5t-42 27q-6 8 -10 16t-7 17t-1 19q50 74 79 118t45 66l24 36q10 16 19 34t9 40q10 2 21 -3t21 -9q10 -8 22 -14z" />
<glyph unicode="&#xfe;" horiz-adv-x="766" d="M454 650q56 0 104 -32t82 -85t54 -120t20 -139t-16 -152t-50 -148t-88 -113t-132 -45q-62 0 -117 46t-85 114q-4 -70 -18 -144t-14 -176q0 -30 2 -68t6 -76t12 -70t18 -50q-34 -20 -61 -30t-47 -14q-22 -6 -42 -6q-26 0 -34 23t-8 77q0 50 6 158t14 237t14 259t6 222v170 v233t2 351q20 10 37 18t33 14t32 10q40 12 61 14t25 -14q0 -4 -2 -63t-6 -147t-9 -195t-11 -207q38 58 90 103t122 45zM376 -66q36 0 69 34t58 87t40 119t15 130q0 70 -13 115t-32 72t-40 37t-37 10q-38 0 -72 -31t-60 -80t-41 -109t-15 -120q0 -56 11 -104t29 -84t41 -56 t47 -20z" />
<glyph unicode="&#xff;" horiz-adv-x="750" d="M656 768q4 -176 6 -308t4 -222q2 -106 2 -182q2 -94 -15 -195t-55 -185t-100 -138t-150 -54q-106 0 -162 43t-82 97t-30 101t-4 55q0 16 20 36t60 36q16 6 32 10q14 4 28 6t26 -2q-20 -36 -23 -82t12 -87t45 -69t76 -28q64 0 101 37t56 91t24 114t5 106q0 36 -1 93 t-7 127q-24 -40 -56 -77t-68 -65t-73 -45t-73 -17q-62 0 -100 39t-58 98t-27 128t-7 127q0 44 4 107t10 121t15 101t19 49q58 34 114 38t84 -14q-24 -18 -40 -60t-26 -93t-14 -106t-4 -99q0 -36 2 -86t9 -96t21 -78t36 -32q44 0 82 32t67 80t45 103t16 103v16q-4 52 -8 99 t-7 85t-4 63t-1 33q0 20 27 36t60 23t60 5t27 -18zM556 1100q28 0 48 -14t28 -48q6 -26 -2 -50t-25 -42t-40 -29t-49 -11q-34 0 -52 18t-22 42q-6 24 2 48t25 43t40 31t47 12zM274 1096q28 -2 49 -16t27 -46q6 -26 -2 -49t-25 -40t-41 -26t-50 -7q-36 2 -54 20t-22 38 q-6 24 2 47t25 41t41 29t50 9z" />
<glyph unicode="&#x131;" horiz-adv-x="358" d="M76 708q0 12 32 26t71 23t72 10t33 -15q0 -30 -4 -85t-10 -116l-12 -122t-8 -103q-4 -44 -8 -96q-4 -44 -6 -98t0 -110q0 -10 -20 -20t-44 -15t-46 -5t-24 8q-4 8 -8 28t-8 57t-6 96t2 143q8 166 2 257t-8 137z" />
<glyph unicode="&#x152;" horiz-adv-x="1470" d="M604 -162q-106 0 -206 44t-176 135t-120 231t-40 330t64 333t142 240t168 148t140 57q28 -18 41 -36t19 -34q18 8 37 15t41 11q16 12 41 23t49 18t44 10t30 -1v-30q54 2 112 3t116 1q78 2 146 4q58 2 117 1t91 -3q16 -2 25 -23t6 -53t-21 -70t-54 -72q-48 10 -101 16 t-97 10q-52 4 -100 2q-74 0 -132 -1t-106 -3q2 -100 3 -225t1 -257q28 2 55 4t55 4q72 4 140 8t119 -3t77 -31t12 -76l-28 -96q-4 10 -22 17t-40 11q-24 6 -54 10q-68 8 -151 2t-161 -18v-2q0 -176 -2 -291t-6 -181q22 4 48 6t58 6q72 6 150 8q66 2 146 1t156 -11 q12 -20 7 -52t-15 -62q-12 -36 -30 -76q-88 10 -172 14t-150 6q-78 2 -146 0q-62 2 -96 -1t-64 -8t-65 -9t-101 -4zM270 600q-4 -162 28 -278t83 -189t112 -107t117 -34h43t35 2q0 42 1 95t3 113t3 123t3 127q-32 6 -58 55t-24 109q14 4 29 6t29 6q16 4 30 6q0 52 1 94t3 74 q2 88 1 174t-5 156q-12 -2 -24 -3t-24 -5q-28 -6 -50 -20q-18 -12 -33 -33t-13 -55q-26 32 -31 65t3 61q-60 -40 -107 -99t-81 -130t-53 -151t-21 -162z" />
<glyph unicode="&#x153;" horiz-adv-x="1100" d="M1012 260q6 12 21 12t15 -24q0 -22 -15 -67t-49 -90t-87 -79t-129 -34q-80 0 -138 31t-96 89q-84 -114 -224 -120q-58 -2 -109 28t-89 84t-57 129t-11 163q6 102 38 175t68 121t67 71t39 27q14 6 26 3t26 -7q4 -2 8 -10q8 -14 10 -52q10 22 26 36t32 20q20 8 40 10 q16 2 60 -31t80 -107q52 86 129 136t165 50q72 0 124 -53t52 -151q0 -64 -28 -127t-72 -112t-98 -79t-104 -30q-58 0 -94 32q6 -114 49 -159t113 -45q48 0 85 20t63 46t42 53t22 41zM860 738q-12 0 -45 -25t-70 -73t-68 -115t-39 -151q120 28 192 88t72 176q0 58 -16 79 t-26 21zM480 368q2 48 -3 97t-16 90t-27 66t-32 25q-18 -4 -40 -18q-18 -12 -40 -38t-42 -74q-2 6 -4 22q-2 14 -3 37t3 63q-28 -34 -43 -80t-23 -88q-8 -50 -12 -100q-2 -54 5 -106t24 -92t41 -64t58 -22t60 28t46 66t32 90t16 98z" />
<glyph unicode="&#x178;" horiz-adv-x="1008" d="M466 142q-170 0 -269 150t-121 428q-8 96 -2 190t20 172t34 134t40 76t46 36t51 25t47 8t36 -13q-42 -132 -64 -261t-25 -245t10 -216t41 -172t70 -113t96 -41q94 0 143 82t69 210t20 284t-2 306q-2 72 11 111t57 55q16 6 32 10q32 8 52 -4q16 -64 25 -159t13 -187 q6 -108 6 -222q4 -40 9 -110t5 -156t-6 -183t-24 -192t-50 -182t-86 -154t-130 -106t-180 -39q-84 0 -148 46t-103 105t-52 113t5 72l100 90q20 -98 57 -150t75 -76q44 -28 92 -32q78 0 127 39t79 109t44 167t20 211q-38 -90 -103 -153t-167 -63zM718 1672q28 0 48 -14 t28 -48q6 -26 -2 -50t-25 -42t-40 -29t-49 -11q-34 0 -52 18t-22 42q-6 24 2 48t25 43t40 31t47 12zM436 1668q28 -2 49 -16t27 -46q6 -26 -2 -49t-25 -40t-41 -26t-50 -7q-36 2 -54 20t-22 38q-6 24 2 47t25 41t41 29t50 9z" />
<glyph unicode="&#x2c6;" d="M512 1360q6 6 22 10t34 5t33 0t19 -5q14 -18 42 -50q24 -28 65 -75t107 -119q-8 -12 -30 -20q-10 -4 -22 -6t-26 -2q-12 -2 -29 -2h-35q-26 34 -48 63t-38 51q-20 24 -36 44q-20 -18 -42 -42q-20 -22 -47 -51t-61 -63q-22 0 -39 3t-33 7q-18 4 -32 8q-14 2 -22 6 q-18 8 -16 8q104 106 168 168q36 36 66 62z" />
<glyph unicode="&#x2da;" d="M570 1414q62 0 104 -38t42 -114t-45 -123t-119 -47q-72 0 -114 45t-42 111q0 34 15 64t39 53t55 36t65 13zM564 1184q28 0 44 22t16 56q0 28 -16 41t-34 13q-30 0 -53 -20t-23 -48q0 -30 20 -47t46 -17z" />
<glyph unicode="&#x2dc;" d="M684 1274q20 2 42 12q18 10 39 26t41 48q8 -10 10 -32t-1 -46t-10 -48t-17 -40q-10 -14 -34 -32t-62 -18q-40 0 -71 12t-56 27t-48 27t-45 12q-20 -2 -42 -10q-18 -8 -42 -24t-48 -46q-16 6 -26 25t-14 41t-5 41t1 29q26 28 52 42t48 22q24 8 48 10q34 0 61 -13t54 -28 t56 -27t69 -10z" />
<glyph unicode="&#x2000;" horiz-adv-x="918" />
<glyph unicode="&#x2001;" horiz-adv-x="1836" />
<glyph unicode="&#x2002;" horiz-adv-x="918" />
<glyph unicode="&#x2003;" horiz-adv-x="1836" />
<glyph unicode="&#x2004;" horiz-adv-x="612" />
<glyph unicode="&#x2005;" horiz-adv-x="459" />
<glyph unicode="&#x2006;" horiz-adv-x="306" />
<glyph unicode="&#x2007;" horiz-adv-x="306" />
<glyph unicode="&#x2008;" horiz-adv-x="229" />
<glyph unicode="&#x2009;" horiz-adv-x="367" />
<glyph unicode="&#x200a;" horiz-adv-x="102" />
<glyph unicode="&#x2010;" horiz-adv-x="674" d="M630 668q16 -12 20 -33t3 -42t-5 -41t-4 -32q-24 8 -73 10t-99 4h-124q-66 -4 -126 -10q-52 -6 -102 -14t-76 -24q-16 14 -22 51t8 85q34 10 80 18t86 14q48 8 96 14q132 22 218 24t120 -24z" />
<glyph unicode="&#x2011;" horiz-adv-x="674" d="M630 668q16 -12 20 -33t3 -42t-5 -41t-4 -32q-24 8 -73 10t-99 4h-124q-66 -4 -126 -10q-52 -6 -102 -14t-76 -24q-16 14 -22 51t8 85q34 10 80 18t86 14q48 8 96 14q132 22 218 24t120 -24z" />
<glyph unicode="&#x2012;" horiz-adv-x="674" d="M630 668q16 -12 20 -33t3 -42t-5 -41t-4 -32q-24 8 -73 10t-99 4h-124q-66 -4 -126 -10q-52 -6 -102 -14t-76 -24q-16 14 -22 51t8 85q34 10 80 18t86 14q48 8 96 14q132 22 218 24t120 -24z" />
<glyph unicode="&#x2013;" horiz-adv-x="674" d="M630 668q16 -12 20 -33t3 -42t-5 -41t-4 -32q-24 8 -73 10t-99 4h-124q-66 -4 -126 -10q-52 -6 -102 -14t-76 -24q-16 14 -22 51t8 85q34 10 80 18t86 14q48 8 96 14q132 22 218 24t120 -24z" />
<glyph unicode="&#x2014;" horiz-adv-x="1038" d="M62 636q18 16 55 26t82 15t93 5t88 -2q82 -2 182 -6q86 -4 202 -8t254 -10q-4 -70 -32 -110t-96 -36q-34 2 -82 6t-105 7t-121 4t-128 -3q-70 0 -142 -4q-62 -4 -137 -8t-147 -14q-12 30 -8 56t14 44q10 22 28 38z" />
<glyph unicode="&#x2018;" horiz-adv-x="320" d="M204 1332q-10 -28 -7 -53t9 -51q4 -14 16 -52q10 -34 28 -95t50 -169q-4 -16 -11 -25t-15 -17t-18 -14q-28 -18 -53 -10t-33 22q-4 8 -28 50t-50 94t-48 103t-24 75q-4 50 26 83t70 51q16 6 32 10q30 6 56 -2z" />
<glyph unicode="&#x2019;" horiz-adv-x="320" d="M200 1324q40 -18 71 -51t29 -83q-2 -24 -24 -75t-49 -103t-50 -94t-27 -50q-8 -14 -34 -22t-54 10q-10 6 -18 14t-14 17t-10 25q30 108 48 169t28 95q10 38 14 52q8 26 10 51t-6 53q24 10 56 2q16 -4 30 -10z" />
<glyph unicode="&#x201a;" horiz-adv-x="320" d="M200 380q40 -16 71 -49t29 -83q-2 -24 -24 -75t-49 -103t-50 -94t-27 -50q-8 -14 -34 -22t-54 10q-10 6 -18 14t-14 17t-10 25q30 108 48 169t28 95q10 38 14 52q8 26 10 51t-6 53q12 4 27 4t29 -4q16 -4 30 -10z" />
<glyph unicode="&#x201c;" horiz-adv-x="550" d="M204 1332q-10 -28 -7 -53t9 -51q4 -14 16 -52q10 -34 28 -95t50 -169q-4 -16 -11 -25t-15 -17t-18 -14q-28 -18 -53 -10t-33 22q-4 8 -28 50t-50 94t-48 103t-24 75q-4 50 26 83t70 51q16 6 32 10q30 6 56 -2zM500 1328q-12 -26 -13 -51t3 -51q0 -14 6 -54q4 -34 11 -99 t23 -175q-6 -14 -14 -23t-16 -15q-8 -8 -18 -12q-32 -12 -55 0t-29 26q-4 8 -21 54t-36 101t-33 108t-12 77q8 50 41 78t77 42q14 2 30 4q14 0 29 -1t27 -9z" />
<glyph unicode="&#x201d;" horiz-adv-x="550" d="M254 1214q2 -24 -12 -77t-32 -108t-35 -101t-21 -54q-4 -14 -28 -26t-56 0q-12 4 -20 12q-8 6 -17 15t-13 23q16 110 24 175t12 99q6 40 8 54q4 26 2 51t-14 51q10 8 25 9t29 1l32 -4q42 -14 77 -42t39 -78zM434 1324q40 -18 70 -51t26 -83q0 -24 -22 -75t-48 -103 t-50 -94t-30 -50q-8 -14 -32 -22t-54 10q-10 6 -18 14q-18 16 -22 42q30 108 48 169t28 95q10 38 14 52q6 26 9 51t-5 53q24 8 54 2q16 -4 32 -10z" />
<glyph unicode="&#x201e;" horiz-adv-x="550" d="M254 272q2 -24 -12 -77t-32 -109t-35 -101t-21 -53q-4 -14 -28 -26t-56 0q-12 4 -20 12q-8 6 -17 14t-13 22q16 112 24 177t12 99q6 40 8 54q4 26 2 51t-14 51q10 8 25 9t29 1l32 -4q42 -14 77 -42t39 -78zM434 380q40 -16 70 -49t26 -83q0 -24 -22 -75t-48 -103t-50 -94 t-30 -50q-8 -14 -32 -22t-54 10q-10 6 -18 14q-18 16 -22 42q30 108 48 169t28 95q10 38 14 52q6 26 9 51t-5 53q12 4 26 4t28 -4q16 -4 32 -10z" />
<glyph unicode="&#x2022;" horiz-adv-x="388" d="M246 770q8 0 26 -11t36 -34t30 -60t8 -87q-6 -70 -51 -114t-115 -46q-62 -2 -104 50t-32 130q4 44 21 76t36 53t36 31t21 12q8 4 14 2l12 -4q2 0 4 -4l4 -8t2 -14q4 10 13 15t19 9t20 4z" />
<glyph unicode="&#x2026;" horiz-adv-x="1012" d="M176 208q38 0 63 -22t25 -62q0 -24 -9 -50t-30 -49t-54 -38t-79 -15q-40 0 -61 24t-21 60q0 60 48 106t118 46zM544 208q38 0 63 -22t25 -62q0 -24 -9 -50t-30 -49t-54 -38t-79 -15q-38 0 -60 24t-22 60q0 60 48 106t118 46zM914 208q36 0 62 -22t26 -62q0 -24 -10 -50 t-31 -49t-53 -38t-78 -15q-40 0 -61 24t-21 60q0 60 48 106t118 46z" />
<glyph unicode="&#x202f;" horiz-adv-x="367" />
<glyph unicode="&#x2039;" horiz-adv-x="376" d="M322 736q10 -8 15 -20t9 -24q4 -14 8 -30q2 -16 2 -32q0 -14 -2 -30t-6 -28q-52 -44 -94 -81t-74 -65q-36 -34 -66 -60q26 -32 62 -68q30 -34 73 -78t95 -100q4 -16 3 -34t-5 -36q-4 -22 -8 -42q-4 -18 -8 -30q-8 -26 -10 -22q-64 70 -117 131t-91 105q-44 52 -78 92 q-6 8 -11 31t-7 48t-1 46t7 27q22 20 62 58l92 92z" />
<glyph unicode="&#x203a;" horiz-adv-x="376" d="M56 736q90 -92 148 -150l92 -92q40 -38 62 -58q6 -6 7 -27t-1 -46t-7 -48t-13 -31q-34 -40 -78 -92q-38 -44 -90 -105t-116 -131q-2 -4 -10 22l-10 30q-4 20 -8 42q-4 18 -5 36t3 34q52 56 96 100t74 78q36 36 62 68q-30 26 -66 60q-32 28 -75 65t-95 81q-4 12 -5 28 t-1 30q0 16 2 32q0 16 6 30q4 12 11 24t17 20z" />
<glyph unicode="&#x205f;" horiz-adv-x="459" />
<glyph unicode="&#x20ac;" horiz-adv-x="1068" d="M970 372q16 -10 26 -21t14 -21q6 -12 6 -26q0 -12 -11 -43t-34 -71t-57 -82t-79 -77t-100 -58t-121 -23q-96 0 -172 32t-132 90t-92 138t-52 176q-56 -8 -90 -12t-40 2q-4 6 -5 23t-1 37t2 37t4 21q14 10 116 20q-2 28 -1 54t1 50l-44 -4q-18 -2 -40 -5t-40 -7 q-10 28 -9 52t7 40q6 20 18 34q16 18 51 26t77 10q24 110 70 198t111 151t144 97t169 34t148 -32t92 -81t48 -108t16 -113t-6 -96t-18 -56q-28 -46 -79 -71t-131 -13q36 68 48 139t8 129q-2 30 -8 67t-20 70t-37 55t-59 22q-60 0 -110 -33t-89 -87t-68 -126t-45 -150 q42 -2 90 -6q40 -4 89 -8t99 -10q-4 -62 -21 -93t-63 -27q-40 4 -90 7t-122 3q-4 -52 0 -102v-2q36 0 74 -2q34 -2 77 -3t93 -5l-18 -114h-138q-36 0 -70 -2q12 -50 31 -105t51 -100t78 -75t110 -30q60 4 122 36q52 28 112 85t110 165z" />
<glyph unicode="&#x25fc;" horiz-adv-x="790" d="M0 790h790v-790h-790v790z" />
<glyph unicode="&#xfb01;" horiz-adv-x="706" d="M624 22q0 -10 -18 -20t-41 -15t-43 -5t-22 8q-4 8 -8 28t-8 57t-5 96t3 143q4 132 2 217t-6 137q-28 6 -74 9t-116 -7q0 -90 3 -171t6 -159t6 -157t7 -163q-16 -28 -39 -35t-45 -5q-24 2 -52 14q-16 136 -25 254t-15 208q-8 104 -12 192q-34 -4 -56 -7t-36 1q-8 0 -8 10 l-2 90q0 4 1 8t7 4q14 4 37 9t55 11q4 256 79 391t235 135q56 -4 102 -28q40 -22 72 -69t36 -133q-32 -22 -62 -32t-54 -14q-28 -4 -54 0q10 56 2 86t-20 44q-14 16 -34 18q-66 0 -98 -95t-36 -269q36 6 71 11t71 9q10 2 19 2h17q84 2 142 -24t58 -54t-5 -81t-11 -114 t-12 -123t-6 -108q-4 -44 -6 -96q-2 -44 -4 -98t2 -110z" />
<glyph unicode="&#xfb02;" horiz-adv-x="706" d="M568 -26q-30 0 -52 29t-36 75t-21 103t-7 113q0 72 3 169t9 205q-26 4 -72 6t-104 -4q0 -92 3 -174t6 -161t7 -157t8 -158q-18 -28 -41 -35t-45 -5q-24 2 -52 14q-16 136 -25 254t-15 208q-8 104 -12 190q-34 -4 -57 -6t-35 2q-8 0 -8 10l-2 90q0 4 1 8t7 4q14 4 37 9 t55 13q8 252 82 387t230 137q68 0 113 -22t71 -56t37 -74t11 -76q0 -20 -6 -90t-14 -161t-17 -188t-13 -169q-8 -120 -7 -195t9 -123t23 -76t37 -54q-20 -16 -39 -24t-35 -12q-18 -6 -34 -6zM410 826q18 4 34 3t32 -1q4 38 6 76t6 76q2 42 6 72q0 16 -3 37t-11 39t-23 31 t-35 13q-66 0 -98 -95t-36 -265q28 4 61 8t61 6z" />
</font>
</defs>
</svg>
